<!-- Generator: Adobe Illustrator 18.0.0, SVG Export Plug-In  -->
<svg version="1.1"
	 xmlns="http://www.w3.org/2000/svg" xmlns:xlink="http://www.w3.org/1999/xlink" xmlns:a="http://ns.adobe.com/AdobeSVGViewerExtensions/3.0/"
	 x="0px" y="0px" width="25.1px" height="21.6px" viewBox="0 0 25.1 21.6" enable-background="new 0 0 25.1 21.6"
	 xml:space="preserve">
<defs>
</defs>
<g>
	<g enable-background="new    ">
		<g enable-background="new    ">
			<defs>
				<path id="SVGID_1_" enable-background="new    " d="M14.8,11.7C14.8,11.7,14.8,11.7,14.8,11.7C14.8,11.7,14.8,11.7,14.8,11.7
					c0.4,0.2,0.8,0.4,1.3,0.6c-0.7,0.3-1.9,0.3-2.5,0C14,12.1,14.5,11.9,14.8,11.7z"/>
			</defs>
			<clipPath id="SVGID_2_">
				<use xlink:href="#SVGID_1_"  overflow="visible"/>
			</clipPath>
			<g clip-path="url(#SVGID_2_)" enable-background="new    ">
				<path fill="#ABADAF" d="M14.8,11.7c0.4,0.2,0.8,0.4,1.3,0.6c-0.7,0.3-1.9,0.3-2.5,0C14,12.1,14.5,11.9,14.8,11.7"/>
				<path fill="#ABADAF" d="M14.8,11.7L14.8,11.7L14.8,11.7L14.8,11.7L14.8,11.7L14.8,11.7L14.8,11.7L14.8,11.7L14.8,11.7L14.8,11.7
					L14.8,11.7L14.8,11.7L14.8,11.7L14.8,11.7L14.8,11.7L14.8,11.7L14.8,11.7L14.8,11.7L14.8,11.7L14.8,11.7
					C14.8,11.7,14.9,11.7,14.8,11.7C14.9,11.7,14.9,11.7,14.8,11.7c0.1,0,0.1,0.1,0.1,0.1C14.9,11.8,14.8,11.7,14.8,11.7
					c0,0.1,0.1,0.2,0.2,0.2c0,0,0,0,0,0c0.3,0.2,0.7,0.3,1,0.5c-0.7,0.3-1.9,0.3-2.5,0C14,12.1,14.5,11.9,14.8,11.7"/>
				<path fill="#A7A8AA" d="M14.8,11.7L14.8,11.7L14.8,11.7L14.8,11.7L14.8,11.7L14.8,11.7L14.8,11.7L14.8,11.7L14.8,11.7L14.8,11.7
					L14.8,11.7L14.8,11.7L14.8,11.7L14.8,11.7L14.8,11.7L14.8,11.7L14.8,11.7L14.8,11.7L14.8,11.7L14.8,11.7
					C14.8,11.7,14.9,11.7,14.8,11.7C14.9,11.7,14.9,11.7,14.8,11.7C14.9,11.7,14.9,11.7,14.8,11.7c-0.1,0.1-0.1,0.1-0.2,0.2
					c0,0-0.1,0.1,0.1,0.2c0.2,0.1,0.5,0.1,0.8,0c0.2,0.1,0.4,0.2,0.6,0.3c-0.7,0.3-1.9,0.3-2.5,0C14,12.1,14.5,11.9,14.8,11.7"/>
				<path fill="#A2A3A6" d="M14.8,11.7L14.8,11.7C14.8,11.7,14.8,11.7,14.8,11.7L14.8,11.7L14.8,11.7L14.8,11.7L14.8,11.7L14.8,11.7
					L14.8,11.7L14.8,11.7L14.8,11.7L14.8,11.7L14.8,11.7L14.8,11.7L14.8,11.7L14.8,11.7L14.8,11.7L14.8,11.7L14.8,11.7L14.8,11.7
					L14.8,11.7C14.8,11.7,14.8,11.7,14.8,11.7C14.9,11.7,14.9,11.7,14.8,11.7C14.9,11.7,14.9,11.7,14.8,11.7
					C14.8,11.7,14.8,11.8,14.8,11.7C14.7,11.7,14.8,11.7,14.8,11.7C14.8,11.7,14.8,11.7,14.8,11.7"/>
				<path fill="#9D9FA1" d="M14.8,11.7C14.8,11.7,14.8,11.7,14.8,11.7L14.8,11.7L14.8,11.7L14.8,11.7L14.8,11.7L14.8,11.7L14.8,11.7
					L14.8,11.7L14.8,11.7L14.8,11.7L14.8,11.7L14.8,11.7L14.8,11.7L14.8,11.7L14.8,11.7L14.8,11.7C14.8,11.7,14.8,11.7,14.8,11.7
					L14.8,11.7C14.8,11.7,14.8,11.7,14.8,11.7C14.8,11.7,14.8,11.7,14.8,11.7C14.9,11.7,14.9,11.7,14.8,11.7
					C14.8,11.7,14.8,11.7,14.8,11.7C14.8,11.7,14.8,11.7,14.8,11.7C14.8,11.7,14.8,11.7,14.8,11.7"/>
				<path fill="#999A9C" d="M14.8,11.7C14.8,11.7,14.8,11.7,14.8,11.7L14.8,11.7C14.8,11.7,14.8,11.7,14.8,11.7L14.8,11.7L14.8,11.7
					L14.8,11.7L14.8,11.7L14.8,11.7L14.8,11.7L14.8,11.7L14.8,11.7L14.8,11.7L14.8,11.7L14.8,11.7C14.8,11.7,14.8,11.7,14.8,11.7
					L14.8,11.7C14.8,11.7,14.8,11.7,14.8,11.7L14.8,11.7C14.8,11.7,14.8,11.7,14.8,11.7C14.8,11.7,14.8,11.7,14.8,11.7
					C14.9,11.7,14.9,11.7,14.8,11.7C14.8,11.7,14.8,11.7,14.8,11.7C14.8,11.7,14.8,11.7,14.8,11.7C14.8,11.7,14.8,11.7,14.8,11.7"/>
				<path fill="#959698" d="M14.8,11.7C14.8,11.7,14.8,11.7,14.8,11.7L14.8,11.7C14.8,11.7,14.8,11.7,14.8,11.7L14.8,11.7L14.8,11.7
					L14.8,11.7L14.8,11.7L14.8,11.7L14.8,11.7L14.8,11.7L14.8,11.7L14.8,11.7L14.8,11.7L14.8,11.7C14.8,11.7,14.8,11.7,14.8,11.7
					L14.8,11.7C14.8,11.7,14.8,11.7,14.8,11.7L14.8,11.7C14.8,11.7,14.8,11.7,14.8,11.7C14.8,11.7,14.8,11.7,14.8,11.7
					C14.9,11.7,14.9,11.7,14.8,11.7C14.8,11.7,14.8,11.7,14.8,11.7C14.8,11.7,14.8,11.7,14.8,11.7C14.8,11.7,14.8,11.7,14.8,11.7"/>
				<path fill="#909193" d="M14.8,11.7C14.8,11.7,14.8,11.7,14.8,11.7L14.8,11.7C14.8,11.7,14.8,11.7,14.8,11.7L14.8,11.7
					C14.8,11.7,14.8,11.7,14.8,11.7L14.8,11.7L14.8,11.7L14.8,11.7L14.8,11.7L14.8,11.7L14.8,11.7L14.8,11.7
					C14.8,11.7,14.8,11.7,14.8,11.7L14.8,11.7C14.8,11.7,14.8,11.7,14.8,11.7L14.8,11.7C14.8,11.7,14.8,11.7,14.8,11.7L14.8,11.7
					C14.8,11.7,14.8,11.7,14.8,11.7C14.8,11.7,14.8,11.7,14.8,11.7C14.8,11.7,14.8,11.7,14.8,11.7C14.8,11.7,14.8,11.7,14.8,11.7
					C14.8,11.7,14.8,11.7,14.8,11.7C14.8,11.7,14.8,11.7,14.8,11.7"/>
				<path fill="#8B8D8F" d="M14.8,11.7C14.8,11.7,14.8,11.7,14.8,11.7L14.8,11.7C14.8,11.7,14.8,11.7,14.8,11.7L14.8,11.7
					C14.8,11.7,14.8,11.7,14.8,11.7L14.8,11.7L14.8,11.7L14.8,11.7L14.8,11.7L14.8,11.7L14.8,11.7L14.8,11.7
					C14.8,11.7,14.8,11.7,14.8,11.7L14.8,11.7C14.8,11.7,14.8,11.7,14.8,11.7L14.8,11.7C14.8,11.7,14.8,11.7,14.8,11.7L14.8,11.7
					C14.8,11.7,14.8,11.7,14.8,11.7C14.8,11.7,14.8,11.7,14.8,11.7C14.8,11.7,14.8,11.7,14.8,11.7C14.8,11.7,14.8,11.7,14.8,11.7
					C14.8,11.7,14.8,11.7,14.8,11.7"/>
				<path fill="#87888A" d="M14.8,11.7L14.8,11.7C14.8,11.7,14.8,11.7,14.8,11.7L14.8,11.7C14.8,11.7,14.8,11.7,14.8,11.7L14.8,11.7
					C14.8,11.7,14.8,11.7,14.8,11.7L14.8,11.7L14.8,11.7L14.8,11.7L14.8,11.7L14.8,11.7L14.8,11.7L14.8,11.7
					C14.8,11.7,14.8,11.7,14.8,11.7L14.8,11.7C14.8,11.7,14.8,11.7,14.8,11.7L14.8,11.7C14.8,11.7,14.8,11.7,14.8,11.7L14.8,11.7
					C14.8,11.7,14.8,11.7,14.8,11.7C14.8,11.7,14.8,11.7,14.8,11.7C14.8,11.7,14.8,11.7,14.8,11.7C14.8,11.7,14.8,11.7,14.8,11.7
					C14.8,11.7,14.8,11.7,14.8,11.7"/>
				<path fill="#838485" d="M14.8,11.7C14.8,11.7,14.8,11.7,14.8,11.7L14.8,11.7C14.8,11.7,14.8,11.7,14.8,11.7L14.8,11.7
					C14.8,11.7,14.8,11.7,14.8,11.7L14.8,11.7C14.8,11.7,14.8,11.7,14.8,11.7L14.8,11.7L14.8,11.7L14.8,11.7
					C14.8,11.7,14.8,11.7,14.8,11.7L14.8,11.7C14.8,11.7,14.8,11.7,14.8,11.7L14.8,11.7C14.8,11.7,14.8,11.7,14.8,11.7L14.8,11.7
					C14.8,11.7,14.8,11.7,14.8,11.7L14.8,11.7C14.8,11.7,14.8,11.7,14.8,11.7C14.8,11.7,14.8,11.7,14.8,11.7
					C14.8,11.7,14.8,11.7,14.8,11.7C14.8,11.7,14.8,11.7,14.8,11.7C14.8,11.7,14.8,11.7,14.8,11.7"/>
				<g>
					<polyline fill="#7E7F81" points="14.8,11.7 14.8,11.7 14.8,11.7 14.8,11.7 					"/>
					<path fill="#7E7F81" d="M14.8,11.7C14.8,11.7,14.8,11.7,14.8,11.7L14.8,11.7C14.8,11.7,14.8,11.7,14.8,11.7L14.8,11.7
						C14.8,11.7,14.8,11.7,14.8,11.7L14.8,11.7C14.8,11.7,14.8,11.7,14.8,11.7L14.8,11.7L14.8,11.7L14.8,11.7
						C14.8,11.7,14.8,11.7,14.8,11.7L14.8,11.7L14.8,11.7L14.8,11.7C14.8,11.7,14.8,11.7,14.8,11.7C14.8,11.7,14.8,11.7,14.8,11.7"
						/>
				</g>
				<g>
					<polyline fill="#7A7B7C" points="14.8,11.7 14.8,11.7 14.8,11.7 14.8,11.7 					"/>
					<polyline fill="#7A7B7C" points="14.8,11.7 14.8,11.7 14.8,11.7 14.8,11.7 					"/>
				</g>
			</g>
		</g>
		<g enable-background="new    ">
			<defs>
				<path id="SVGID_3_" enable-background="new    " d="M14.8,7C14.8,7,14.8,7,14.8,7c-0.4-0.1-0.7-0.2-0.9-0.1
					c0.1,0,0.4-0.2,0.9-0.2c0.2,0,0.4,0,0.4,0c0.2,0,0.3,0.1,0.4,0.1C15.5,6.8,15.2,6.8,14.8,7C14.8,7,14.8,7,14.8,7z"/>
			</defs>
			<clipPath id="SVGID_4_">
				<use xlink:href="#SVGID_3_"  overflow="visible"/>
			</clipPath>
			<g clip-path="url(#SVGID_4_)" enable-background="new    ">
				<path fill="#9D9FA1" d="M14.8,7c-0.4-0.1-0.7-0.2-0.9-0.1c0.5-0.2,1.2-0.2,1.7,0C15.5,6.8,15.2,6.8,14.8,7C14.8,7,14.8,7,14.8,7
					"/>
				<path fill="#9D9FA1" d="M15.1,6.9c-0.1,0-0.1,0-0.3,0.1l0,0l0,0l0,0l0,0l0,0l0,0l0,0l0,0l0,0l0,0l0,0l0,0l0,0l0,0l0,0l0,0l0,0
					l0,0c-0.4-0.1-0.7-0.2-0.9-0.1c0,0,0.1,0,0.1,0c0,0,0.1,0,0.1,0l0.1,0c0,0,0.1,0,0.1,0l0.1,0c0,0,0.1,0,0.1,0l0.1,0
					c0,0,0.1,0,0.1,0l0.1,0c0,0,0.1,0,0.1,0l0.1,0c0,0,0.1,0,0.1,0l0.1,0c0,0,0.1,0,0.1,0l0.1,0c0,0,0.1,0,0.1,0l0.1,0
					c0,0,0.1,0,0.1,0l0.1,0c0,0,0.1,0,0.1,0C15.6,6.8,15.4,6.8,15.1,6.9"/>
				<path fill="#999A9C" d="M15.4,6.8c-0.6,0-0.6,0.1-0.6,0.1c0,0,0,0,0,0c0,0,0,0,0,0l0,0l0,0l0,0l0,0l0,0l0,0l0,0l0,0l0,0l0,0l0,0
					l0,0l0,0l0,0l0,0l0,0l0,0l0,0c-0.4-0.1-0.7-0.2-0.9-0.1c0,0,0.1,0,0.1,0c0,0,0.1,0,0.1,0l0.1,0c0,0,0.1,0,0.1,0l0.1,0
					c0,0,0.1,0,0.1,0l0.1,0c0,0,0.1,0,0.1,0l0.1,0c0,0,0.1,0,0.1,0l0.1,0c0,0,0.1,0,0.1,0l0.1,0c0,0,0.1,0,0.1,0l0.1,0
					c0,0,0.1,0,0.1,0L15.4,6.8C15.4,6.8,15.5,6.8,15.4,6.8l0.1,0c0,0,0.1,0,0.1,0C15.6,6.8,15.5,6.8,15.4,6.8"/>
				<path fill="#959698" d="M15.5,6.8c-0.4-0.1-0.4-0.1-0.5,0c-0.2,0-0.3,0-0.3,0.1c0,0,0,0-0.1,0c-0.3-0.1-0.6-0.1-0.7-0.1
					c0,0,0.1,0,0.1,0c0,0,0.1,0,0.1,0l0.1,0c0,0,0.1,0,0.1,0l0.1,0c0,0,0.1,0,0.1,0l0.1,0c0,0,0.1,0,0.1,0l0.1,0c0,0,0.1,0,0.1,0
					l0.1,0c0,0,0.1,0,0.1,0l0.1,0c0,0,0.1,0,0.1,0l0.1,0c0,0,0.1,0,0.1,0l0.1,0C15.4,6.8,15.5,6.8,15.5,6.8L15.5,6.8
					c0,0,0.1,0,0.1,0C15.6,6.8,15.6,6.8,15.5,6.8"/>
				<path fill="#959698" d="M14.8,7C14.8,7,14.8,7,14.8,7L14.8,7C14.8,7,14.8,7,14.8,7L14.8,7L14.8,7L14.8,7L14.8,7L14.8,7
					C14.8,7,14.8,7,14.8,7L14.8,7C14.8,7,14.8,7,14.8,7L14.8,7C14.8,7,14.8,7,14.8,7L14.8,7C14.8,7,14.8,7,14.8,7
					C14.8,7,14.8,7,14.8,7C14.8,7,14.8,7,14.8,7C14.8,7,14.8,7,14.8,7C14.8,6.9,14.8,6.9,14.8,7C14.8,7,14.8,7,14.8,7L14.8,7L14.8,7
					"/>
				<polyline fill="#909193" points="14.8,7 14.8,7 14.8,7 14.8,7 14.8,7 14.8,7 14.8,7 14.8,7 14.8,7 14.8,7 14.8,7 14.8,7 14.8,7 
									"/>
				<path fill="#909193" d="M15.6,6.8c-0.5-0.1-0.7-0.1-1.2,0c-0.2,0-0.4-0.1-0.5,0c0,0,0.1,0,0.1,0c0,0,0.1,0,0.1,0l0.1,0
					c0,0,0.1,0,0.1,0l0.1,0c0,0,0.1,0,0.1,0l0.1,0c0,0,0.1,0,0.1,0l0.1,0c0,0,0.1,0,0.1,0l0.1,0c0,0,0.1,0,0.1,0l0.1,0
					c0,0,0.1,0,0.1,0l0.1,0c0,0,0.1,0,0.1,0l0.1,0c0,0,0.1,0,0.1,0L15.6,6.8C15.6,6.8,15.6,6.8,15.6,6.8C15.6,6.8,15.6,6.8,15.6,6.8
					"/>
				<path fill="#8B8D8F" d="M15.6,6.8c-0.3-0.1-0.8-0.2-1.4,0c-0.1,0-0.2,0-0.3,0c0,0,0.1,0,0.1,0c0,0,0.1,0,0.1,0l0.1,0
					c0,0,0.1,0,0.1,0l0.1,0c0,0,0.1,0,0.1,0l0.1,0c0,0,0.1,0,0.1,0l0.1,0c0,0,0.1,0,0.1,0l0.1,0c0,0,0.1,0,0.1,0l0.1,0
					c0,0,0.1,0,0.1,0l0.1,0c0,0,0.1,0,0.1,0l0.1,0c0,0,0.1,0,0.1,0L15.6,6.8C15.6,6.8,15.6,6.8,15.6,6.8C15.6,6.8,15.6,6.8,15.6,6.8
					"/>
				<path fill="#87888A" d="M15.6,6.8c-0.5-0.1-1-0.1-1.4,0c-0.1,0-0.2,0-0.2,0c0,0,0.1,0,0.1,0c0,0,0.1,0,0.1,0l0.1,0
					c0,0,0.1,0,0.1,0l0.1,0c0,0,0.1,0,0.1,0l0.1,0c0,0,0.1,0,0.1,0l0.1,0c0,0,0.1,0,0.1,0l0.1,0c0,0,0.1,0,0.1,0l0.1,0
					c0,0,0.1,0,0.1,0l0.1,0c0,0,0.1,0,0.1,0l0.1,0C15.4,6.8,15.5,6.8,15.6,6.8L15.6,6.8L15.6,6.8L15.6,6.8"/>
				<path fill="#838485" d="M15.2,6.7c-0.4-0.1-0.8,0-1.2,0.1c-0.1,0-0.1,0-0.1,0c0,0,0.1,0,0.1,0c0,0,0.1,0,0.1,0l0.1,0
					c0,0,0.1,0,0.1,0l0.1,0c0,0,0.1,0,0.1,0l0.1,0c0,0,0.1,0,0.1,0l0.1,0c0,0,0.1,0,0.1,0l0.1,0c0,0,0.1,0,0.1,0l0.1,0
					C15.1,6.7,15.1,6.7,15.2,6.7L15.2,6.7L15.2,6.7L15.2,6.7"/>
				<path fill="#7E7F81" d="M14.9,6.7c-0.4,0-0.7,0.1-0.9,0.1c0,0-0.1,0-0.1,0c0,0,0.1,0,0.1,0c0,0,0.1,0,0.1,0l0.1,0
					c0,0,0.1,0,0.1,0l0.1,0c0,0,0.1,0,0.1,0l0.1,0c0,0,0.1,0,0.1,0l0.1,0c0,0,0.1,0,0.1,0L14.9,6.7L14.9,6.7L14.9,6.7"/>
				<path fill="#7A7B7C" d="M14.5,6.7c-0.2,0-0.3,0.1-0.5,0.1c0,0,0,0,0,0c0,0,0.1,0,0.1,0c0,0,0.1,0,0.1,0l0.1,0c0,0,0.1,0,0.1,0
					l0.1,0C14.4,6.7,14.4,6.7,14.5,6.7C14.5,6.7,14.5,6.7,14.5,6.7C14.5,6.7,14.5,6.7,14.5,6.7"/>
				<path fill="#757678" d="M14.1,6.8c0,0-0.1,0-0.1,0.1c0,0,0,0,0,0C14,6.8,14,6.8,14.1,6.8L14.1,6.8L14.1,6.8"/>
			</g>
		</g>
		<g enable-background="new    ">
			<defs>
				<path id="SVGID_5_" enable-background="new    " d="M25.1,15.2c0,0.1,0,0.3-0.4,0.5c0,0,0,0,0-0.1C25,15.5,25.1,15.3,25.1,15.2z
					"/>
			</defs>
			<clipPath id="SVGID_6_">
				<use xlink:href="#SVGID_5_"  overflow="visible"/>
			</clipPath>
			<g clip-path="url(#SVGID_6_)" enable-background="new    ">
				<path fill="#ABADAF" d="M25.1,15.2c0,0.1,0,0.3-0.4,0.5c0,0,0,0,0-0.1C25,15.5,25.1,15.3,25.1,15.2"/>
				<path fill="#ABADAF" d="M24.7,15.6C24.7,15.6,24.7,15.6,24.7,15.6c0.3-0.1,0.4-0.3,0.4-0.4c0,0,0,0,0,0c0,0,0,0,0,0.1l0,0
					c0,0,0,0,0,0.1l0,0l0,0l0,0c0,0,0,0-0.1,0l-0.1,0C24.8,15.6,24.8,15.6,24.7,15.6L24.7,15.6L24.7,15.6
					C24.7,15.6,24.7,15.6,24.7,15.6"/>
				<path fill="#A7A8AA" d="M24.7,15.6c0,0,0.1,0,0.1-0.1c0.2-0.1,0.2-0.2,0.2-0.3c0,0,0,0,0,0c0,0,0,0,0,0.1l0,0c0,0,0,0,0,0.1l0,0
					l0,0l0,0c0,0,0,0-0.1,0l-0.1,0C24.8,15.6,24.8,15.6,24.7,15.6L24.7,15.6L24.7,15.6C24.7,15.6,24.7,15.6,24.7,15.6"/>
				<path fill="#A2A3A6" d="M24.7,15.6c0,0,0.1-0.1,0.2-0.1c0.1-0.1,0.2-0.2,0.2-0.3c0,0,0,0,0,0c0,0,0,0,0,0.1l0,0c0,0,0,0,0,0.1
					l0,0l0,0l0,0c0,0,0,0-0.1,0l-0.1,0C24.8,15.6,24.8,15.6,24.7,15.6L24.7,15.6L24.7,15.6C24.7,15.6,24.7,15.6,24.7,15.6"/>
				<path fill="#9D9FA1" d="M24.7,15.6c0.1,0,0.2-0.1,0.3-0.2c0.1-0.1,0.1-0.2,0.1-0.2c0,0,0,0,0,0c0,0,0,0,0,0.1l0,0c0,0,0,0,0,0.1
					l0,0l0,0l0,0c0,0,0,0-0.1,0l-0.1,0C24.8,15.6,24.8,15.6,24.7,15.6L24.7,15.6L24.7,15.6C24.7,15.6,24.7,15.6,24.7,15.6"/>
				<path fill="#999A9C" d="M24.7,15.6c0.1,0,0.2-0.1,0.3-0.2c0.1-0.1,0.1-0.1,0.1-0.2c0,0,0,0,0,0c0,0,0,0,0,0.1l0,0c0,0,0,0,0,0.1
					l0,0l0,0l0,0c0,0,0,0-0.1,0l-0.1,0C24.8,15.6,24.8,15.6,24.7,15.6L24.7,15.6L24.7,15.6C24.7,15.6,24.7,15.6,24.7,15.6"/>
				<path fill="#959698" d="M24.7,15.6c0.2-0.1,0.3-0.1,0.3-0.2c0-0.1,0.1-0.1,0.1-0.2c0,0,0,0,0,0c0,0,0,0,0,0.1l0,0c0,0,0,0,0,0.1
					l0,0l0,0l0,0c0,0,0,0-0.1,0l-0.1,0C24.8,15.6,24.8,15.6,24.7,15.6L24.7,15.6L24.7,15.6C24.7,15.6,24.7,15.6,24.7,15.6"/>
				<path fill="#909193" d="M24.7,15.6c0.1-0.1,0.3-0.1,0.3-0.3c0,0,0-0.1,0-0.1c0,0,0,0,0,0c0,0,0,0,0,0.1l0,0c0,0,0,0,0,0.1l0,0
					l0,0l0,0c0,0,0,0-0.1,0l-0.1,0C24.8,15.6,24.8,15.6,24.7,15.6L24.7,15.6L24.7,15.6C24.7,15.6,24.7,15.6,24.7,15.6"/>
				<path fill="#8B8D8F" d="M24.7,15.6L24.7,15.6c0.2-0.1,0.3-0.2,0.4-0.3c0,0,0-0.1,0-0.1c0,0,0,0,0,0c0,0,0,0,0,0.1l0,0
					c0,0,0,0,0,0.1l0,0l0,0l0,0c0,0,0,0-0.1,0l-0.1,0C24.8,15.6,24.8,15.6,24.7,15.6L24.7,15.6L24.7,15.6
					C24.7,15.6,24.7,15.6,24.7,15.6"/>
				<path fill="#87888A" d="M24.7,15.6c0.2-0.1,0.4-0.2,0.4-0.4c0,0,0,0,0,0c0,0,0,0,0,0c0,0,0,0,0,0.1l0,0c0,0,0,0,0,0.1l0,0l0,0
					l0,0c0,0,0,0-0.1,0l-0.1,0C24.8,15.6,24.8,15.6,24.7,15.6L24.7,15.6L24.7,15.6C24.7,15.6,24.7,15.6,24.7,15.6"/>
				<path fill="#838485" d="M24.7,15.6c0.2-0.1,0.4-0.2,0.4-0.4c0,0,0,0,0,0c0,0,0,0,0,0c0,0,0,0,0,0.1l0,0c0,0,0,0,0,0.1l0,0l0,0
					l0,0c0,0,0,0-0.1,0l-0.1,0C24.8,15.6,24.8,15.6,24.7,15.6L24.7,15.6L24.7,15.6C24.7,15.6,24.7,15.6,24.7,15.6"/>
				<path fill="#7E7F81" d="M24.7,15.6L24.7,15.6c0.2-0.1,0.4-0.2,0.4-0.4l0,0l0,0l0,0c0,0,0,0,0,0.1l0,0l0,0l0,0c0,0,0,0-0.1,0
					l-0.1,0C24.8,15.6,24.8,15.6,24.7,15.6L24.7,15.6L24.7,15.6C24.7,15.6,24.7,15.6,24.7,15.6"/>
				<path fill="#7A7B7C" d="M24.7,15.6c0.2-0.1,0.3-0.2,0.4-0.3l0,0l0,0l0,0l0,0l0,0c0,0,0,0-0.1,0l-0.1,0
					C24.8,15.6,24.8,15.6,24.7,15.6L24.7,15.6L24.7,15.6C24.7,15.6,24.7,15.6,24.7,15.6"/>
				<path fill="#757678" d="M24.7,15.6c0.2-0.1,0.3-0.2,0.3-0.3c0,0,0,0.1-0.1,0.1l0,0l0,0c0,0,0,0-0.1,0l-0.1,0
					C24.8,15.6,24.8,15.6,24.7,15.6L24.7,15.6L24.7,15.6C24.7,15.6,24.7,15.6,24.7,15.6"/>
			</g>
		</g>
		<g enable-background="new    ">
			<defs>
				<path id="SVGID_7_" enable-background="new    " d="M23.8,15.5C23.8,15.5,23.8,15.5,23.8,15.5C23.8,15.5,23.8,15.5,23.8,15.5
					c-0.4,0.2-0.8,0.4-1.3,0.6c-0.7-0.3-0.7-0.8,0-1.1C23,15.2,23.4,15.4,23.8,15.5C23.8,15.5,23.8,15.5,23.8,15.5
					C23.8,15.5,23.8,15.5,23.8,15.5z"/>
			</defs>
			<clipPath id="SVGID_8_">
				<use xlink:href="#SVGID_7_"  overflow="visible"/>
			</clipPath>
			<g clip-path="url(#SVGID_8_)" enable-background="new    ">
				<path fill="#ABADAF" d="M23.8,15.5c-0.4,0.2-0.8,0.4-1.3,0.6c-0.7-0.3-0.7-0.8,0-1.1C23,15.2,23.4,15.4,23.8,15.5
					C23.8,15.5,23.8,15.5,23.8,15.5"/>
				<path fill="#ABADAF" d="M23.8,15.5L23.8,15.5L23.8,15.5L23.8,15.5L23.8,15.5L23.8,15.5L23.8,15.5L23.8,15.5L23.8,15.5L23.8,15.5
					L23.8,15.5L23.8,15.5L23.8,15.5L23.8,15.5L23.8,15.5L23.8,15.5L23.8,15.5L23.8,15.5L23.8,15.5L23.8,15.5
					c-0.4,0.2-0.8,0.4-1.3,0.6c-0.7-0.3-0.7-0.8,0-1.1C23,15.2,23.4,15.4,23.8,15.5"/>
				<path fill="#A7A8AA" d="M23.8,15.5L23.8,15.5L23.8,15.5L23.8,15.5L23.8,15.5L23.8,15.5L23.8,15.5L23.8,15.5L23.8,15.5L23.8,15.5
					L23.8,15.5L23.8,15.5L23.8,15.5L23.8,15.5L23.8,15.5L23.8,15.5L23.8,15.5L23.8,15.5L23.8,15.5L23.8,15.5
					c-0.4,0.2-0.8,0.4-1.3,0.6c-0.7-0.3-0.7-0.8,0-1.1C23,15.2,23.4,15.4,23.8,15.5"/>
				<path fill="#A2A3A6" d="M23.8,15.5L23.8,15.5L23.8,15.5L23.8,15.5L23.8,15.5L23.8,15.5L23.8,15.5L23.8,15.5L23.8,15.5L23.8,15.5
					L23.8,15.5L23.8,15.5L23.8,15.5L23.8,15.5L23.8,15.5L23.8,15.5L23.8,15.5L23.8,15.5L23.8,15.5L23.8,15.5
					C23.8,15.5,23.8,15.5,23.8,15.5C23.8,15.5,23.8,15.5,23.8,15.5c-0.1,0-0.9,0.4-1.3,0.3c-0.4,0-0.4-0.3-0.4-0.4
					c0.1-0.2,0.4-0.3,0.5-0.4C23,15.3,23.5,15.4,23.8,15.5"/>
				<path fill="#9D9FA1" d="M23.8,15.5L23.8,15.5L23.8,15.5L23.8,15.5L23.8,15.5L23.8,15.5L23.8,15.5L23.8,15.5L23.8,15.5L23.8,15.5
					L23.8,15.5L23.8,15.5L23.8,15.5L23.8,15.5L23.8,15.5L23.8,15.5L23.8,15.5L23.8,15.5L23.8,15.5L23.8,15.5L23.8,15.5
					C23.8,15.5,23.8,15.5,23.8,15.5C23.8,15.5,23.8,15.5,23.8,15.5C23.7,15.5,23.7,15.5,23.8,15.5C23.7,15.5,23.7,15.5,23.8,15.5
					c-0.1,0-0.1,0-0.2,0c0,0,0,0,0,0c-0.2,0-0.3,0-0.3,0c-0.2,0-0.2-0.1-0.2-0.2c0,0,0-0.1,0.1-0.1C23.4,15.4,23.6,15.5,23.8,15.5"
					/>
				<path fill="#999A9C" d="M23.8,15.5L23.8,15.5L23.8,15.5L23.8,15.5L23.8,15.5L23.8,15.5C23.8,15.5,23.8,15.5,23.8,15.5L23.8,15.5
					L23.8,15.5L23.8,15.5L23.8,15.5L23.8,15.5L23.8,15.5L23.8,15.5L23.8,15.5L23.8,15.5L23.8,15.5L23.8,15.5L23.8,15.5L23.8,15.5
					L23.8,15.5C23.8,15.5,23.8,15.5,23.8,15.5C23.8,15.5,23.8,15.5,23.8,15.5c-0.1,0-0.1,0-0.1,0c0,0,0,0,0,0c0,0,0,0,0,0
					c0,0,0,0,0,0C23.7,15.5,23.7,15.5,23.8,15.5"/>
				<path fill="#959698" d="M23.8,15.5C23.8,15.5,23.8,15.5,23.8,15.5L23.8,15.5C23.8,15.5,23.8,15.5,23.8,15.5L23.8,15.5
					C23.8,15.5,23.8,15.5,23.8,15.5L23.8,15.5C23.8,15.5,23.8,15.5,23.8,15.5L23.8,15.5L23.8,15.5L23.8,15.5L23.8,15.5L23.8,15.5
					L23.8,15.5L23.8,15.5C23.8,15.5,23.8,15.5,23.8,15.5L23.8,15.5C23.8,15.5,23.8,15.5,23.8,15.5L23.8,15.5L23.8,15.5
					C23.8,15.5,23.8,15.5,23.8,15.5C23.8,15.5,23.8,15.5,23.8,15.5C23.7,15.5,23.7,15.5,23.8,15.5C23.7,15.5,23.7,15.5,23.8,15.5
					C23.8,15.5,23.8,15.5,23.8,15.5"/>
				<path fill="#909193" d="M23.8,15.5C23.8,15.5,23.8,15.5,23.8,15.5L23.8,15.5C23.8,15.5,23.8,15.5,23.8,15.5L23.8,15.5
					C23.8,15.5,23.8,15.5,23.8,15.5L23.8,15.5C23.8,15.5,23.8,15.5,23.8,15.5L23.8,15.5L23.8,15.5L23.8,15.5L23.8,15.5L23.8,15.5
					C23.8,15.5,23.8,15.5,23.8,15.5L23.8,15.5C23.8,15.5,23.8,15.5,23.8,15.5L23.8,15.5C23.8,15.5,23.8,15.5,23.8,15.5L23.8,15.5
					C23.8,15.5,23.8,15.5,23.8,15.5C23.8,15.5,23.8,15.5,23.8,15.5C23.8,15.5,23.8,15.5,23.8,15.5C23.7,15.5,23.7,15.5,23.8,15.5
					C23.8,15.5,23.8,15.5,23.8,15.5C23.8,15.5,23.8,15.5,23.8,15.5"/>
				<path fill="#8B8D8F" d="M23.8,15.5C23.8,15.5,23.8,15.5,23.8,15.5L23.8,15.5C23.8,15.5,23.8,15.5,23.8,15.5L23.8,15.5
					C23.8,15.5,23.8,15.5,23.8,15.5L23.8,15.5C23.8,15.5,23.8,15.5,23.8,15.5L23.8,15.5L23.8,15.5L23.8,15.5L23.8,15.5L23.8,15.5
					C23.8,15.5,23.8,15.5,23.8,15.5L23.8,15.5C23.8,15.5,23.8,15.5,23.8,15.5L23.8,15.5C23.8,15.5,23.8,15.5,23.8,15.5L23.8,15.5
					C23.8,15.5,23.8,15.5,23.8,15.5C23.8,15.5,23.8,15.5,23.8,15.5C23.8,15.5,23.8,15.5,23.8,15.5C23.8,15.5,23.7,15.5,23.8,15.5
					C23.8,15.5,23.8,15.5,23.8,15.5C23.8,15.5,23.8,15.5,23.8,15.5"/>
				<path fill="#87888A" d="M23.8,15.5C23.8,15.5,23.8,15.5,23.8,15.5L23.8,15.5C23.8,15.5,23.8,15.5,23.8,15.5L23.8,15.5
					C23.8,15.5,23.8,15.5,23.8,15.5L23.8,15.5C23.8,15.5,23.8,15.5,23.8,15.5L23.8,15.5C23.8,15.5,23.8,15.5,23.8,15.5L23.8,15.5
					L23.8,15.5L23.8,15.5C23.8,15.5,23.8,15.5,23.8,15.5L23.8,15.5C23.8,15.5,23.8,15.5,23.8,15.5L23.8,15.5
					C23.8,15.5,23.8,15.5,23.8,15.5L23.8,15.5C23.8,15.5,23.8,15.5,23.8,15.5C23.8,15.5,23.8,15.5,23.8,15.5
					C23.8,15.5,23.8,15.5,23.8,15.5C23.8,15.5,23.8,15.5,23.8,15.5C23.8,15.5,23.8,15.5,23.8,15.5C23.8,15.5,23.8,15.5,23.8,15.5"/>
				<path fill="#838485" d="M23.8,15.5L23.8,15.5C23.8,15.5,23.8,15.5,23.8,15.5L23.8,15.5C23.8,15.5,23.8,15.5,23.8,15.5L23.8,15.5
					C23.8,15.5,23.8,15.5,23.8,15.5L23.8,15.5C23.8,15.5,23.8,15.5,23.8,15.5L23.8,15.5C23.8,15.5,23.8,15.5,23.8,15.5L23.8,15.5
					L23.8,15.5L23.8,15.5C23.8,15.5,23.8,15.5,23.8,15.5L23.8,15.5C23.8,15.5,23.8,15.5,23.8,15.5L23.8,15.5
					C23.8,15.5,23.8,15.5,23.8,15.5L23.8,15.5C23.8,15.5,23.8,15.5,23.8,15.5C23.8,15.5,23.8,15.5,23.8,15.5
					C23.8,15.5,23.8,15.5,23.8,15.5C23.8,15.5,23.8,15.5,23.8,15.5C23.8,15.5,23.8,15.5,23.8,15.5C23.8,15.5,23.8,15.5,23.8,15.5
					C23.8,15.5,23.8,15.5,23.8,15.5"/>
				<polyline fill="#7E7F81" points="23.8,15.5 23.8,15.5 23.8,15.5 23.8,15.5 23.8,15.5 23.8,15.5 23.8,15.5 23.8,15.5 23.8,15.5 
					23.8,15.5 23.8,15.5 23.8,15.5 23.8,15.5 23.8,15.5 23.8,15.5 23.8,15.5 23.8,15.5 23.8,15.5 23.8,15.5 23.8,15.5 23.8,15.5 
					23.8,15.5 23.8,15.5 23.8,15.5 23.8,15.5 23.8,15.5 23.8,15.5 				"/>
				<g>
					<polyline fill="#7A7B7C" points="23.8,15.5 23.8,15.5 23.8,15.5 23.8,15.5 					"/>
					<polyline fill="#7A7B7C" points="23.8,15.5 23.8,15.5 23.8,15.5 23.8,15.5 					"/>
				</g>
			</g>
		</g>
		<g enable-background="new    ">
			<defs>
				<path id="SVGID_9_" enable-background="new    " d="M25.1,11.1l0,4.1c0,0.1-0.1,0.3-0.4,0.4l0-4.1
					C24.9,11.4,25.1,11.2,25.1,11.1z"/>
			</defs>
			<clipPath id="SVGID_10_">
				<use xlink:href="#SVGID_9_"  overflow="visible"/>
			</clipPath>
			<g clip-path="url(#SVGID_10_)" enable-background="new    ">
				<polyline fill="#838485" points="25.1,11.1 25.1,15.2 25.1,15.2 25.1,11.1 25.1,11.1 				"/>
				<path fill="#87888A" d="M25.1,11.1l0,4.1c0,0,0,0,0,0L25.1,11.1C25.1,11.1,25.1,11.1,25.1,11.1"/>
				<path fill="#8B8D8F" d="M25.1,11.1l0,4.1c0,0,0,0,0,0L25.1,11.1C25,11.2,25.1,11.2,25.1,11.1"/>
				<path fill="#909193" d="M25,11.2l0,4.1c0,0,0,0,0,0L25,11.2C25,11.2,25,11.2,25,11.2"/>
				<path fill="#959698" d="M25,11.2l0,4.1c0,0,0,0,0,0L25,11.2C25,11.3,25,11.2,25,11.2"/>
				<path fill="#999A9C" d="M25,11.3l0,4.1c0,0,0,0,0,0L25,11.3C25,11.3,25,11.3,25,11.3"/>
				<path fill="#9D9FA1" d="M25,11.3l0,4.1c0,0,0,0,0,0L25,11.3C24.9,11.3,25,11.3,25,11.3"/>
				<path fill="#A2A3A6" d="M24.9,11.3l0,4.1c0,0,0,0-0.1,0L24.9,11.3C24.9,11.4,24.9,11.4,24.9,11.3"/>
				<path fill="#A7A8AA" d="M24.9,11.4l0,4.1c0,0,0,0-0.1,0L24.9,11.4C24.8,11.4,24.9,11.4,24.9,11.4"/>
				<path fill="#ABADAF" d="M24.8,11.4l0,4.1c0,0-0.1,0-0.1,0.1l0-4.1C24.8,11.5,24.8,11.4,24.8,11.4"/>
				<path fill="#B0B1B3" d="M24.7,11.5l0,4.1c0,0,0,0,0,0L24.7,11.5C24.7,11.5,24.7,11.5,24.7,11.5"/>
			</g>
		</g>
		<g enable-background="new    ">
			<defs>
				<path id="SVGID_11_" enable-background="new    " d="M0.4,12.7l1.3-0.6l1.3-0.6l1.3-0.6l1.3-0.6l1.3-0.6l1.3-0.6l1.3-0.6L11.2,8
					l1.3-0.6l1.3-0.6C14.1,6.8,15,7,16.1,7.4L2.6,13.3C1.5,12.8,0.6,12.6,0.4,12.7z"/>
			</defs>
			<clipPath id="SVGID_12_">
				<use xlink:href="#SVGID_11_"  overflow="visible"/>
			</clipPath>
			<g clip-path="url(#SVGID_12_)" enable-background="new    ">
				<path fill="#A7A8AA" d="M16.1,7.4L2.6,13.3c0,0,0,0,0,0L16.1,7.4C16,7.4,16,7.4,16.1,7.4"/>
				<path fill="#A2A3A6" d="M16,7.4L2.5,13.2c-0.2-0.1-0.4-0.2-0.6-0.2l13.5-5.8C15.6,7.2,15.8,7.3,16,7.4"/>
				<path fill="#9D9FA1" d="M15.4,7.2L1.9,13c-0.2-0.1-0.3-0.1-0.5-0.2L14.9,7C15.1,7.1,15.3,7.1,15.4,7.2"/>
				<path fill="#999A9C" d="M14.9,7L1.5,12.8c-0.1,0-0.2-0.1-0.3-0.1l0.7-0.3l0.7-0.3l0.7-0.3l0.7-0.3l0.7-0.3L5.2,11l0.7-0.3
					l0.7-0.3l0.7-0.3l0.7-0.3l0.7-0.3l0.7-0.3L9.9,9l0.7-0.3l0.7-0.3l0.7-0.3l0.7-0.3l0.7-0.3l0.7-0.3l0.7-0.3
					C14.7,6.9,14.8,7,14.9,7"/>
				<path fill="#959698" d="M14.6,6.9l-0.7,0.3l-0.7,0.3l-0.7,0.3l-0.7,0.3l-0.7,0.3l-0.7,0.3L9.9,9L9.2,9.3L8.5,9.5L7.9,9.8
					l-0.7,0.3l-0.7,0.3l-0.7,0.3L5.2,11l-0.7,0.3l-0.7,0.3l-0.7,0.3l-0.7,0.3l-0.7,0.3l-0.7,0.3c-0.1,0-0.2,0-0.2-0.1l13.5-5.8
					C14.5,6.9,14.5,6.9,14.6,6.9"/>
				<path fill="#909193" d="M14.4,6.9L0.9,12.7c-0.1,0-0.1,0-0.1,0l13.5-5.8C14.3,6.8,14.3,6.9,14.4,6.9"/>
				<path fill="#8B8D8F" d="M14.2,6.8L0.7,12.7c0,0-0.1,0-0.1,0l0.7-0.3L2,12.1l0.7-0.3l0.7-0.3L4,11.2l0.7-0.3l0.7-0.3L6,10.3
					L6.7,10l0.7-0.3l0.7-0.3l0.7-0.3l0.7-0.3l0.7-0.3l0.7-0.3L11.4,8l0.7-0.3l0.7-0.3l0.7-0.3l0.7-0.3C14.2,6.8,14.2,6.8,14.2,6.8"
					/>
				<path fill="#87888A" d="M14.1,6.8l-0.7,0.3l-0.7,0.3l-0.7,0.3L11.4,8l-0.7,0.3l-0.7,0.3L9.4,8.9L8.7,9.2L8.1,9.5L7.4,9.7L6.7,10
					L6,10.3l-0.7,0.3l-0.7,0.3L4,11.2l-0.7,0.3l-0.7,0.3L2,12.1l-0.7,0.3l-0.7,0.3c0,0,0,0-0.1,0l0.7-0.3l0.7-0.3l0.7-0.3l0.7-0.3
					l0.7-0.3l0.7-0.3l0.7-0.3L6,10.3L6.6,10l0.7-0.3L8,9.5l0.7-0.3l0.7-0.3L10,8.6l0.7-0.3L11.4,8L12,7.7l0.7-0.3l0.7-0.3L14.1,6.8
					C14.1,6.8,14.1,6.8,14.1,6.8"/>
				<path fill="#838485" d="M14.1,6.8l-0.7,0.3l-0.7,0.3L12,7.7L11.4,8l-0.7,0.3L10,8.6L9.3,8.9L8.7,9.2L8,9.5L7.3,9.7L6.6,10
					L6,10.3l-0.7,0.3l-0.7,0.3l-0.7,0.3l-0.7,0.3l-0.7,0.3l-0.7,0.3l-0.7,0.3l-0.7,0.3c0,0,0,0,0,0L14.1,6.8C14,6.8,14,6.8,14.1,6.8
					"/>
				<path fill="#7E7F81" d="M14,6.8L0.5,12.7c0,0,0,0,0,0l0.7-0.3l0.7-0.3l0.7-0.3l0.7-0.3l0.7-0.3l0.7-0.3l0.7-0.3l0.7-0.3L6.5,10
					l0.7-0.3l0.7-0.3l0.7-0.3l0.7-0.3l0.7-0.3l0.7-0.3L11.3,8l0.7-0.3l0.7-0.3l0.7-0.3L14,6.8C14,6.8,14,6.8,14,6.8"/>
				<path fill="#7A7B7C" d="M14,6.8l-0.7,0.3l-0.7,0.3l-0.7,0.3L11.3,8l-0.7,0.3L9.9,8.6L9.2,8.9L8.6,9.2L7.9,9.5L7.2,9.7L6.5,10
					l-0.7,0.3l-0.7,0.3l-0.7,0.3l-0.7,0.3l-0.7,0.3l-0.7,0.3l-0.7,0.3l-0.7,0.3l-0.7,0.3c0,0,0,0,0,0L14,6.8C14,6.8,14,6.8,14,6.8"
					/>
				<polyline fill="#757678" points="13.9,6.8 0.4,12.7 0.4,12.7 1.8,12.1 3.1,11.5 4.5,10.9 5.8,10.3 7.2,9.8 8.5,9.2 9.9,8.6 
					11.2,8 12.6,7.4 13.9,6.8 13.9,6.8 				"/>
			</g>
		</g>
		<g enable-background="new    ">
			<defs>
				<path id="SVGID_13_" enable-background="new    " d="M15.6,6.8l0.9,0.4l0.9,0.4L18.3,8l0.9,0.4l0.9,0.4L21,9.1l0.9,0.4l0.9,0.4
					l0.9,0.4l0.9,0.4c-0.2-0.1-1.1,0.2-2.1,0.6l-9-3.8C14.6,7,15.4,6.7,15.6,6.8z"/>
			</defs>
			<clipPath id="SVGID_14_">
				<use xlink:href="#SVGID_13_"  overflow="visible"/>
			</clipPath>
			<g clip-path="url(#SVGID_14_)" enable-background="new    ">
				<path fill="#A7A8AA" d="M22.5,11.3l-9-3.8c0.1,0,0.1,0,0.2-0.1l9,3.8C22.6,11.2,22.5,11.2,22.5,11.3"/>
				<path fill="#A2A3A6" d="M22.7,11.2l-9-3.8c0.6-0.2,1.1-0.4,1.4-0.5l9,3.8C23.7,10.8,23.2,11,22.7,11.2"/>
				<path fill="#9D9FA1" d="M24.1,10.7l-9-3.8c0.1,0,0.2-0.1,0.3-0.1l0,0L15.9,7l0.4,0.2l0.4,0.2l0.4,0.2l0.4,0.2L18.1,8l0.4,0.2
					L19,8.3l0.4,0.2l0.4,0.2l0.4,0.2l0.4,0.2l0.4,0.2l0.4,0.2l0.4,0.2l0.4,0.2l0.4,0.2l0.4,0.2l0.4,0.2l0.4,0.2
					C24.3,10.6,24.2,10.7,24.1,10.7"/>
				<path fill="#999A9C" d="M24.4,10.6L24.4,10.6L24.4,10.6L24,10.4l-0.4-0.2l-0.4-0.2l-0.4-0.2l-0.4-0.2l-0.4-0.2l-0.4-0.2
					l-0.4-0.2l-0.4-0.2l-0.4-0.2l-0.4-0.2L19,8.3l-0.4-0.2L18.1,8l-0.4-0.2l-0.4-0.2l-0.4-0.2l-0.4-0.2L15.9,7l-0.4-0.2
					c0,0,0.1,0,0.1,0L16,7l0.4,0.2l0.4,0.2l0.4,0.2l0.4,0.2L18.2,8l0.4,0.2l0.4,0.2l0.4,0.2L20,8.7l0.4,0.2l0.4,0.2l0.4,0.2l0.4,0.2
					l0.4,0.2l0.4,0.2l0.4,0.2l0.4,0.2l0.4,0.2l0.4,0.2C24.5,10.6,24.5,10.6,24.4,10.6"/>
				<path fill="#959698" d="M24.5,10.6L24.5,10.6L24.5,10.6l-0.4-0.2l-0.4-0.2l-0.4-0.2l-0.4-0.2l-0.4-0.2l-0.4-0.2l-0.4-0.2
					l-0.4-0.2l-0.4-0.2L20,8.7l-0.4-0.2l-0.4-0.2l-0.4-0.2L18.2,8l-0.4-0.2l-0.4-0.2l-0.4-0.2l-0.4-0.2L16,7l-0.4-0.2c0,0,0,0,0.1,0
					L24.5,10.6C24.6,10.6,24.5,10.6,24.5,10.6"/>
				<path fill="#909193" d="M24.6,10.6l-9-3.8c0,0,0,0,0,0L24.6,10.6C24.6,10.6,24.6,10.6,24.6,10.6"/>
				<path fill="#8B8D8F" d="M24.6,10.6l-9-3.8c0,0,0,0,0,0l0.9,0.4l0.9,0.4L18.3,8l0.9,0.4l0.9,0.4L21,9.1l0.9,0.4l0.9,0.4l0.9,0.4
					L24.6,10.6C24.6,10.6,24.6,10.6,24.6,10.6"/>
			</g>
		</g>
		<g enable-background="new    ">
			<defs>
				<path id="SVGID_15_" enable-background="new    " d="M23.8,10.8C23.8,10.8,23.8,10.8,23.8,10.8c0.4-0.1,0.7-0.2,0.9-0.1
					c0.1,0.1,0.4,0.2,0.4,0.4c0,0.1-0.1,0.3-0.4,0.4C24.7,11.4,24.3,11.1,23.8,10.8C23.8,10.8,23.8,10.8,23.8,10.8
					C23.8,10.8,23.8,10.8,23.8,10.8C23.8,10.8,23.8,10.8,23.8,10.8z"/>
			</defs>
			<clipPath id="SVGID_16_">
				<use xlink:href="#SVGID_15_"  overflow="visible"/>
			</clipPath>
			<g clip-path="url(#SVGID_16_)" enable-background="new    ">
				<path fill="#E5E6E9" d="M23.8,10.8c0.4-0.1,0.7-0.2,0.9-0.1c0.3,0.1,0.4,0.3,0.4,0.4c0,0.1-0.1,0.3-0.4,0.4
					C24.7,11.4,24.3,11.1,23.8,10.8C23.8,10.8,23.8,10.8,23.8,10.8"/>
				<path fill="#E5E6E9" d="M24.7,11.4L24.7,11.4c-0.1-0.2-0.4-0.4-0.9-0.7c0,0,0,0,0,0h0l0,0l0,0l0,0l0,0l0,0l0,0l0,0l0,0l0,0l0,0
					h0h0l0,0l0,0l0,0l0,0l0,0l0,0c0.4-0.1,0.7-0.2,0.9-0.1c0,0,0.1,0,0.1,0c0,0,0.1,0,0.1,0l0.1,0c0,0,0.1,0.1,0.1,0.1l0,0
					c0,0,0,0,0,0.1l0,0c0,0.1,0,0.1,0,0.1C25.1,11.2,24.9,11.4,24.7,11.4C24.7,11.5,24.7,11.5,24.7,11.4"/>
				<path fill="#E1E3E6" d="M24.7,11.5C24.7,11.4,24.7,11.4,24.7,11.5C24.7,11.4,24.7,11.4,24.7,11.5c-0.1-0.2-0.4-0.4-0.9-0.7
					c0,0,0,0,0,0h0l0,0l0,0l0,0l0,0l0,0l0,0l0,0l0,0l0,0l0,0h0h0l0,0l0,0l0,0l0,0l0,0l0,0c0.4-0.1,0.7-0.2,0.9-0.1c0,0,0.1,0,0.1,0
					c0,0,0.1,0,0.1,0l0.1,0c0,0,0.1,0.1,0.1,0.1l0,0c0,0,0,0,0,0.1l0,0c0,0.1,0,0.1,0,0.1C25.1,11.2,24.9,11.4,24.7,11.5
					C24.7,11.5,24.7,11.5,24.7,11.5"/>
				<path fill="#DCDEE1" d="M24.7,11.5C24.7,11.4,24.8,11.4,24.7,11.5C24.7,11.4,24.7,11.4,24.7,11.5c-0.1-0.2-0.5-0.4-0.9-0.7
					c0,0,0,0,0,0h0l0,0l0,0l0,0l0,0l0,0l0,0l0,0l0,0l0,0l0,0h0h0l0,0l0,0l0,0l0,0l0,0l0,0c0.4-0.1,0.7-0.2,0.9-0.1c0,0,0.1,0,0.1,0
					c0,0,0.1,0,0.1,0l0.1,0c0,0,0.1,0.1,0.1,0.1l0,0c0,0,0,0,0,0.1l0,0c0,0.1,0,0.1,0,0.1C25.1,11.2,24.9,11.4,24.7,11.5
					C24.7,11.5,24.7,11.5,24.7,11.5"/>
				<path fill="#D8DADD" d="M24.7,11.5C24.7,11.4,24.7,11.4,24.7,11.5c0.1-0.1,0.1-0.1,0.1-0.1C24.8,11.3,24.8,11.3,24.7,11.5
					c-0.2-0.2-0.5-0.5-0.9-0.7c0,0,0,0,0,0h0l0,0l0,0l0,0l0,0l0,0l0,0l0,0l0,0l0,0l0,0h0h0l0,0l0,0l0,0l0,0l0,0l0,0
					c0.4-0.1,0.7-0.2,0.9-0.1c0,0,0.1,0,0.1,0c0,0,0.1,0,0.1,0l0.1,0c0,0,0.1,0.1,0.1,0.1l0,0c0,0,0,0,0,0.1l0,0c0,0.1,0,0.1,0,0.1
					C25.1,11.2,24.9,11.4,24.7,11.5C24.7,11.5,24.7,11.5,24.7,11.5"/>
				<path fill="#D3D5D8" d="M24.7,11.5C24.7,11.5,24.7,11.5,24.7,11.5c0.1,0,0.2-0.1,0.2-0.1c0,0,0,0,0,0c0,0,0,0-0.2,0.1
					c-0.1-0.1-0.4-0.4-0.8-0.6c0,0,0,0,0,0h0l0,0l0,0l0,0l0,0l0,0l0,0l0,0l0,0l0,0l0,0h0h0l0,0l0,0l0,0l0,0l0,0l0,0
					c0.4-0.1,0.7-0.2,0.9-0.1c0,0,0.1,0,0.1,0c0,0,0.1,0,0.1,0l0.1,0c0,0,0.1,0.1,0.1,0.1l0,0c0,0,0,0,0,0.1l0,0c0,0.1,0,0.1,0,0.1
					C25.1,11.2,24.9,11.4,24.7,11.5C24.7,11.5,24.7,11.5,24.7,11.5"/>
				<path fill="#CFD1D4" d="M24.7,11.5C24.7,11.5,24.7,11.5,24.7,11.5c0.1-0.1,0.2-0.2,0.2-0.2c0,0,0,0,0,0c0,0-0.1,0-0.3,0.1
					c-0.1-0.1-0.4-0.3-0.8-0.6c0,0,0,0,0,0h0l0,0l0,0l0,0l0,0l0,0l0,0l0,0l0,0l0,0l0,0h0h0l0,0l0,0l0,0l0,0l0,0l0,0
					c0.4-0.1,0.7-0.2,0.9-0.1c0,0,0.1,0,0.1,0c0,0,0.1,0,0.1,0l0.1,0c0,0,0.1,0.1,0.1,0.1l0,0c0,0,0,0,0,0.1l0,0c0,0.1,0,0.1,0,0.1
					C25.1,11.2,24.9,11.4,24.7,11.5C24.7,11.5,24.7,11.5,24.7,11.5"/>
				<path fill="#CBCCCF" d="M24.7,11.5C24.7,11.5,24.7,11.5,24.7,11.5c0.2-0.1,0.3-0.2,0.3-0.2c0,0,0,0-0.4,0.1
					c-0.2-0.1-0.4-0.3-0.8-0.5c0,0,0,0,0,0h0l0,0l0,0l0,0l0,0l0,0l0,0l0,0l0,0l0,0l0,0h0h0l0,0l0,0l0,0l0,0l0,0l0,0
					c0.4-0.1,0.7-0.2,0.9-0.1c0,0,0.1,0,0.1,0c0,0,0.1,0,0.1,0l0.1,0c0,0,0.1,0.1,0.1,0.1l0,0c0,0,0,0,0,0.1l0,0c0,0.1,0,0.1,0,0.1
					C25.1,11.2,24.9,11.4,24.7,11.5C24.7,11.5,24.7,11.5,24.7,11.5"/>
				<path fill="#C6C8CA" d="M24.7,11.5C24.7,11.5,24.7,11.5,24.7,11.5c0.3-0.1,0.3-0.3,0.3-0.3c0,0,0,0-0.4,0.1
					c-0.2-0.1-0.4-0.3-0.7-0.5c0,0,0,0,0,0h0l0,0l0,0l0,0l0,0l0,0l0,0l0,0l0,0l0,0l0,0h0h0l0,0l0,0l0,0l0,0l0,0l0,0
					c0.4-0.1,0.7-0.2,0.9-0.1c0,0,0.1,0,0.1,0c0,0,0.1,0,0.1,0l0.1,0c0,0,0.1,0.1,0.1,0.1l0,0c0,0,0,0,0,0.1l0,0c0,0.1,0,0.1,0,0.1
					C25.1,11.2,24.9,11.4,24.7,11.5C24.7,11.5,24.7,11.5,24.7,11.5"/>
				<path fill="#C2C3C6" d="M24.7,11.5C24.7,11.5,24.7,11.5,24.7,11.5c0.3-0.1,0.3-0.3,0.3-0.3c0,0,0,0-0.5,0.1
					c-0.2-0.1-0.4-0.3-0.7-0.5c0,0,0,0,0,0h0l0,0l0,0l0,0l0,0l0,0l0,0l0,0l0,0l0,0l0,0h0h0l0,0l0,0l0,0l0,0l0,0l0,0
					c0.4-0.1,0.7-0.2,0.9-0.1c0,0,0.1,0,0.1,0c0,0,0.1,0,0.1,0l0.1,0c0,0,0.1,0.1,0.1,0.1l0,0c0,0,0,0,0,0.1l0,0c0,0.1,0,0.1,0,0.1
					C25.1,11.2,24.9,11.4,24.7,11.5C24.7,11.5,24.7,11.5,24.7,11.5"/>
				<path fill="#BDBFC1" d="M24.7,11.5C24.7,11.5,24.7,11.5,24.7,11.5c0.3-0.1,0.4-0.3,0.3-0.4c0,0-0.5,0.1-0.6,0.1
					c-0.2-0.1-0.4-0.3-0.6-0.4c0,0,0,0,0,0h0l0,0l0,0l0,0l0,0l0,0l0,0l0,0l0,0l0,0l0,0h0h0l0,0l0,0l0,0l0,0l0,0l0,0
					c0.4-0.1,0.7-0.2,0.9-0.1c0,0,0.1,0,0.1,0c0,0,0.1,0,0.1,0l0.1,0c0,0,0.1,0.1,0.1,0.1l0,0c0,0,0,0,0,0.1l0,0c0,0.1,0,0.1,0,0.1
					C25.1,11.2,24.9,11.4,24.7,11.5C24.7,11.5,24.7,11.5,24.7,11.5"/>
				<path fill="#B9BABD" d="M24.7,11.5C24.7,11.5,24.7,11.5,24.7,11.5c0.3-0.1,0.4-0.3,0.3-0.4c-0.1-0.1-0.6,0-0.7,0
					c-0.1-0.1-0.3-0.2-0.5-0.3c0,0,0,0,0,0h0l0,0l0,0l0,0l0,0l0,0l0,0l0,0l0,0l0,0l0,0h0h0l0,0l0,0l0,0l0,0l0,0l0,0
					c0.4-0.1,0.7-0.2,0.9-0.1c0,0,0.1,0,0.1,0c0,0,0.1,0,0.1,0l0.1,0c0,0,0.1,0.1,0.1,0.1l0,0c0,0,0,0,0,0.1l0,0c0,0.1,0,0.1,0,0.1
					C25.1,11.2,24.9,11.4,24.7,11.5C24.7,11.5,24.7,11.5,24.7,11.5"/>
				<path fill="#B4B6B8" d="M24.7,11.5C24.7,11.5,24.7,11.5,24.7,11.5c0.4-0.2,0.4-0.4,0.3-0.5c0,0-0.1-0.1-0.9,0
					c-0.1-0.1-0.2-0.1-0.4-0.2c0,0,0,0,0,0h0l0,0l0,0l0,0l0,0l0,0l0,0l0,0l0,0l0,0l0,0h0h0l0,0l0,0l0,0l0,0l0,0l0,0
					c0.4-0.1,0.7-0.2,0.9-0.1c0,0,0.1,0,0.1,0c0,0,0.1,0,0.1,0l0.1,0c0,0,0.1,0.1,0.1,0.1l0,0c0,0,0,0,0,0.1l0,0c0,0.1,0,0.1,0,0.1
					C25.1,11.2,24.9,11.4,24.7,11.5C24.7,11.5,24.7,11.5,24.7,11.5"/>
				<path fill="#B0B1B3" d="M24.7,11.5C24.7,11.5,24.7,11.5,24.7,11.5c0.1,0,0.2-0.1,0.3-0.3c0,0,0.1-0.2,0-0.3c0,0,0,0-0.6-0.1
					c-0.3,0-0.4,0-0.5-0.1c0,0-0.1,0-0.1-0.1c0,0,0,0,0,0h0l0,0l0,0l0,0l0,0l0,0l0,0l0,0l0,0l0,0l0,0h0h0l0,0l0,0l0,0l0,0l0,0l0,0
					c0.4-0.1,0.7-0.2,0.9-0.1c0,0,0.1,0,0.1,0c0,0,0.1,0,0.1,0l0.1,0c0,0,0.1,0.1,0.1,0.1l0,0c0,0,0,0,0,0.1l0,0c0,0.1,0,0.1,0,0.1
					C25.1,11.2,24.9,11.4,24.7,11.5C24.7,11.5,24.7,11.5,24.7,11.5"/>
				<path fill="#ABADAF" d="M23.8,10.8L23.8,10.8L23.8,10.8L23.8,10.8L23.8,10.8L23.8,10.8L23.8,10.8L23.8,10.8L23.8,10.8L23.8,10.8
					L23.8,10.8L23.8,10.8L23.8,10.8L23.8,10.8L23.8,10.8L23.8,10.8L23.8,10.8L23.8,10.8L23.8,10.8L23.8,10.8
					c0.4-0.1,0.7-0.2,0.9-0.1c0,0,0.1,0,0.1,0c0,0,0.1,0,0.1,0l0.1,0c0,0,0.1,0.1,0.1,0.1l0,0c0,0,0,0,0,0.1l0,0c0,0.1,0,0.1,0,0.1
					c0,0.1-0.1,0.3-0.3,0.4c0,0,0,0,0,0c0.5-0.2,0.3-0.5,0.1-0.6c-0.1,0-0.2,0-0.4,0C23.9,10.8,23.8,10.8,23.8,10.8
					C23.8,10.8,23.8,10.8,23.8,10.8"/>
				<path fill="#A7A8AA" d="M23.8,10.8L23.8,10.8L23.8,10.8L23.8,10.8L23.8,10.8L23.8,10.8L23.8,10.8L23.8,10.8L23.8,10.8L23.8,10.8
					L23.8,10.8L23.8,10.8L23.8,10.8L23.8,10.8L23.8,10.8L23.8,10.8L23.8,10.8L23.8,10.8L23.8,10.8L23.8,10.8
					c0.4-0.1,0.7-0.2,0.9-0.1c0,0,0.1,0,0.1,0c0,0,0.1,0,0.1,0l0.1,0c0,0,0.1,0.1,0.1,0.1l0,0c0,0,0,0,0,0.1l0,0c0,0.1,0,0.1,0,0.1
					c0,0.1-0.1,0.2-0.2,0.3c0,0,0,0,0,0c0.3-0.2,0.2-0.5-0.2-0.6c-0.1,0-0.3,0-0.5,0C24,10.8,23.9,10.8,23.8,10.8
					C23.8,10.8,23.8,10.8,23.8,10.8C23.8,10.8,23.8,10.8,23.8,10.8"/>
				<path fill="#A2A3A6" d="M23.8,10.8L23.8,10.8L23.8,10.8L23.8,10.8L23.8,10.8L23.8,10.8L23.8,10.8L23.8,10.8L23.8,10.8L23.8,10.8
					L23.8,10.8L23.8,10.8L23.8,10.8L23.8,10.8L23.8,10.8L23.8,10.8L23.8,10.8L23.8,10.8c0.4-0.1,0.7-0.2,0.9-0.1c0,0,0.1,0,0.1,0
					c0,0,0.1,0,0.1,0l0.1,0c0,0,0.1,0.1,0.1,0.1l0,0c0,0,0,0,0,0.1l0,0c0,0.1,0,0.1,0,0.1c0,0.1-0.1,0.2-0.2,0.3c0,0,0,0,0,0
					c0.3-0.2,0.2-0.6-0.5-0.6C24.2,10.7,24,10.8,23.8,10.8C23.8,10.8,23.8,10.8,23.8,10.8C23.8,10.8,23.8,10.8,23.8,10.8"/>
				<g>
					<path fill="#9D9FA1" d="M23.8,10.8C23.8,10.8,23.8,10.8,23.8,10.8L23.8,10.8L23.8,10.8L23.8,10.8
						C23.8,10.8,23.8,10.8,23.8,10.8L23.8,10.8C23.8,10.8,23.8,10.8,23.8,10.8L23.8,10.8C23.8,10.8,23.8,10.8,23.8,10.8
						C23.8,10.8,23.8,10.8,23.8,10.8C23.8,10.8,23.8,10.8,23.8,10.8C23.8,10.8,23.8,10.8,23.8,10.8C23.8,10.8,23.8,10.8,23.8,10.8
						C23.8,10.8,23.8,10.8,23.8,10.8"/>
					<line fill="#9D9FA1" x1="23.8" y1="10.8" x2="23.8" y2="10.8"/>
				</g>
				<path fill="#999A9C" d="M23.8,10.8C23.8,10.8,23.8,10.8,23.8,10.8L23.8,10.8C23.8,10.8,23.8,10.8,23.8,10.8L23.8,10.8L23.8,10.8
					L23.8,10.8C23.8,10.8,23.8,10.8,23.8,10.8C23.8,10.8,23.8,10.8,23.8,10.8C23.8,10.8,23.8,10.8,23.8,10.8"/>
				<polyline fill="#959698" points="23.8,10.8 23.8,10.8 23.8,10.8 23.8,10.8 23.8,10.8 				"/>
				<path fill="#9D9FA1" d="M24.9,11.3c0.3-0.3,0-0.7-0.7-0.7c-0.1,0-0.1,0-0.2,0c0.3-0.1,0.5-0.1,0.6,0c0,0,0.1,0,0.1,0
					c0,0,0.1,0,0.1,0l0.1,0c0,0,0.1,0.1,0.1,0.1l0,0c0,0,0,0,0,0.1l0,0c0,0.1,0,0.1,0,0.1C25.1,11.2,25,11.3,24.9,11.3
					C24.9,11.3,24.9,11.3,24.9,11.3"/>
				<path fill="#999A9C" d="M25,11.3c0.2-0.3-0.1-0.6-0.6-0.6c0.1,0,0.2,0,0.2,0c0,0,0.1,0,0.1,0c0,0,0.1,0,0.1,0l0.1,0
					c0,0,0.1,0.1,0.1,0.1l0,0c0,0,0,0,0,0.1l0,0c0,0.1,0,0.1,0,0.1C25.1,11.2,25,11.2,25,11.3C25,11.3,25,11.3,25,11.3"/>
				<path fill="#959698" d="M25,11.3c0.2-0.3-0.1-0.5-0.5-0.6c0,0,0.1,0,0.1,0c0,0,0.1,0,0.1,0c0,0,0.1,0,0.1,0l0.1,0
					c0,0,0.1,0.1,0.1,0.1l0,0c0,0,0,0,0,0.1l0,0c0,0.1,0,0.1,0,0.1C25.1,11.2,25,11.2,25,11.3C25,11.3,25,11.3,25,11.3"/>
				<path fill="#909193" d="M25,11.2c0.1-0.2-0.1-0.4-0.4-0.6c0,0,0,0,0,0c0,0,0.1,0,0.1,0c0,0,0.1,0,0.1,0l0.1,0
					c0,0,0.1,0.1,0.1,0.1l0,0c0,0,0,0,0,0.1l0,0c0,0.1,0,0.1,0,0.1C25.1,11.1,25,11.2,25,11.2C25,11.2,25,11.2,25,11.2"/>
				<g>
					<path fill="#8B8D8F" d="M24.8,10.7c-0.1,0-0.1-0.1-0.2-0.1c0,0,0,0,0,0c0,0,0.1,0,0.1,0C24.7,10.7,24.8,10.7,24.8,10.7
						C24.8,10.7,24.8,10.7,24.8,10.7C24.8,10.7,24.8,10.7,24.8,10.7"/>
					<path fill="#8B8D8F" d="M25,11.2c0-0.1,0-0.1,0-0.2l0,0C25.1,11,25.1,11.1,25,11.2C25.1,11.1,25.1,11.2,25,11.2
						C25,11.2,25,11.2,25,11.2"/>
				</g>
				<path fill="#87888A" d="M25.1,11.1C25.1,11.1,25.1,11.1,25.1,11.1L25.1,11.1L25.1,11.1C25.1,11.1,25.1,11.1,25.1,11.1
					C25.1,11.1,25.1,11.1,25.1,11.1"/>
				<polyline fill="#838485" points="25.1,11.1 25.1,11.1 25.1,11.1 25.1,11.1 25.1,11.1 				"/>
			</g>
		</g>
		<g enable-background="new    ">
			<defs>
				<path id="SVGID_17_" enable-background="new    " d="M0.5,17.7C0.3,17.6,0,17.5,0,17.2C0,17.4,0.2,17.5,0.5,17.7
					C0.4,17.6,0.4,17.6,0.5,17.7z"/>
			</defs>
			<clipPath id="SVGID_18_">
				<use xlink:href="#SVGID_17_"  overflow="visible"/>
			</clipPath>
			<g clip-path="url(#SVGID_18_)" enable-background="new    ">
				<path fill="#ABADAF" d="M0.5,17.7C0.3,17.6,0,17.5,0,17.2C0,17.4,0.2,17.5,0.5,17.7C0.4,17.6,0.4,17.6,0.5,17.7"/>
				<path fill="#ABADAF" d="M0.4,17.6C0.4,17.6,0.4,17.6,0.4,17.6C0.4,17.7,0.4,17.6,0.4,17.6C0.4,17.6,0.3,17.6,0.4,17.6l-0.2,0
					c0,0-0.1-0.1-0.1-0.1l0,0c0,0,0,0,0-0.1l0,0c0-0.1,0-0.1,0-0.1C0,17.4,0.2,17.5,0.4,17.6"/>
				<path fill="#A7A8AA" d="M0.4,17.6C0.4,17.6,0.4,17.6,0.4,17.6C0.4,17.7,0.4,17.6,0.4,17.6C0.4,17.6,0.3,17.6,0.4,17.6l-0.2,0
					c0,0-0.1-0.1-0.1-0.1l0,0c0,0,0,0,0-0.1l0,0c0-0.1,0-0.1,0-0.1C0,17.4,0.2,17.5,0.4,17.6"/>
				<path fill="#A2A3A6" d="M0.4,17.6C0.4,17.6,0.4,17.6,0.4,17.6C0.4,17.7,0.4,17.6,0.4,17.6C0.4,17.6,0.3,17.6,0.4,17.6l-0.2,0
					c0,0-0.1-0.1-0.1-0.1l0,0c0,0,0,0,0-0.1l0,0c0-0.1,0-0.1,0-0.1C0,17.4,0.2,17.5,0.4,17.6"/>
				<path fill="#9D9FA1" d="M0.4,17.6C0.4,17.6,0.4,17.6,0.4,17.6C0.4,17.7,0.4,17.6,0.4,17.6C0.4,17.6,0.3,17.6,0.4,17.6l-0.2,0
					c0,0-0.1-0.1-0.1-0.1l0,0c0,0,0,0,0-0.1l0,0c0-0.1,0-0.1,0-0.1C0,17.4,0.2,17.5,0.4,17.6"/>
				<path fill="#999A9C" d="M0.4,17.6C0.4,17.6,0.4,17.6,0.4,17.6C0.4,17.7,0.4,17.6,0.4,17.6C0.4,17.6,0.3,17.6,0.4,17.6l-0.2,0
					c0,0-0.1-0.1-0.1-0.1l0,0c0,0,0,0,0-0.1l0,0c0-0.1,0-0.1,0-0.1C0,17.4,0.2,17.5,0.4,17.6"/>
				<path fill="#959698" d="M0.4,17.6C0.4,17.6,0.4,17.6,0.4,17.6C0.4,17.7,0.4,17.6,0.4,17.6C0.4,17.6,0.3,17.6,0.4,17.6l-0.2,0
					c0,0-0.1-0.1-0.1-0.1l0,0c0,0,0,0,0-0.1l0,0c0-0.1,0-0.1,0-0.1C0,17.4,0.2,17.5,0.4,17.6"/>
				<path fill="#909193" d="M0.4,17.6C0.4,17.6,0.4,17.6,0.4,17.6C0.4,17.7,0.4,17.6,0.4,17.6C0.4,17.6,0.3,17.6,0.4,17.6l-0.2,0
					c0,0-0.1-0.1-0.1-0.1l0,0c0,0,0,0,0-0.1l0,0c0-0.1,0-0.1,0-0.1C0,17.4,0.2,17.5,0.4,17.6"/>
				<path fill="#8B8D8F" d="M0.4,17.6C0.4,17.6,0.4,17.6,0.4,17.6C0.4,17.7,0.4,17.6,0.4,17.6C0.4,17.6,0.3,17.6,0.4,17.6l-0.2,0
					c0,0-0.1-0.1-0.1-0.1l0,0c0,0,0,0,0-0.1l0,0c0-0.1,0-0.1,0-0.1C0,17.4,0.2,17.5,0.4,17.6"/>
				<path fill="#87888A" d="M0.4,17.6C0.4,17.6,0.4,17.6,0.4,17.6C0.4,17.7,0.4,17.6,0.4,17.6C0.4,17.6,0.3,17.6,0.4,17.6l-0.2,0
					c0,0-0.1-0.1-0.1-0.1l0,0c0,0,0,0,0-0.1l0,0c0-0.1,0-0.1,0-0.1C0,17.4,0.2,17.5,0.4,17.6"/>
				<path fill="#838485" d="M0.4,17.6C0.4,17.6,0.4,17.6,0.4,17.6C0.4,17.7,0.4,17.6,0.4,17.6C0.4,17.6,0.3,17.6,0.4,17.6l-0.2,0
					c0,0-0.1-0.1-0.1-0.1l0,0c0,0,0,0,0-0.1l0,0c0-0.1,0-0.1,0-0.1C0,17.4,0.2,17.5,0.4,17.6"/>
				<path fill="#7E7F81" d="M0.4,17.6C0.4,17.6,0.4,17.6,0.4,17.6C0.4,17.7,0.4,17.6,0.4,17.6C0.4,17.6,0.3,17.6,0.4,17.6l-0.2,0
					c0,0-0.1-0.1-0.1-0.1l0,0c0,0,0,0,0-0.1l0,0c0-0.1,0-0.1,0-0.1C0,17.4,0.2,17.5,0.4,17.6"/>
				<path fill="#7A7B7C" d="M0.4,17.6C0.4,17.6,0.4,17.6,0.4,17.6C0.4,17.7,0.4,17.6,0.4,17.6C0.4,17.6,0.3,17.6,0.4,17.6l-0.2,0
					c0,0-0.1-0.1-0.1-0.1l0,0c0,0,0,0,0-0.1l0,0c0-0.1,0-0.1,0-0.1C0,17.4,0.2,17.5,0.4,17.6"/>
				<path fill="#757678" d="M0.4,17.6C0.4,17.6,0.4,17.6,0.4,17.6C0.4,17.7,0.4,17.6,0.4,17.6C0.4,17.6,0.3,17.6,0.4,17.6l-0.2,0
					c0,0-0.1-0.1-0.1-0.1l0,0c0,0,0,0,0-0.1l0,0c0-0.1,0-0.1,0-0.1C0,17.4,0.2,17.5,0.4,17.6"/>
			</g>
		</g>
		<g enable-background="new    ">
			<defs>
				<path id="SVGID_19_" enable-background="new    " d="M1.3,17.5C1.3,17.5,1.3,17.5,1.3,17.5c0.4-0.1,0.8-0.3,1.3-0.5
					c0.7,0.3,0.7,0.8,0,1.1C2.1,17.9,1.7,17.7,1.3,17.5C1.3,17.5,1.3,17.5,1.3,17.5C1.3,17.5,1.3,17.5,1.3,17.5z"/>
			</defs>
			<clipPath id="SVGID_20_">
				<use xlink:href="#SVGID_19_"  overflow="visible"/>
			</clipPath>
			<g clip-path="url(#SVGID_20_)" enable-background="new    ">
				<path fill="#ABADAF" d="M1.3,17.5c0.4-0.1,0.8-0.3,1.3-0.5c0.7,0.3,0.7,0.8,0,1.1C2.1,17.9,1.7,17.7,1.3,17.5
					C1.3,17.5,1.3,17.5,1.3,17.5"/>
				<path fill="#ABADAF" d="M1.5,17.7c0,0,0,0-0.2-0.1c0,0,0,0,0,0c0,0,0,0,0,0l0,0l0,0l0,0l0,0l0,0l0,0l0,0l0,0l0,0l0,0l0,0l0,0
					l0,0l0,0l0,0l0,0l0,0l0,0l0,0c0.4-0.1,0.8-0.3,1.3-0.5c0.7,0.3,0.7,0.8,0,1.1C2.2,18,1.9,17.8,1.5,17.7"/>
				<path fill="#A7A8AA" d="M2,17.9L2,17.9c0.2-0.1,0-0.3-0.2-0.3c-0.1,0-0.2,0-0.3,0c0,0-0.1,0-0.1,0c0,0,0,0,0,0c0,0,0,0,0,0l0,0
					l0,0l0,0l0,0l0,0l0,0l0,0l0,0l0,0l0,0l0,0l0,0l0,0l0,0l0,0l0,0l0,0l0,0l0,0l0,0l0,0c0.4-0.1,0.8-0.3,1.3-0.5
					c0.7,0.3,0.7,0.8,0,1.1C2.4,18.1,2.2,18,2,17.9"/>
				<path fill="#A2A3A6" d="M1.3,17.5L1.3,17.5L1.3,17.5L1.3,17.5L1.3,17.5L1.3,17.5L1.3,17.5L1.3,17.5L1.3,17.5L1.3,17.5L1.3,17.5
					L1.3,17.5L1.3,17.5L1.3,17.5L1.3,17.5L1.3,17.5L1.3,17.5L1.3,17.5L1.3,17.5L1.3,17.5L1.3,17.5L1.3,17.5
					C1.3,17.5,1.4,17.5,1.3,17.5C1.4,17.5,1.4,17.5,1.3,17.5C1.4,17.5,1.4,17.5,1.3,17.5C1.4,17.5,1.4,17.5,1.3,17.5
					c0.3-0.1,0.7-0.2,1.1-0.4c0,0,0,0,0,0c0,0.2-0.8,0.3-0.9,0.3c0,0-0.1,0-0.1,0C1.4,17.6,1.4,17.6,1.3,17.5
					C1.4,17.5,1.3,17.5,1.3,17.5"/>
				<g>
					<polyline fill="#9D9FA1" points="1.3,17.5 1.3,17.5 1.3,17.5 1.3,17.5 					"/>
					<path fill="#9D9FA1" d="M1.3,17.5L1.3,17.5L1.3,17.5L1.3,17.5L1.3,17.5C1.3,17.5,1.3,17.5,1.3,17.5L1.3,17.5
						C1.3,17.5,1.3,17.5,1.3,17.5L1.3,17.5C1.3,17.5,1.3,17.5,1.3,17.5L1.3,17.5C1.3,17.5,1.3,17.5,1.3,17.5L1.3,17.5
						C1.3,17.5,1.3,17.5,1.3,17.5L1.3,17.5C1.3,17.5,1.3,17.5,1.3,17.5L1.3,17.5C1.3,17.5,1.3,17.5,1.3,17.5
						C1.3,17.5,1.3,17.5,1.3,17.5C1.3,17.5,1.3,17.5,1.3,17.5C1.3,17.5,1.4,17.5,1.3,17.5C1.4,17.5,1.4,17.5,1.3,17.5
						C1.4,17.5,1.4,17.6,1.3,17.5C1.4,17.6,1.4,17.6,1.3,17.5C1.4,17.5,1.3,17.5,1.3,17.5"/>
				</g>
				<path fill="#999A9C" d="M1.3,17.5C1.3,17.5,1.3,17.5,1.3,17.5L1.3,17.5C1.3,17.5,1.3,17.5,1.3,17.5L1.3,17.5
					C1.3,17.5,1.3,17.5,1.3,17.5L1.3,17.5C1.3,17.5,1.3,17.5,1.3,17.5L1.3,17.5C1.3,17.5,1.3,17.5,1.3,17.5L1.3,17.5
					C1.3,17.5,1.3,17.5,1.3,17.5L1.3,17.5C1.3,17.5,1.3,17.5,1.3,17.5L1.3,17.5C1.3,17.5,1.3,17.5,1.3,17.5L1.3,17.5
					C1.3,17.5,1.3,17.5,1.3,17.5L1.3,17.5C1.3,17.5,1.4,17.5,1.3,17.5C1.4,17.5,1.4,17.5,1.3,17.5C1.4,17.6,1.4,17.6,1.3,17.5
					C1.3,17.5,1.3,17.5,1.3,17.5"/>
				<path fill="#959698" d="M1.3,17.5C1.3,17.5,1.3,17.5,1.3,17.5L1.3,17.5C1.3,17.5,1.3,17.5,1.3,17.5L1.3,17.5
					C1.3,17.5,1.3,17.5,1.3,17.5L1.3,17.5C1.3,17.5,1.3,17.5,1.3,17.5L1.3,17.5C1.3,17.5,1.3,17.5,1.3,17.5L1.3,17.5
					C1.3,17.5,1.3,17.5,1.3,17.5L1.3,17.5C1.3,17.5,1.3,17.5,1.3,17.5L1.3,17.5C1.3,17.5,1.3,17.5,1.3,17.5L1.3,17.5
					C1.3,17.5,1.3,17.5,1.3,17.5L1.3,17.5C1.3,17.5,1.4,17.5,1.3,17.5C1.4,17.5,1.4,17.5,1.3,17.5C1.4,17.5,1.4,17.5,1.3,17.5
					C1.3,17.5,1.3,17.5,1.3,17.5"/>
				<path fill="#909193" d="M1.3,17.5C1.3,17.5,1.3,17.5,1.3,17.5L1.3,17.5C1.3,17.5,1.3,17.5,1.3,17.5L1.3,17.5
					C1.3,17.5,1.3,17.5,1.3,17.5L1.3,17.5C1.3,17.5,1.3,17.5,1.3,17.5L1.3,17.5C1.3,17.5,1.3,17.5,1.3,17.5L1.3,17.5
					C1.3,17.5,1.3,17.5,1.3,17.5L1.3,17.5C1.3,17.5,1.3,17.5,1.3,17.5L1.3,17.5C1.3,17.5,1.3,17.5,1.3,17.5L1.3,17.5
					C1.3,17.5,1.3,17.5,1.3,17.5L1.3,17.5C1.3,17.5,1.4,17.5,1.3,17.5C1.4,17.5,1.4,17.5,1.3,17.5C1.3,17.5,1.3,17.5,1.3,17.5
					C1.3,17.5,1.3,17.5,1.3,17.5"/>
				<path fill="#8B8D8F" d="M1.3,17.5C1.3,17.5,1.3,17.5,1.3,17.5L1.3,17.5C1.3,17.5,1.3,17.5,1.3,17.5L1.3,17.5
					C1.3,17.5,1.3,17.5,1.3,17.5L1.3,17.5C1.3,17.5,1.3,17.5,1.3,17.5L1.3,17.5C1.3,17.5,1.3,17.5,1.3,17.5L1.3,17.5
					C1.3,17.5,1.3,17.5,1.3,17.5L1.3,17.5C1.3,17.5,1.3,17.5,1.3,17.5L1.3,17.5C1.3,17.5,1.3,17.5,1.3,17.5L1.3,17.5
					C1.3,17.5,1.3,17.5,1.3,17.5L1.3,17.5C1.3,17.5,1.3,17.5,1.3,17.5C1.4,17.5,1.4,17.5,1.3,17.5C1.3,17.5,1.3,17.5,1.3,17.5
					C1.3,17.5,1.3,17.5,1.3,17.5"/>
				<path fill="#87888A" d="M1.3,17.5L1.3,17.5C1.3,17.5,1.3,17.5,1.3,17.5L1.3,17.5C1.3,17.5,1.3,17.5,1.3,17.5L1.3,17.5
					C1.3,17.5,1.3,17.5,1.3,17.5L1.3,17.5C1.3,17.5,1.3,17.5,1.3,17.5L1.3,17.5C1.3,17.5,1.3,17.5,1.3,17.5L1.3,17.5
					C1.3,17.5,1.3,17.5,1.3,17.5L1.3,17.5C1.3,17.5,1.3,17.5,1.3,17.5L1.3,17.5C1.3,17.5,1.3,17.5,1.3,17.5L1.3,17.5
					C1.3,17.5,1.3,17.5,1.3,17.5L1.3,17.5C1.3,17.5,1.3,17.5,1.3,17.5C1.3,17.5,1.3,17.5,1.3,17.5C1.3,17.5,1.3,17.5,1.3,17.5
					C1.3,17.5,1.3,17.5,1.3,17.5C1.3,17.5,1.3,17.5,1.3,17.5"/>
				<g>
					<path fill="#838485" d="M1.3,17.5C1.3,17.5,1.3,17.5,1.3,17.5L1.3,17.5C1.3,17.5,1.3,17.5,1.3,17.5L1.3,17.5
						C1.3,17.5,1.3,17.5,1.3,17.5L1.3,17.5C1.3,17.5,1.3,17.5,1.3,17.5L1.3,17.5C1.3,17.5,1.3,17.5,1.3,17.5L1.3,17.5
						C1.3,17.5,1.3,17.5,1.3,17.5L1.3,17.5C1.3,17.5,1.3,17.5,1.3,17.5C1.3,17.5,1.3,17.5,1.3,17.5C1.3,17.5,1.3,17.5,1.3,17.5
						L1.3,17.5L1.3,17.5"/>
					<polyline fill="#838485" points="1.3,17.5 1.3,17.5 1.3,17.5 1.3,17.5 					"/>
				</g>
				<g>
					<polyline fill="#7E7F81" points="1.3,17.5 1.3,17.5 1.3,17.5 1.3,17.5 1.3,17.5 1.3,17.5 1.3,17.5 1.3,17.5 1.3,17.5 					"/>
					<polyline fill="#7E7F81" points="1.3,17.5 1.3,17.5 1.3,17.5 1.3,17.5 					"/>
				</g>
			</g>
		</g>
		<g enable-background="new    ">
			<defs>
				<path id="SVGID_21_" enable-background="new    " d="M0,17.2l0-4.1c0,0.1,0.1,0.3,0.4,0.4l0,4.1C0.2,17.5,0,17.4,0,17.2z"/>
			</defs>
			<clipPath id="SVGID_22_">
				<use xlink:href="#SVGID_21_"  overflow="visible"/>
			</clipPath>
			<g clip-path="url(#SVGID_22_)" enable-background="new    ">
				<path fill="#757678" d="M0.4,13.5l0,4.1C0.2,17.5,0,17.4,0,17.2l0-4.1C0,13.3,0.1,13.4,0.4,13.5"/>
			</g>
		</g>
		<g enable-background="new    ">
			<defs>
				<path id="SVGID_23_" enable-background="new    " d="M1.3,12.8C1.3,12.8,1.3,12.8,1.3,12.8c-0.6,0.3-0.9,0.6-0.9,0.7
					C0.1,13.4,0,13.3,0,13.1c0-0.1,0-0.3,0.4-0.5C0.5,12.6,0.9,12.7,1.3,12.8C1.3,12.8,1.3,12.8,1.3,12.8z"/>
			</defs>
			<clipPath id="SVGID_24_">
				<use xlink:href="#SVGID_23_"  overflow="visible"/>
			</clipPath>
			<g clip-path="url(#SVGID_24_)" enable-background="new    ">
				<path fill="#A2A3A6" d="M1.3,12.8C1.3,12.8,1.3,12.8,1.3,12.8c-0.6,0.3-0.9,0.6-0.9,0.7C0.1,13.4,0,13.3,0,13.1
					c0-0.2,0.1-0.3,0.4-0.5C0.5,12.6,0.9,12.7,1.3,12.8C1.3,12.8,1.3,12.8,1.3,12.8"/>
				<path fill="#A2A3A6" d="M1.3,12.8L1.3,12.8L1.3,12.8L1.3,12.8L1.3,12.8L1.3,12.8L1.3,12.8L1.3,12.8L1.3,12.8L1.3,12.8L1.3,12.8
					L1.3,12.8L1.3,12.8L1.3,12.8L1.3,12.8L1.3,12.8L1.3,12.8L1.3,12.8L1.3,12.8L1.3,12.8C1.3,12.8,1.2,12.8,1.3,12.8
					C1.2,12.8,1.2,12.8,1.3,12.8C1.1,12.9,1,12.9,0.9,13c-0.1,0-0.2,0.1-0.3,0.2c-0.2,0.1-0.2,0.2-0.2,0.3c0,0.1-0.1,0.1-0.1,0.1
					C0.1,13.4,0,13.3,0,13.1c0,0,0,0,0-0.1c0,0,0,0,0-0.1l0,0c0,0,0,0,0-0.1l0,0l0,0l0,0c0,0,0,0,0.1,0l0.1,0c0,0,0.1,0,0.1,0l0.1,0
					l0,0C0.5,12.6,0.9,12.7,1.3,12.8"/>
				<g>
					<path fill="#9D9FA1" d="M1.3,12.8C1.3,12.8,1.3,12.8,1.3,12.8C1.3,12.8,1.2,12.8,1.3,12.8C1.2,12.8,1.2,12.8,1.3,12.8
						C1.2,12.8,1.2,12.8,1.3,12.8C1.2,12.8,1.2,12.8,1.3,12.8C1.3,12.8,1.3,12.8,1.3,12.8"/>
					<path fill="#9D9FA1" d="M1.3,12.8L1.3,12.8L1.3,12.8L1.3,12.8L1.3,12.8L1.3,12.8L1.3,12.8L1.3,12.8L1.3,12.8L1.3,12.8L1.3,12.8
						L1.3,12.8L1.3,12.8L1.3,12.8L1.3,12.8L1.3,12.8L1.3,12.8L1.3,12.8L1.3,12.8c-0.2,0.1-0.3,0.1-0.4,0.1c-0.1,0-0.2,0.1-0.3,0.2
						c-0.2,0.2-0.2,0.3-0.1,0.3c0,0,0,0.1,0,0.1C0.1,13.4,0,13.3,0,13.1c0,0,0,0,0-0.1c0,0,0,0,0-0.1l0,0c0,0,0,0,0-0.1l0,0l0,0l0,0
						c0,0,0,0,0.1,0l0.1,0c0,0,0.1,0,0.1,0l0.1,0l0,0C0.5,12.6,0.9,12.7,1.3,12.8"/>
				</g>
				<g>
					<path fill="#999A9C" d="M1.3,12.8C1.3,12.8,1.3,12.8,1.3,12.8C1.3,12.8,1.2,12.8,1.3,12.8C1.2,12.8,1.2,12.8,1.3,12.8
						C1.2,12.8,1.2,12.8,1.3,12.8C1.2,12.8,1.3,12.8,1.3,12.8C1.3,12.8,1.3,12.8,1.3,12.8"/>
					<path fill="#999A9C" d="M1.3,12.8L1.3,12.8L1.3,12.8L1.3,12.8L1.3,12.8L1.3,12.8L1.3,12.8L1.3,12.8L1.3,12.8L1.3,12.8L1.3,12.8
						L1.3,12.8L1.3,12.8L1.3,12.8L1.3,12.8L1.3,12.8L1.3,12.8C1.3,12.8,1.2,12.8,1.3,12.8c-0.1,0-0.5,0-0.8,0.2c0,0-0.3,0.2-0.1,0.4
						c0,0,0,0.1,0,0.1C0.1,13.4,0,13.3,0,13.1c0,0,0,0,0-0.1c0,0,0,0,0-0.1l0,0c0,0,0,0,0-0.1l0,0l0,0l0,0c0,0,0,0,0.1,0l0.1,0
						c0,0,0.1,0,0.1,0l0.1,0l0,0C0.5,12.6,0.9,12.7,1.3,12.8"/>
				</g>
				<g>
					<path fill="#959698" d="M1.3,12.8C1.3,12.8,1.3,12.8,1.3,12.8C1.3,12.8,1.3,12.8,1.3,12.8C1.2,12.8,1.2,12.8,1.3,12.8
						C1.2,12.8,1.2,12.8,1.3,12.8C1.2,12.8,1.3,12.8,1.3,12.8C1.3,12.8,1.3,12.8,1.3,12.8"/>
					<path fill="#959698" d="M1.3,12.8C1.3,12.8,1.3,12.8,1.3,12.8L1.3,12.8C1.3,12.8,1.3,12.8,1.3,12.8L1.3,12.8
						C1.3,12.8,1.3,12.8,1.3,12.8L1.3,12.8C1.3,12.8,1.3,12.8,1.3,12.8L1.3,12.8C1.3,12.8,1.3,12.8,1.3,12.8L1.3,12.8
						C1.3,12.8,1.3,12.8,1.3,12.8L1.3,12.8C1.3,12.8,1.3,12.8,1.3,12.8L1.3,12.8L1.3,12.8L1.3,12.8C1.3,12.8,1.2,12.8,1.3,12.8
						C1.2,12.8,1.2,12.8,1.3,12.8C1.3,12.8,1.3,12.8,1.3,12.8C1.3,12.8,1.3,12.8,1.3,12.8"/>
				</g>
				<g>
					<path fill="#909193" d="M1.3,12.8C1.3,12.8,1.3,12.8,1.3,12.8C1.3,12.8,1.3,12.8,1.3,12.8C1.2,12.8,1.2,12.8,1.3,12.8
						C1.2,12.8,1.2,12.8,1.3,12.8C1.2,12.8,1.3,12.8,1.3,12.8C1.3,12.8,1.3,12.8,1.3,12.8"/>
					<polyline fill="#909193" points="1.3,12.8 1.3,12.8 1.3,12.8 1.3,12.8 1.3,12.8 1.3,12.8 1.3,12.8 1.3,12.8 1.3,12.8 1.3,12.8 
						1.3,12.8 1.3,12.8 1.3,12.8 1.3,12.8 1.3,12.8 					"/>
				</g>
				<g>
					<path fill="#8B8D8F" d="M1.3,12.8C1.3,12.8,1.3,12.8,1.3,12.8C1.3,12.8,1.3,12.8,1.3,12.8C1.2,12.8,1.2,12.8,1.3,12.8
						C1.2,12.8,1.2,12.8,1.3,12.8C1.3,12.8,1.3,12.8,1.3,12.8C1.3,12.8,1.3,12.8,1.3,12.8"/>
					<polyline fill="#8B8D8F" points="1.3,12.8 1.3,12.8 1.3,12.8 1.3,12.8 1.3,12.8 1.3,12.8 					"/>
				</g>
				<path fill="#87888A" d="M1.3,12.8C1.3,12.8,1.3,12.8,1.3,12.8C1.3,12.8,1.3,12.8,1.3,12.8C1.3,12.8,1.3,12.8,1.3,12.8
					C1.3,12.8,1.3,12.8,1.3,12.8C1.3,12.8,1.3,12.8,1.3,12.8C1.3,12.8,1.3,12.8,1.3,12.8"/>
				<path fill="#838485" d="M1.3,12.8C1.3,12.8,1.3,12.8,1.3,12.8C1.3,12.8,1.3,12.8,1.3,12.8C1.3,12.8,1.3,12.8,1.3,12.8
					C1.3,12.8,1.3,12.8,1.3,12.8L1.3,12.8L1.3,12.8"/>
				<polyline fill="#7E7F81" points="1.3,12.8 1.3,12.8 1.3,12.8 1.3,12.8 1.3,12.8 1.3,12.8 1.3,12.8 				"/>
				<polyline fill="#7A7B7C" points="1.3,12.8 1.3,12.8 1.3,12.8 1.3,12.8 1.3,12.8 				"/>
				<polyline fill="#757678" points="1.3,12.8 1.3,12.8 1.3,12.8 1.3,12.8 				"/>
				<path fill="#959698" d="M1.1,12.8c-0.8,0.1-1,0.5-0.7,0.7c0,0,0,0,0,0c0,0,0,0,0,0.1C0.1,13.4,0,13.3,0,13.1c0,0,0,0,0-0.1
					c0,0,0,0,0-0.1l0,0c0,0,0,0,0-0.1l0,0l0,0l0,0c0,0,0,0,0.1,0l0.1,0c0,0,0.1,0,0.1,0l0.1,0l0,0C0.5,12.6,0.8,12.7,1.1,12.8"/>
				<path fill="#909193" d="M0.9,12.7c-0.7,0.2-0.9,0.5-0.5,0.8c0,0,0,0,0,0.1C0.1,13.4,0,13.3,0,13.1c0,0,0,0,0-0.1c0,0,0,0,0-0.1
					l0,0c0,0,0,0,0-0.1l0,0l0,0l0,0c0,0,0,0,0.1,0l0.1,0c0,0,0.1,0,0.1,0l0.1,0l0,0C0.5,12.6,0.7,12.7,0.9,12.7"/>
				<path fill="#8B8D8F" d="M0.7,12.7L0.7,12.7C0,12.9,0,13.3,0.4,13.5c0,0,0,0,0,0C0.1,13.4,0,13.3,0,13.1c0,0,0,0,0-0.1
					c0,0,0,0,0-0.1l0,0c0,0,0,0,0-0.1l0,0l0,0l0,0c0,0,0,0,0.1,0l0.1,0c0,0,0.1,0,0.1,0l0.1,0l0,0C0.5,12.7,0.6,12.7,0.7,12.7"/>
				<path fill="#87888A" d="M0.6,12.7c-0.6,0.2-0.7,0.6-0.3,0.8c0,0,0,0,0,0C0.1,13.4,0,13.3,0,13.1c0,0,0,0,0-0.1c0,0,0,0,0-0.1
					l0,0c0,0,0,0,0-0.1l0,0l0,0l0,0c0,0,0,0,0.1,0l0.1,0c0,0,0.1,0,0.1,0l0.1,0l0,0C0.5,12.7,0.5,12.7,0.6,12.7"/>
				<path fill="#838485" d="M0.6,12.7c-0.6,0.2-0.6,0.6-0.2,0.8c0,0,0,0,0,0C0.1,13.4,0,13.3,0,13.1c0,0,0,0,0-0.1c0,0,0,0,0-0.1
					l0,0c0,0,0,0,0-0.1l0,0l0,0l0,0c0,0,0,0,0.1,0l0.1,0c0,0,0.1,0,0.1,0l0.1,0l0,0C0.5,12.7,0.5,12.7,0.6,12.7"/>
				<path fill="#7E7F81" d="M0.5,12.7c-0.5,0.2-0.6,0.6-0.1,0.8c0,0,0,0,0,0C0.1,13.4,0,13.3,0,13.1c0,0,0,0,0-0.1c0,0,0,0,0-0.1
					l0,0c0,0,0,0,0-0.1l0,0l0,0l0,0c0,0,0,0,0.1,0l0.1,0c0,0,0.1,0,0.1,0L0.5,12.7L0.5,12.7C0.5,12.7,0.5,12.7,0.5,12.7"/>
				<path fill="#7A7B7C" d="M0.5,12.7c-0.5,0.2-0.6,0.6-0.1,0.8c0,0,0,0,0,0C0.1,13.4,0,13.3,0,13.1c0,0,0,0,0-0.1c0,0,0,0,0-0.1
					l0,0c0,0,0,0,0-0.1l0,0l0,0l0,0c0,0,0,0,0.1,0l0.1,0c0,0,0.1,0,0.1,0L0.5,12.7L0.5,12.7C0.4,12.7,0.5,12.7,0.5,12.7"/>
				<path fill="#757678" d="M0.4,12.7c-0.5,0.2-0.6,0.6-0.1,0.8C0.1,13.4,0,13.3,0,13.1c0,0,0,0,0-0.1c0,0,0,0,0-0.1l0,0
					c0,0,0,0,0-0.1l0,0l0,0l0,0c0,0,0,0,0.1,0l0.1,0C0.3,12.7,0.3,12.7,0.4,12.7L0.4,12.7L0.4,12.7C0.4,12.7,0.4,12.7,0.4,12.7"/>
				<path fill="#A2A3A6" d="M1.2,12.8C1.2,12.8,1.3,12.8,1.2,12.8L1.2,12.8C1.2,12.8,1.2,12.8,1.2,12.8C1.2,12.8,1.2,12.8,1.2,12.8"
					/>
			</g>
		</g>
		<g enable-background="new    ">
			<defs>
				<path id="SVGID_25_" enable-background="new    " d="M10.3,21.3C10.3,21.3,10.3,21.3,10.3,21.3c-0.4-0.1-0.8-0.3-1.3-0.5
					c0.7-0.3,1.8-0.3,2.5,0C11.1,21.1,10.7,21.2,10.3,21.3C10.3,21.3,10.3,21.3,10.3,21.3C10.3,21.3,10.3,21.3,10.3,21.3z"/>
			</defs>
			<clipPath id="SVGID_26_">
				<use xlink:href="#SVGID_25_"  overflow="visible"/>
			</clipPath>
			<g clip-path="url(#SVGID_26_)" enable-background="new    ">
				<path fill="#ABADAF" d="M10.3,21.3c-0.4-0.1-0.8-0.3-1.3-0.5c0.7-0.3,1.8-0.3,2.5,0C11.1,21.1,10.7,21.2,10.3,21.3
					C10.3,21.3,10.3,21.3,10.3,21.3"/>
				<path fill="#ABADAF" d="M10.3,21.3L10.3,21.3L10.3,21.3L10.3,21.3L10.3,21.3L10.3,21.3L10.3,21.3L10.3,21.3L10.3,21.3L10.3,21.3
					L10.3,21.3L10.3,21.3L10.3,21.3L10.3,21.3L10.3,21.3L10.3,21.3L10.3,21.3L10.3,21.3L10.3,21.3L10.3,21.3
					c-0.4-0.1-0.8-0.3-1.3-0.5c0.7-0.3,1.8-0.3,2.5,0C11.1,21.1,10.7,21.2,10.3,21.3"/>
				<path fill="#A7A8AA" d="M10.3,21.3L10.3,21.3L10.3,21.3L10.3,21.3L10.3,21.3L10.3,21.3L10.3,21.3L10.3,21.3L10.3,21.3L10.3,21.3
					L10.3,21.3L10.3,21.3L10.3,21.3L10.3,21.3L10.3,21.3L10.3,21.3L10.3,21.3L10.3,21.3L10.3,21.3L10.3,21.3
					c-0.4-0.1-0.8-0.3-1.3-0.5c0.7-0.3,1.8-0.3,2.5,0C11.1,21.1,10.7,21.2,10.3,21.3"/>
				<path fill="#A2A3A6" d="M10.3,21.3L10.3,21.3L10.3,21.3L10.3,21.3L10.3,21.3L10.3,21.3L10.3,21.3L10.3,21.3L10.3,21.3L10.3,21.3
					L10.3,21.3L10.3,21.3L10.3,21.3L10.3,21.3L10.3,21.3L10.3,21.3L10.3,21.3L10.3,21.3L10.3,21.3L10.3,21.3
					c-0.3-0.1-0.8-0.3-1.2-0.5c0.9-0.4,2.1-0.2,2.3,0c0,0,0,0,0,0C11,21.1,10.6,21.3,10.3,21.3"/>
				<path fill="#9D9FA1" d="M10.3,21.3L10.3,21.3L10.3,21.3L10.3,21.3L10.3,21.3L10.3,21.3L10.3,21.3L10.3,21.3L10.3,21.3L10.3,21.3
					L10.3,21.3L10.3,21.3L10.3,21.3L10.3,21.3L10.3,21.3L10.3,21.3L10.3,21.3L10.3,21.3L10.3,21.3L10.3,21.3L10.3,21.3
					c-0.2-0.1-0.4-0.1-0.6-0.2c0.3-0.2,0.8-0.1,0.8,0.1c0,0,0,0.1-0.1,0.1C10.4,21.3,10.4,21.3,10.3,21.3
					C10.4,21.3,10.4,21.3,10.3,21.3C10.4,21.3,10.4,21.3,10.3,21.3C10.4,21.3,10.3,21.3,10.3,21.3C10.3,21.3,10.3,21.3,10.3,21.3"/>
				<path fill="#999A9C" d="M10.3,21.3L10.3,21.3C10.3,21.3,10.3,21.3,10.3,21.3L10.3,21.3L10.3,21.3L10.3,21.3L10.3,21.3L10.3,21.3
					L10.3,21.3L10.3,21.3L10.3,21.3L10.3,21.3L10.3,21.3L10.3,21.3L10.3,21.3L10.3,21.3L10.3,21.3L10.3,21.3L10.3,21.3L10.3,21.3
					L10.3,21.3c0,0-0.1,0-0.2-0.1C10.1,21.3,10.2,21.3,10.3,21.3C10.2,21.3,10.3,21.3,10.3,21.3C10.3,21.3,10.4,21.3,10.3,21.3
					C10.4,21.3,10.3,21.3,10.3,21.3C10.3,21.3,10.3,21.3,10.3,21.3C10.3,21.3,10.3,21.3,10.3,21.3"/>
				<path fill="#959698" d="M10.3,21.3L10.3,21.3C10.3,21.3,10.3,21.3,10.3,21.3L10.3,21.3C10.3,21.3,10.3,21.3,10.3,21.3L10.3,21.3
					C10.3,21.3,10.3,21.3,10.3,21.3L10.3,21.3L10.3,21.3L10.3,21.3L10.3,21.3L10.3,21.3L10.3,21.3L10.3,21.3L10.3,21.3L10.3,21.3
					L10.3,21.3L10.3,21.3L10.3,21.3L10.3,21.3L10.3,21.3C10.3,21.3,10.3,21.3,10.3,21.3C10.3,21.3,10.2,21.3,10.3,21.3
					C10.3,21.3,10.3,21.3,10.3,21.3C10.3,21.3,10.3,21.3,10.3,21.3C10.3,21.3,10.3,21.3,10.3,21.3C10.3,21.3,10.3,21.3,10.3,21.3"/>
				<path fill="#909193" d="M10.3,21.3C10.3,21.3,10.3,21.3,10.3,21.3L10.3,21.3C10.3,21.3,10.3,21.3,10.3,21.3L10.3,21.3
					C10.3,21.3,10.3,21.3,10.3,21.3L10.3,21.3C10.3,21.3,10.3,21.3,10.3,21.3L10.3,21.3C10.3,21.3,10.3,21.3,10.3,21.3L10.3,21.3
					C10.3,21.3,10.3,21.3,10.3,21.3L10.3,21.3C10.3,21.3,10.3,21.3,10.3,21.3L10.3,21.3L10.3,21.3L10.3,21.3L10.3,21.3
					C10.3,21.3,10.3,21.3,10.3,21.3C10.3,21.3,10.3,21.3,10.3,21.3C10.3,21.3,10.3,21.3,10.3,21.3C10.3,21.3,10.3,21.3,10.3,21.3
					C10.3,21.3,10.3,21.3,10.3,21.3C10.3,21.3,10.3,21.3,10.3,21.3C10.3,21.3,10.3,21.3,10.3,21.3L10.3,21.3"/>
				<path fill="#8B8D8F" d="M10.3,21.3C10.3,21.3,10.3,21.3,10.3,21.3L10.3,21.3C10.3,21.3,10.3,21.3,10.3,21.3L10.3,21.3
					C10.3,21.3,10.3,21.3,10.3,21.3L10.3,21.3C10.3,21.3,10.3,21.3,10.3,21.3L10.3,21.3C10.3,21.3,10.3,21.3,10.3,21.3L10.3,21.3
					C10.3,21.3,10.3,21.3,10.3,21.3L10.3,21.3C10.3,21.3,10.3,21.3,10.3,21.3L10.3,21.3C10.3,21.3,10.3,21.3,10.3,21.3L10.3,21.3
					C10.3,21.3,10.3,21.3,10.3,21.3C10.3,21.3,10.3,21.3,10.3,21.3C10.3,21.3,10.3,21.3,10.3,21.3C10.3,21.3,10.3,21.3,10.3,21.3
					C10.3,21.3,10.3,21.3,10.3,21.3C10.3,21.3,10.3,21.3,10.3,21.3"/>
				<path fill="#87888A" d="M10.3,21.3C10.3,21.3,10.3,21.3,10.3,21.3L10.3,21.3C10.3,21.3,10.3,21.3,10.3,21.3L10.3,21.3
					C10.3,21.3,10.3,21.3,10.3,21.3L10.3,21.3C10.3,21.3,10.3,21.3,10.3,21.3L10.3,21.3C10.3,21.3,10.3,21.3,10.3,21.3L10.3,21.3
					C10.3,21.3,10.3,21.3,10.3,21.3L10.3,21.3C10.3,21.3,10.3,21.3,10.3,21.3L10.3,21.3C10.3,21.3,10.3,21.3,10.3,21.3
					C10.3,21.3,10.3,21.3,10.3,21.3C10.3,21.3,10.3,21.3,10.3,21.3C10.3,21.3,10.3,21.3,10.3,21.3C10.3,21.3,10.3,21.3,10.3,21.3
					L10.3,21.3L10.3,21.3"/>
				<path fill="#838485" d="M10.3,21.3C10.3,21.3,10.3,21.3,10.3,21.3L10.3,21.3C10.3,21.3,10.3,21.3,10.3,21.3L10.3,21.3
					C10.3,21.3,10.3,21.3,10.3,21.3L10.3,21.3C10.3,21.3,10.3,21.3,10.3,21.3L10.3,21.3C10.3,21.3,10.3,21.3,10.3,21.3L10.3,21.3
					C10.3,21.3,10.3,21.3,10.3,21.3L10.3,21.3C10.3,21.3,10.3,21.3,10.3,21.3L10.3,21.3C10.3,21.3,10.3,21.3,10.3,21.3
					C10.3,21.3,10.3,21.3,10.3,21.3C10.3,21.3,10.3,21.3,10.3,21.3C10.3,21.3,10.3,21.3,10.3,21.3L10.3,21.3L10.3,21.3"/>
				<polyline fill="#7E7F81" points="10.3,21.3 10.3,21.3 10.3,21.3 10.3,21.3 10.3,21.3 10.3,21.3 10.3,21.3 10.3,21.3 10.3,21.3 
					10.3,21.3 10.3,21.3 10.3,21.3 10.3,21.3 10.3,21.3 10.3,21.3 10.3,21.3 10.3,21.3 10.3,21.3 10.3,21.3 10.3,21.3 10.3,21.3 
					10.3,21.3 				"/>
				<g>
					<polyline fill="#7A7B7C" points="10.3,21.3 10.3,21.3 10.3,21.3 10.3,21.3 					"/>
					<polyline fill="#7A7B7C" points="10.3,21.3 10.3,21.3 10.3,21.3 					"/>
				</g>
			</g>
		</g>
		<g enable-background="new    ">
			<defs>
				<path id="SVGID_27_" enable-background="new    " d="M9.4,21.5l-0.9-0.4l-0.9-0.4l-0.9-0.4l-0.9-0.4l-0.9-0.4L4,19.2l-0.9-0.4
					l-0.9-0.4L1.4,18l-0.9-0.4c0,0,0,0-0.1-0.1L9.4,21.5C9.4,21.4,9.4,21.5,9.4,21.5z"/>
			</defs>
			<clipPath id="SVGID_28_">
				<use xlink:href="#SVGID_27_"  overflow="visible"/>
			</clipPath>
			<g clip-path="url(#SVGID_28_)" enable-background="new    ">
				<path fill="#757678" d="M0.4,17.6l9,3.8c0,0,0,0.1,0.1,0.1l-0.9-0.4l-0.9-0.4l-0.9-0.4l-0.9-0.4l-0.9-0.4L4,19.2l-0.9-0.4
					l-0.9-0.4L1.4,18L0.4,17.6C0.4,17.6,0.4,17.6,0.4,17.6"/>
			</g>
		</g>
		<g enable-background="new    ">
			<defs>
				<path id="SVGID_29_" enable-background="new    " d="M24.7,15.6l-1.3,0.6L22,16.8l-1.3,0.6L19.3,18l-1.3,0.6l-1.3,0.6l-1.3,0.6
					l-1.3,0.6l-1.3,0.6l-1.3,0.6c0,0,0,0,0-0.1L24.7,15.6C24.7,15.6,24.7,15.6,24.7,15.6z"/>
			</defs>
			<clipPath id="SVGID_30_">
				<use xlink:href="#SVGID_29_"  overflow="visible"/>
			</clipPath>
			<g clip-path="url(#SVGID_30_)" enable-background="new    ">
				<polyline fill="#B0B1B3" points="11.2,21.4 24.7,15.6 24.7,15.6 11.2,21.4 11.2,21.4 				"/>
				<polyline fill="#ABADAF" points="11.2,21.4 24.7,15.6 24.7,15.6 11.2,21.4 11.2,21.4 				"/>
				<polyline fill="#A7A8AA" points="11.2,21.4 24.7,15.6 24.7,15.6 11.2,21.4 11.2,21.4 				"/>
				<polyline fill="#A2A3A6" points="11.2,21.4 24.7,15.6 24.7,15.6 11.2,21.4 11.2,21.4 				"/>
				<polyline fill="#9D9FA1" points="11.2,21.4 24.7,15.6 24.7,15.6 11.2,21.4 11.2,21.4 				"/>
				<polyline fill="#999A9C" points="11.2,21.4 24.7,15.6 24.7,15.6 11.2,21.4 11.2,21.4 				"/>
				<polyline fill="#959698" points="11.2,21.4 24.7,15.6 24.7,15.6 11.2,21.4 11.2,21.4 				"/>
				<polyline fill="#909193" points="11.2,21.4 24.7,15.6 24.7,15.6 11.2,21.4 11.2,21.4 				"/>
				<polyline fill="#8B8D8F" points="11.2,21.4 24.7,15.6 24.7,15.6 11.2,21.4 11.2,21.4 				"/>
				<polyline fill="#87888A" points="11.2,21.4 24.7,15.6 24.7,15.6 11.2,21.4 11.2,21.4 				"/>
				<polyline fill="#838485" points="11.2,21.4 24.7,15.6 24.7,15.6 11.2,21.4 11.2,21.4 				"/>
				<polyline fill="#7E7F81" points="11.2,21.4 24.7,15.6 24.7,15.6 11.2,21.4 11.2,21.4 				"/>
				<polyline fill="#7A7B7C" points="11.2,21.4 24.7,15.6 24.7,15.6 11.2,21.4 11.2,21.4 				"/>
				<path fill="#757678" d="M11.2,21.4l13.5-5.8c0,0,0,0,0,0l-1.3,0.6L22,16.8l-1.3,0.6L19.3,18l-1.3,0.6l-1.3,0.6l-1.3,0.6
					l-1.3,0.6l-1.3,0.6L11.2,21.4C11.2,21.5,11.2,21.5,11.2,21.4"/>
			</g>
		</g>
		<g enable-background="new    ">
			<defs>
				<path id="SVGID_31_" enable-background="new    " d="M22.5,10.2c1.2,0.5,2.2,1.1,2.2,1.3l-13.5,5.8c0-0.2-1-0.8-2.2-1.3
					C9,16,22.5,10.2,22.5,10.2z"/>
			</defs>
			<clipPath id="SVGID_32_">
				<use xlink:href="#SVGID_31_"  overflow="visible"/>
			</clipPath>
			<g clip-path="url(#SVGID_32_)" enable-background="new    ">
				<path fill="#A7A8AA" d="M9,16l13.5-5.8c0.2,0.1,0.4,0.2,0.6,0.3L9.6,16.2C9.4,16.2,9.2,16.1,9,16"/>
				<path fill="#ABADAF" d="M9.6,16.2l13.5-5.8c0.2,0.1,0.3,0.2,0.5,0.2L10,16.5C9.9,16.4,9.7,16.3,9.6,16.2"/>
				<path fill="#B0B1B3" d="M10,16.5l13.5-5.8c0.1,0.1,0.2,0.1,0.3,0.2l-13.5,5.8C10.3,16.6,10.2,16.6,10,16.5"/>
				<path fill="#B4B6B8" d="M10.4,16.7l13.5-5.8c0.1,0,0.2,0.1,0.2,0.1l-13.5,5.8C10.6,16.8,10.5,16.7,10.4,16.7"/>
				<path fill="#B9BABD" d="M10.6,16.8L24.1,11c0.1,0,0.1,0.1,0.2,0.1l-13.5,5.8C10.7,16.9,10.7,16.9,10.6,16.8"/>
				<path fill="#BDBFC1" d="M10.8,16.9l13.5-5.8c0,0,0.1,0.1,0.1,0.1L10.9,17C10.9,17,10.8,17,10.8,16.9"/>
				<path fill="#C2C3C6" d="M10.9,17l13.5-5.8c0,0,0.1,0,0.1,0.1L10.9,17C10.9,17,10.9,17,10.9,17"/>
				<path fill="#C6C8CA" d="M11,17.1l13.5-5.8c0,0,0,0,0.1,0L11,17.1C11,17.1,11,17.1,11,17.1"/>
				<path fill="#CBCCCF" d="M11,17.1l13.5-5.8c0,0,0,0,0,0L11,17.1C11,17.1,11,17.1,11,17.1"/>
				<path fill="#CFD1D4" d="M11.1,17.1l13.5-5.8c0,0,0,0,0,0L11.1,17.1C11.1,17.2,11.1,17.2,11.1,17.1"/>
				<path fill="#D3D5D8" d="M11.1,17.2l13.5-5.8c0,0,0,0,0,0L11.1,17.2C11.1,17.2,11.1,17.2,11.1,17.2"/>
				<path fill="#D8DADD" d="M11.1,17.2l13.5-5.8c0,0,0,0,0,0L11.1,17.2C11.1,17.2,11.1,17.2,11.1,17.2"/>
				<path fill="#DCDEE1" d="M11.1,17.2l13.5-5.8c0,0,0,0,0,0L11.1,17.2C11.1,17.2,11.1,17.2,11.1,17.2"/>
				<path fill="#E1E3E6" d="M11.1,17.2l13.5-5.8c0,0,0,0,0,0L11.1,17.2C11.1,17.2,11.1,17.2,11.1,17.2"/>
				<path fill="#E5E6E9" d="M11.1,17.2l13.5-5.8c0,0,0,0,0,0L11.1,17.2C11.2,17.3,11.2,17.3,11.1,17.2"/>
				<path fill="#E1E3E6" d="M11.2,17.3l13.5-5.8c0,0,0,0,0,0L11.2,17.3C11.2,17.3,11.2,17.3,11.2,17.3"/>
				<polyline fill="#DCDEE1" points="11.2,17.3 24.7,11.5 24.7,11.5 11.2,17.3 11.2,17.3 				"/>
				<polyline fill="#D8DADD" points="11.2,17.3 24.7,11.5 24.7,11.5 11.2,17.3 11.2,17.3 				"/>
				<polyline fill="#D3D5D8" points="11.2,17.3 24.7,11.5 24.7,11.5 11.2,17.3 11.2,17.3 				"/>
				<polyline fill="#CFD1D4" points="11.2,17.3 24.7,11.5 24.7,11.5 11.2,17.3 11.2,17.3 				"/>
				<polyline fill="#CBCCCF" points="11.2,17.3 24.7,11.5 24.7,11.5 11.2,17.3 11.2,17.3 				"/>
				<polyline fill="#C6C8CA" points="11.2,17.3 24.7,11.5 24.7,11.5 11.2,17.3 11.2,17.3 				"/>
				<polyline fill="#C2C3C6" points="11.2,17.3 24.7,11.5 24.7,11.5 11.2,17.3 11.2,17.3 				"/>
				<polyline fill="#BDBFC1" points="11.2,17.3 24.7,11.5 24.7,11.5 11.2,17.3 11.2,17.3 				"/>
				<polyline fill="#B9BABD" points="11.2,17.3 24.7,11.5 24.7,11.5 11.2,17.3 11.2,17.3 				"/>
				<polyline fill="#B4B6B8" points="11.2,17.3 24.7,11.5 24.7,11.5 11.2,17.3 11.2,17.3 				"/>
				<polyline fill="#B0B1B3" points="11.2,17.3 24.7,11.5 24.7,11.5 11.2,17.3 11.2,17.3 				"/>
			</g>
		</g>
		<g enable-background="new    ">
			<defs>
				<path id="SVGID_33_" enable-background="new    " d="M11.5,16c-1.2,0.5-2.2,1.1-2.2,1.4l-9-3.8c0-0.2,1-0.8,2.2-1.4
					C2.6,12.2,11.5,16,11.5,16z"/>
			</defs>
			<clipPath id="SVGID_34_">
				<use xlink:href="#SVGID_33_"  overflow="visible"/>
			</clipPath>
			<g clip-path="url(#SVGID_34_)" enable-background="new    ">
				<path fill="#A7A8AA" d="M2.6,12.2l9,3.8c-1,0.4-1.8,0.9-2.1,1.2l-9-3.8C0.7,13.1,1.6,12.6,2.6,12.2"/>
				<path fill="#A2A3A6" d="M0.5,13.4l9,3.8c0,0,0,0,0,0L0.5,13.4C0.4,13.4,0.4,13.4,0.5,13.4"/>
				<path fill="#9D9FA1" d="M0.4,13.4l9,3.8c0,0,0,0,0,0L0.4,13.4C0.4,13.4,0.4,13.4,0.4,13.4"/>
				<polyline fill="#999A9C" points="0.4,13.4 9.4,17.3 9.4,17.3 0.4,13.5 0.4,13.4 				"/>
				<polyline fill="#959698" points="0.4,13.5 9.4,17.3 9.4,17.3 0.4,13.5 0.4,13.5 				"/>
				<polyline fill="#909193" points="0.4,13.5 9.4,17.3 9.4,17.3 0.4,13.5 0.4,13.5 				"/>
				<polyline fill="#8B8D8F" points="0.4,13.5 9.4,17.3 9.4,17.3 0.4,13.5 0.4,13.5 				"/>
				<polyline fill="#87888A" points="0.4,13.5 9.4,17.3 9.4,17.3 0.4,13.5 0.4,13.5 				"/>
				<polyline fill="#838485" points="0.4,13.5 9.4,17.3 9.4,17.3 0.4,13.5 0.4,13.5 				"/>
				<polyline fill="#7E7F81" points="0.4,13.5 9.4,17.3 9.4,17.3 0.4,13.5 0.4,13.5 				"/>
				<polyline fill="#7A7B7C" points="0.4,13.5 9.4,17.3 9.4,17.3 0.4,13.5 0.4,13.5 				"/>
				<polyline fill="#757678" points="0.4,13.5 9.4,17.3 9.4,17.3 0.4,13.5 0.4,13.5 				"/>
			</g>
		</g>
		<g>
			<path fill="#B2B3B6" d="M22.5,11.3c-0.7-0.3-0.7-0.8,0-1.1C18,12.1,13.5,14.1,9,16c0.7-0.3,1.8-0.3,2.5,0c-3-1.3-6-2.5-9-3.8
				c0.7,0.3,0.7,0.8,0,1.1c4.5-1.9,9-3.9,13.5-5.8c-0.7,0.3-1.9,0.3-2.5,0C16.5,8.7,19.5,10,22.5,11.3z"/>
		</g>
		<g enable-background="new    ">
			<defs>
				<path id="SVGID_35_" enable-background="new    " d="M11.2,21.5c-0.1,0-0.4,0.2-0.9,0.2c-0.2,0-0.4,0-0.4,0
					c-0.2,0-0.3-0.1-0.4-0.1c0,0,0,0-0.1-0.1C9.9,21.6,10.7,21.6,11.2,21.5C11.2,21.4,11.2,21.4,11.2,21.5z"/>
			</defs>
			<clipPath id="SVGID_36_">
				<use xlink:href="#SVGID_35_"  overflow="visible"/>
			</clipPath>
			<g clip-path="url(#SVGID_36_)" enable-background="new    ">
				<path fill="#ABADAF" d="M11.2,21.5c-0.5,0.2-1.2,0.2-1.7,0c0,0-0.1,0-0.1-0.1C9.9,21.6,10.7,21.6,11.2,21.5
					C11.2,21.4,11.2,21.4,11.2,21.5"/>
				<path fill="#ABADAF" d="M9.4,21.4c0.3,0.1,0.8,0.2,1.3,0.1c0,0,0,0,0.1,0c0.2,0,0.3-0.1,0.5-0.1c0,0,0,0.1,0,0.1
					c0,0-0.1,0-0.1,0c0,0-0.1,0-0.1,0l-0.1,0c0,0-0.1,0-0.1,0l-0.1,0c0,0-0.1,0-0.1,0l-0.1,0c0,0-0.1,0-0.1,0l-0.1,0
					c0,0-0.1,0-0.1,0l-0.1,0c0,0-0.1,0-0.1,0l-0.1,0c0,0-0.1,0-0.1,0l-0.1,0c0,0-0.1,0-0.1,0l-0.1,0c0,0-0.1,0-0.1,0l-0.1,0
					C9.5,21.5,9.5,21.5,9.4,21.4C9.4,21.5,9.4,21.4,9.4,21.4"/>
				<path fill="#A7A8AA" d="M9.4,21.4c0.3,0.1,0.7,0.2,1.1,0.1c0,0,0,0,0,0c0.3,0,0.5-0.1,0.7-0.2c0,0,0,0,0,0.1c0,0-0.1,0-0.1,0
					c0,0-0.1,0-0.1,0l-0.1,0c0,0-0.1,0-0.1,0l-0.1,0c0,0-0.1,0-0.1,0l-0.1,0c0,0-0.1,0-0.1,0l-0.1,0c0,0-0.1,0-0.1,0l-0.1,0
					c0,0-0.1,0-0.1,0l-0.1,0c0,0-0.1,0-0.1,0l-0.1,0c0,0-0.1,0-0.1,0l-0.1,0c0,0-0.1,0-0.1,0l-0.1,0C9.5,21.5,9.5,21.5,9.4,21.4
					C9.4,21.5,9.4,21.4,9.4,21.4"/>
				<path fill="#A2A3A6" d="M9.4,21.4c0.3,0.1,0.7,0.2,1,0.2c0,0,0,0,0,0c0.3,0,0.6-0.1,0.8-0.2c0,0,0,0,0,0.1c0,0-0.1,0-0.1,0
					c0,0-0.1,0-0.1,0l-0.1,0c0,0-0.1,0-0.1,0l-0.1,0c0,0-0.1,0-0.1,0l-0.1,0c0,0-0.1,0-0.1,0l-0.1,0c0,0-0.1,0-0.1,0l-0.1,0
					c0,0-0.1,0-0.1,0l-0.1,0c0,0-0.1,0-0.1,0l-0.1,0c0,0-0.1,0-0.1,0l-0.1,0c0,0-0.1,0-0.1,0l-0.1,0C9.5,21.5,9.5,21.5,9.4,21.4
					C9.4,21.5,9.4,21.4,9.4,21.4"/>
				<path fill="#9D9FA1" d="M9.4,21.4c0.3,0.1,0.6,0.2,0.9,0.2c0,0,0,0,0.1,0c0.3,0,0.6-0.1,0.9-0.2c0,0,0,0,0,0.1c0,0-0.1,0-0.1,0
					c0,0-0.1,0-0.1,0l-0.1,0c0,0-0.1,0-0.1,0l-0.1,0c0,0-0.1,0-0.1,0l-0.1,0c0,0-0.1,0-0.1,0l-0.1,0c0,0-0.1,0-0.1,0l-0.1,0
					c0,0-0.1,0-0.1,0l-0.1,0c0,0-0.1,0-0.1,0l-0.1,0c0,0-0.1,0-0.1,0l-0.1,0c0,0-0.1,0-0.1,0l-0.1,0C9.5,21.5,9.5,21.5,9.4,21.4
					C9.4,21.5,9.4,21.4,9.4,21.4"/>
				<path fill="#999A9C" d="M9.4,21.4c0.2,0.1,0.5,0.1,0.8,0.2c0,0,0,0,0,0c0.4,0,0.7,0,1-0.2c0,0,0,0,0,0.1c0,0-0.1,0-0.1,0
					c0,0-0.1,0-0.1,0l-0.1,0c0,0-0.1,0-0.1,0l-0.1,0c0,0-0.1,0-0.1,0l-0.1,0c0,0-0.1,0-0.1,0l-0.1,0c0,0-0.1,0-0.1,0l-0.1,0
					c0,0-0.1,0-0.1,0l-0.1,0c0,0-0.1,0-0.1,0l-0.1,0c0,0-0.1,0-0.1,0l-0.1,0c0,0-0.1,0-0.1,0l-0.1,0C9.5,21.5,9.5,21.5,9.4,21.4
					C9.4,21.5,9.4,21.4,9.4,21.4"/>
				<path fill="#959698" d="M9.4,21.4c0.2,0.1,0.5,0.1,0.7,0.2c0,0,0,0,0,0c0.6,0,0.9-0.1,1.1-0.2c0,0,0,0,0,0.1c0,0-0.1,0-0.1,0
					c0,0-0.1,0-0.1,0l-0.1,0c0,0-0.1,0-0.1,0l-0.1,0c0,0-0.1,0-0.1,0l-0.1,0c0,0-0.1,0-0.1,0l-0.1,0c0,0-0.1,0-0.1,0l-0.1,0
					c0,0-0.1,0-0.1,0l-0.1,0c0,0-0.1,0-0.1,0l-0.1,0c0,0-0.1,0-0.1,0l-0.1,0c0,0-0.1,0-0.1,0l-0.1,0C9.5,21.5,9.5,21.5,9.4,21.4
					C9.4,21.5,9.4,21.4,9.4,21.4"/>
				<path fill="#909193" d="M9.4,21.4c0.2,0.1,0.4,0.1,0.6,0.1c0,0,0,0,0,0c0.4,0,0.8,0,1.2-0.1c0,0,0,0,0,0.1c0,0-0.1,0-0.1,0
					c0,0-0.1,0-0.1,0l-0.1,0c0,0-0.1,0-0.1,0l-0.1,0c0,0-0.1,0-0.1,0l-0.1,0c0,0-0.1,0-0.1,0l-0.1,0c0,0-0.1,0-0.1,0l-0.1,0
					c0,0-0.1,0-0.1,0l-0.1,0c0,0-0.1,0-0.1,0l-0.1,0c0,0-0.1,0-0.1,0l-0.1,0c0,0-0.1,0-0.1,0l-0.1,0C9.5,21.5,9.5,21.5,9.4,21.4
					C9.4,21.5,9.4,21.4,9.4,21.4"/>
				<path fill="#8B8D8F" d="M9.4,21.4c0.2,0.1,0.3,0.1,0.5,0.1c0,0,0,0,0,0c0.5,0.1,0.9,0,1.3-0.1c0,0,0,0,0,0c0,0-0.1,0-0.1,0
					c0,0-0.1,0-0.1,0l-0.1,0c0,0-0.1,0-0.1,0l-0.1,0c0,0-0.1,0-0.1,0l-0.1,0c0,0-0.1,0-0.1,0l-0.1,0c0,0-0.1,0-0.1,0l-0.1,0
					c0,0-0.1,0-0.1,0l-0.1,0c0,0-0.1,0-0.1,0l-0.1,0c0,0-0.1,0-0.1,0l-0.1,0c0,0-0.1,0-0.1,0l-0.1,0C9.5,21.5,9.5,21.5,9.4,21.4
					C9.4,21.5,9.4,21.4,9.4,21.4"/>
				<path fill="#87888A" d="M9.4,21.4c0.1,0.1,0.3,0.1,0.4,0.1c0,0,0,0,0,0c0.5,0.1,1,0,1.3-0.1c0,0,0,0,0,0c0,0-0.1,0-0.1,0
					c0,0-0.1,0-0.1,0l-0.1,0c0,0-0.1,0-0.1,0l-0.1,0c0,0-0.1,0-0.1,0l-0.1,0c0,0-0.1,0-0.1,0l-0.1,0c0,0-0.1,0-0.1,0l-0.1,0
					c0,0-0.1,0-0.1,0l-0.1,0c0,0-0.1,0-0.1,0l-0.1,0c0,0-0.1,0-0.1,0l-0.1,0c0,0-0.1,0-0.1,0l-0.1,0C9.5,21.5,9.5,21.5,9.4,21.4
					C9.4,21.5,9.4,21.4,9.4,21.4"/>
				<path fill="#838485" d="M9.4,21.4c0.1,0,0.2,0.1,0.4,0.1c0,0,0,0,0,0c0.5,0.1,1.1,0.1,1.5-0.1c0,0,0,0,0,0c0,0-0.1,0-0.1,0
					c0,0-0.1,0-0.1,0l-0.1,0c0,0-0.1,0-0.1,0l-0.1,0c0,0-0.1,0-0.1,0l-0.1,0c0,0-0.1,0-0.1,0l-0.1,0c0,0-0.1,0-0.1,0l-0.1,0
					c0,0-0.1,0-0.1,0l-0.1,0c0,0-0.1,0-0.1,0l-0.1,0c0,0-0.1,0-0.1,0l-0.1,0c0,0-0.1,0-0.1,0l-0.1,0C9.5,21.5,9.5,21.5,9.4,21.4
					C9.4,21.5,9.4,21.4,9.4,21.4"/>
				<path fill="#7E7F81" d="M9.4,21.4c0.1,0,0.2,0.1,0.3,0.1c0,0,0,0,0,0c0.5,0.1,1.1,0.1,1.5-0.1c0,0,0,0,0,0c0,0-0.1,0-0.1,0
					c0,0-0.1,0-0.1,0l-0.1,0c0,0-0.1,0-0.1,0l-0.1,0c0,0-0.1,0-0.1,0l-0.1,0c0,0-0.1,0-0.1,0l-0.1,0c0,0-0.1,0-0.1,0l-0.1,0
					c0,0-0.1,0-0.1,0l-0.1,0c0,0-0.1,0-0.1,0l-0.1,0c0,0-0.1,0-0.1,0l-0.1,0c0,0-0.1,0-0.1,0l-0.1,0C9.5,21.5,9.5,21.5,9.4,21.4
					C9.4,21.5,9.4,21.4,9.4,21.4"/>
				<path fill="#7A7B7C" d="M9.4,21.4c0.1,0,0.1,0,0.2,0.1c0,0,0,0,0,0c0.5,0.2,1.2,0.1,1.6-0.1c0,0,0,0,0,0c0,0-0.1,0-0.1,0
					c0,0-0.1,0-0.1,0l-0.1,0c0,0-0.1,0-0.1,0l-0.1,0c0,0-0.1,0-0.1,0l-0.1,0c0,0-0.1,0-0.1,0l-0.1,0c0,0-0.1,0-0.1,0l-0.1,0
					c0,0-0.1,0-0.1,0l-0.1,0c0,0-0.1,0-0.1,0l-0.1,0c0,0-0.1,0-0.1,0l-0.1,0c0,0-0.1,0-0.1,0l-0.1,0C9.5,21.5,9.5,21.5,9.4,21.4
					C9.4,21.5,9.4,21.4,9.4,21.4"/>
				<path fill="#757678" d="M9.4,21.4C9.4,21.4,9.4,21.4,9.4,21.4C9.4,21.4,9.4,21.4,9.4,21.4c0.5,0.2,1.3,0.2,1.8,0c0,0,0,0,0,0
					c0,0-0.1,0-0.1,0c0,0-0.1,0-0.1,0l-0.1,0c0,0-0.1,0-0.1,0l-0.1,0c0,0-0.1,0-0.1,0l-0.1,0c0,0-0.1,0-0.1,0l-0.1,0
					c0,0-0.1,0-0.1,0l-0.1,0c0,0-0.1,0-0.1,0l-0.1,0c0,0-0.1,0-0.1,0l-0.1,0c0,0-0.1,0-0.1,0l-0.1,0c0,0-0.1,0-0.1,0l-0.1,0
					C9.5,21.5,9.5,21.5,9.4,21.4C9.4,21.5,9.4,21.4,9.4,21.4"/>
			</g>
		</g>
		<g>
			<polygon fill="#7E7F81" points="9.4,17.3 9.4,21.4 0.4,17.6 0.4,13.5 			"/>
		</g>
		<g>
			<polygon fill="#BBBCBF" points="24.7,11.5 24.7,15.6 11.2,21.4 11.2,17.3 			"/>
		</g>
		<g enable-background="new    ">
			<defs>
				<path id="SVGID_37_" enable-background="new    " d="M11.2,17.3l0,4.1c-0.5,0.2-1.3,0.2-1.8,0l0-4.1
					C9.9,17.6,10.7,17.5,11.2,17.3z"/>
			</defs>
			<clipPath id="SVGID_38_">
				<use xlink:href="#SVGID_37_"  overflow="visible"/>
			</clipPath>
			<g clip-path="url(#SVGID_38_)" enable-background="new    ">
				<path fill="#B0B1B3" d="M11.2,17.3l0,4.1c-0.2,0.1-0.3,0.1-0.5,0.1l0-4.1C10.8,17.4,11,17.4,11.2,17.3"/>
				<path fill="#ABADAF" d="M10.6,17.5l0,4.1c0,0-0.1,0-0.1,0l0-4.1C10.5,17.5,10.6,17.5,10.6,17.5"/>
				<path fill="#A7A8AA" d="M10.5,17.5l0,4.1c0,0-0.1,0-0.1,0l0-4.1C10.4,17.5,10.5,17.5,10.5,17.5"/>
				<path fill="#A2A3A6" d="M10.4,17.5l0,4.1c0,0-0.1,0-0.1,0l0-4.1C10.3,17.5,10.3,17.5,10.4,17.5"/>
				<path fill="#9D9FA1" d="M10.3,17.5l0,4.1c0,0-0.1,0-0.1,0L10.3,17.5C10.2,17.5,10.2,17.5,10.3,17.5"/>
				<path fill="#999A9C" d="M10.2,17.5l0,4.1c0,0-0.1,0-0.1,0L10.2,17.5C10.1,17.5,10.1,17.5,10.2,17.5"/>
				<path fill="#959698" d="M10.1,17.5l0,4.1c0,0-0.1,0-0.1,0L10.1,17.5C10,17.5,10,17.5,10.1,17.5"/>
				<path fill="#909193" d="M10,17.5l0,4.1c0,0-0.1,0-0.1,0L10,17.5C9.9,17.5,10,17.5,10,17.5"/>
				<path fill="#8B8D8F" d="M9.9,17.5l0,4.1c0,0-0.1,0-0.1,0L9.9,17.5C9.8,17.5,9.9,17.5,9.9,17.5"/>
				<path fill="#87888A" d="M9.8,17.5l0,4.1c0,0-0.1,0-0.1,0L9.8,17.5C9.7,17.5,9.8,17.5,9.8,17.5"/>
				<path fill="#838485" d="M9.7,17.4l0,4.1c0,0-0.1,0-0.1,0L9.7,17.4C9.7,17.4,9.7,17.4,9.7,17.4"/>
				<path fill="#7E7F81" d="M9.6,17.4l0,4.1c0,0-0.1,0-0.1,0l0-4.1C9.6,17.4,9.6,17.4,9.6,17.4"/>
				<path fill="#7A7B7C" d="M9.5,17.4l0,4.1c0,0-0.1,0-0.1,0l0-4.1C9.4,17.4,9.5,17.4,9.5,17.4"/>
				<path fill="#757678" d="M9.4,17.4l0,4.1c0,0,0,0,0,0L9.4,17.4C9.4,17.3,9.4,17.4,9.4,17.4"/>
			</g>
		</g>
		<g enable-background="new    ">
			<defs>
				<path id="SVGID_39_" enable-background="new    " d="M10.3,16.6C10.3,16.6,10.3,16.6,10.3,16.6c0.6,0.3,0.9,0.6,0.9,0.7
					c-0.5,0.2-1.3,0.2-1.8,0C9.4,17.2,9.7,16.9,10.3,16.6z"/>
			</defs>
			<clipPath id="SVGID_40_">
				<use xlink:href="#SVGID_39_"  overflow="visible"/>
			</clipPath>
			<g clip-path="url(#SVGID_40_)" enable-background="new    ">
				<path fill="#E5E6E9" d="M10.3,16.6C10.3,16.6,10.3,16.6,10.3,16.6c0.6,0.3,0.9,0.6,0.9,0.7c-0.5,0.2-1.3,0.2-1.8,0
					C9.4,17.2,9.7,16.9,10.3,16.6"/>
				<path fill="#E5E6E9" d="M10.3,16.6L10.3,16.6L10.3,16.6L10.3,16.6L10.3,16.6L10.3,16.6L10.3,16.6L10.3,16.6L10.3,16.6L10.3,16.6
					L10.3,16.6L10.3,16.6L10.3,16.6L10.3,16.6L10.3,16.6L10.3,16.6L10.3,16.6L10.3,16.6L10.3,16.6L10.3,16.6
					c0.5,0.3,0.8,0.5,0.9,0.6c0,0,0,0-0.1,0c0,0-0.9,0.1-0.9,0.2c0,0.1,0.6,0.1,0.9-0.1c0.1,0,0.1,0,0.1-0.1c0,0,0,0,0,0.1
					c-0.5,0.2-1.3,0.2-1.8,0C9.4,17.2,9.7,16.9,10.3,16.6"/>
				<path fill="#E1E3E6" d="M10.3,16.6L10.3,16.6L10.3,16.6L10.3,16.6L10.3,16.6L10.3,16.6L10.3,16.6L10.3,16.6L10.3,16.6L10.3,16.6
					L10.3,16.6L10.3,16.6L10.3,16.6L10.3,16.6L10.3,16.6L10.3,16.6L10.3,16.6L10.3,16.6L10.3,16.6L10.3,16.6
					c0.5,0.2,0.8,0.5,0.9,0.6c0,0,0,0-0.1,0c-0.3,0.1-0.6,0.1-0.9,0.2c0,0,0.6,0.1,1-0.1c0,0,0,0,0,0c-0.5,0.2-1.3,0.2-1.8,0
					C9.4,17.2,9.7,16.9,10.3,16.6"/>
				<path fill="#DCDEE1" d="M10.3,16.6L10.3,16.6L10.3,16.6L10.3,16.6L10.3,16.6L10.3,16.6L10.3,16.6L10.3,16.6L10.3,16.6L10.3,16.6
					L10.3,16.6L10.3,16.6L10.3,16.6L10.3,16.6L10.3,16.6L10.3,16.6L10.3,16.6L10.3,16.6L10.3,16.6L10.3,16.6
					c0.4,0.2,0.8,0.5,0.9,0.6c0,0,0,0,0,0c-0.2,0-0.4,0.1-0.6,0.1c-0.1,0-0.3,0-0.4,0.1c0.1,0.1,0.6,0.1,1.1-0.1c0,0,0,0,0,0
					c-0.5,0.2-1.3,0.2-1.8,0C9.4,17.2,9.7,16.9,10.3,16.6"/>
				<path fill="#D8DADD" d="M10.3,16.6L10.3,16.6L10.3,16.6L10.3,16.6L10.3,16.6L10.3,16.6L10.3,16.6L10.3,16.6L10.3,16.6L10.3,16.6
					L10.3,16.6L10.3,16.6L10.3,16.6L10.3,16.6L10.3,16.6L10.3,16.6L10.3,16.6L10.3,16.6L10.3,16.6L10.3,16.6
					c0.4,0.2,0.7,0.4,0.9,0.6c0,0,0,0,0,0c-0.4,0.1-0.4,0.1-0.5,0.1c-0.4,0.1-0.4,0.1-0.5,0.1c0.1,0.1,0.7,0.1,1.1-0.1c0,0,0,0,0,0
					c-0.5,0.2-1.3,0.2-1.8,0C9.4,17.2,9.7,16.9,10.3,16.6"/>
				<path fill="#D3D5D8" d="M10.3,16.6L10.3,16.6L10.3,16.6L10.3,16.6L10.3,16.6L10.3,16.6L10.3,16.6L10.3,16.6L10.3,16.6L10.3,16.6
					L10.3,16.6L10.3,16.6L10.3,16.6L10.3,16.6L10.3,16.6L10.3,16.6L10.3,16.6L10.3,16.6L10.3,16.6L10.3,16.6
					c0.4,0.2,0.7,0.4,0.8,0.6c0,0,0,0,0,0c-0.3,0.1-0.6,0.1-0.6,0.1c-0.4,0.1-0.4,0.1-0.4,0.1c0.1,0,0.6,0.1,1.1-0.1c0,0,0,0,0,0
					c-0.5,0.2-1.3,0.2-1.8,0C9.4,17.2,9.7,16.9,10.3,16.6"/>
				<path fill="#CFD1D4" d="M10.3,16.6L10.3,16.6L10.3,16.6L10.3,16.6L10.3,16.6L10.3,16.6L10.3,16.6L10.3,16.6L10.3,16.6L10.3,16.6
					L10.3,16.6L10.3,16.6L10.3,16.6L10.3,16.6L10.3,16.6L10.3,16.6L10.3,16.6L10.3,16.6L10.3,16.6L10.3,16.6
					c0.4,0.2,0.7,0.4,0.8,0.6c0,0,0,0,0,0c-0.2,0-0.4,0.1-0.6,0.1C10,17.4,10,17.4,10,17.4c0,0,0.6,0.1,1.1-0.1c0,0,0,0,0,0
					c-0.5,0.2-1.3,0.2-1.8,0C9.4,17.2,9.7,16.9,10.3,16.6"/>
				<path fill="#CBCCCF" d="M10.3,16.6L10.3,16.6L10.3,16.6L10.3,16.6L10.3,16.6L10.3,16.6L10.3,16.6L10.3,16.6L10.3,16.6L10.3,16.6
					L10.3,16.6L10.3,16.6L10.3,16.6L10.3,16.6L10.3,16.6L10.3,16.6L10.3,16.6L10.3,16.6L10.3,16.6L10.3,16.6
					c0.4,0.2,0.6,0.4,0.8,0.5c0,0,0,0,0,0c-0.1,0-0.3,0.1-0.4,0.1C10,17.4,10,17.4,10,17.4c0,0,0.6,0.2,1.2-0.1c0,0,0,0,0,0
					c-0.5,0.2-1.3,0.2-1.8,0C9.4,17.2,9.7,16.9,10.3,16.6"/>
				<path fill="#C6C8CA" d="M10.3,16.6L10.3,16.6L10.3,16.6L10.3,16.6L10.3,16.6L10.3,16.6L10.3,16.6L10.3,16.6L10.3,16.6L10.3,16.6
					L10.3,16.6L10.3,16.6L10.3,16.6L10.3,16.6L10.3,16.6L10.3,16.6L10.3,16.6L10.3,16.6L10.3,16.6L10.3,16.6
					c0.3,0.2,0.6,0.3,0.8,0.5c0,0,0,0,0,0c-0.3,0.1-0.6,0.1-0.9,0.2c0,0-0.1,0-0.1,0c0,0,0,0,0,0c0,0,0.6,0.2,1.2-0.1c0,0,0,0,0,0
					c-0.5,0.2-1.3,0.2-1.8,0C9.4,17.2,9.7,16.9,10.3,16.6"/>
				<path fill="#C2C3C6" d="M10.3,16.6L10.3,16.6L10.3,16.6L10.3,16.6L10.3,16.6L10.3,16.6L10.3,16.6L10.3,16.6L10.3,16.6L10.3,16.6
					L10.3,16.6L10.3,16.6L10.3,16.6L10.3,16.6L10.3,16.6L10.3,16.6L10.3,16.6L10.3,16.6L10.3,16.6L10.3,16.6
					c0.3,0.2,0.5,0.3,0.7,0.4c0,0,0,0,0,0c0,0-1,0.3-1,0.3c0,0,0,0,0,0c0,0,0.6,0.2,1.3-0.1c0,0,0,0,0,0c-0.5,0.2-1.3,0.2-1.8,0
					C9.4,17.2,9.7,16.9,10.3,16.6"/>
				<path fill="#BDBFC1" d="M10.3,16.6L10.3,16.6L10.3,16.6L10.3,16.6L10.3,16.6L10.3,16.6L10.3,16.6L10.3,16.6L10.3,16.6L10.3,16.6
					L10.3,16.6L10.3,16.6L10.3,16.6L10.3,16.6L10.3,16.6L10.3,16.6L10.3,16.6L10.3,16.6L10.3,16.6L10.3,16.6
					c0.3,0.1,0.5,0.3,0.6,0.4c0,0,0,0,0,0c-0.2,0-1,0.3-1,0.4c0,0.1,0.7,0.2,1.3-0.1c0,0,0,0,0,0c-0.5,0.2-1.3,0.2-1.8,0
					C9.4,17.2,9.7,16.9,10.3,16.6"/>
				<path fill="#B9BABD" d="M10.3,16.6L10.3,16.6L10.3,16.6L10.3,16.6L10.3,16.6L10.3,16.6L10.3,16.6L10.3,16.6L10.3,16.6L10.3,16.6
					L10.3,16.6L10.3,16.6L10.3,16.6L10.3,16.6L10.3,16.6L10.3,16.6L10.3,16.6L10.3,16.6L10.3,16.6L10.3,16.6
					c0.2,0.1,0.4,0.2,0.5,0.3c0,0,0,0,0,0c-0.1,0-1.1,0.3-0.9,0.5c0.1,0.1,0.8,0.2,1.3-0.1c-0.5,0.2-1.3,0.2-1.8,0
					C9.4,17.2,9.7,16.9,10.3,16.6"/>
				<path fill="#B4B6B8" d="M10.3,16.6L10.3,16.6L10.3,16.6L10.3,16.6L10.3,16.6L10.3,16.6L10.3,16.6L10.3,16.6L10.3,16.6L10.3,16.6
					L10.3,16.6L10.3,16.6L10.3,16.6L10.3,16.6L10.3,16.6L10.3,16.6L10.3,16.6L10.3,16.6L10.3,16.6L10.3,16.6
					c0.1,0.1,0.3,0.1,0.4,0.2c0,0,0,0,0,0c0,0-0.1,0-0.1,0c0,0-0.6,0.4-0.6,0.4c-0.1,0-0.1,0.1,0,0.1c0.2,0.1,0.8,0.2,1.4-0.1
					c-0.5,0.2-1.3,0.2-1.8,0C9.4,17.2,9.7,16.9,10.3,16.6"/>
				<path fill="#B0B1B3" d="M10.3,16.6L10.3,16.6L10.3,16.6L10.3,16.6L10.3,16.6L10.3,16.6L10.3,16.6L10.3,16.6L10.3,16.6L10.3,16.6
					L10.3,16.6L10.3,16.6L10.3,16.6L10.3,16.6L10.3,16.6L10.3,16.6L10.3,16.6L10.3,16.6L10.3,16.6L10.3,16.6c0,0,0.1,0,0.1,0.1
					c0,0,0,0,0,0C10.3,16.7,10.3,16.7,10.3,16.6c0,0.1,0,0.2-0.1,0.3C10,17,9.9,17.1,9.7,17.2c0,0-0.1,0.1,0,0.1
					c0.1,0.1,0.9,0.2,1.5,0c-0.5,0.2-1.3,0.2-1.8,0C9.4,17.2,9.7,16.9,10.3,16.6"/>
				<path fill="#ABADAF" d="M10.3,16.6L10.3,16.6L10.3,16.6L10.3,16.6L10.3,16.6L10.3,16.6L10.3,16.6L10.3,16.6L10.3,16.6L10.3,16.6
					L10.3,16.6L10.3,16.6L10.3,16.6L10.3,16.6L10.3,16.6L10.3,16.6L10.3,16.6L10.3,16.6L10.3,16.6L10.3,16.6
					C10.3,16.6,10.3,16.6,10.3,16.6C10.3,16.6,10.3,16.6,10.3,16.6C10.3,16.6,10.3,16.6,10.3,16.6C10.3,16.6,10.3,16.6,10.3,16.6
					C10.2,16.7,10.2,16.7,10.3,16.6c0,0.1-0.1,0.2-0.3,0.4c-0.3,0.2-0.3,0.2-0.3,0.3c0,0.1,0.4,0.2,0.5,0.2c0.1,0,0.3,0,0.5,0
					c-0.4,0.1-0.9,0-1.3-0.1C9.4,17.2,9.7,16.9,10.3,16.6"/>
				<path fill="#A7A8AA" d="M10.3,16.6L10.3,16.6L10.3,16.6L10.3,16.6L10.3,16.6L10.3,16.6L10.3,16.6L10.3,16.6L10.3,16.6L10.3,16.6
					L10.3,16.6L10.3,16.6L10.3,16.6L10.3,16.6L10.3,16.6L10.3,16.6L10.3,16.6L10.3,16.6L10.3,16.6L10.3,16.6
					C10.3,16.6,10.3,16.6,10.3,16.6C10.3,16.6,10.3,16.6,10.3,16.6C10.3,16.6,10.3,16.6,10.3,16.6c-0.1,0-0.6,0.4-0.7,0.5
					c-0.1,0.1,0,0.2,0,0.2c0.1,0.1,0.4,0.2,0.9,0.1c-0.4,0-0.8,0-1.1-0.1C9.4,17.2,9.7,16.9,10.3,16.6"/>
				<path fill="#A2A3A6" d="M10.3,16.6C10.3,16.6,10.3,16.6,10.3,16.6L10.3,16.6C10.3,16.6,10.3,16.6,10.3,16.6L10.3,16.6
					C10.3,16.6,10.3,16.6,10.3,16.6L10.3,16.6C10.3,16.6,10.3,16.6,10.3,16.6L10.3,16.6C10.3,16.6,10.3,16.6,10.3,16.6L10.3,16.6
					C10.3,16.6,10.3,16.6,10.3,16.6L10.3,16.6L10.3,16.6L10.3,16.6L10.3,16.6L10.3,16.6L10.3,16.6L10.3,16.6L10.3,16.6
					C10.3,16.6,10.3,16.6,10.3,16.6C10.3,16.6,10.3,16.6,10.3,16.6C10.2,16.6,10.2,16.7,10.3,16.6C10.2,16.7,10.2,16.7,10.3,16.6
					C10.2,16.6,10.2,16.6,10.3,16.6"/>
				<g>
					<polyline fill="#9D9FA1" points="10.3,16.6 10.3,16.6 10.3,16.6 10.3,16.6 10.3,16.6 10.3,16.6 10.3,16.6 10.3,16.6 10.3,16.6 
						10.3,16.6 10.3,16.6 10.3,16.6 10.3,16.6 10.3,16.6 					"/>
					<path fill="#9D9FA1" d="M10.3,16.6C10.3,16.6,10.3,16.6,10.3,16.6L10.3,16.6L10.3,16.6L10.3,16.6
						C10.2,16.6,10.2,16.7,10.3,16.6C10.2,16.7,10.2,16.7,10.3,16.6C10.2,16.6,10.2,16.6,10.3,16.6"/>
				</g>
				<path fill="#999A9C" d="M10.3,16.6C10.3,16.6,10.3,16.6,10.3,16.6C10.3,16.6,10.3,16.6,10.3,16.6C10.3,16.6,10.3,16.6,10.3,16.6
					C10.2,16.6,10.2,16.7,10.3,16.6C10.2,16.6,10.2,16.6,10.3,16.6C10.2,16.6,10.2,16.6,10.3,16.6"/>
				<path fill="#959698" d="M10.3,16.6C10.3,16.6,10.3,16.6,10.3,16.6C10.3,16.6,10.3,16.6,10.3,16.6C10.3,16.6,10.3,16.6,10.3,16.6
					C10.2,16.6,10.2,16.6,10.3,16.6C10.2,16.6,10.2,16.6,10.3,16.6C10.2,16.6,10.2,16.6,10.3,16.6"/>
				<path fill="#909193" d="M10.3,16.6C10.3,16.6,10.3,16.6,10.3,16.6C10.3,16.6,10.3,16.6,10.3,16.6C10.3,16.6,10.3,16.6,10.3,16.6
					C10.3,16.6,10.2,16.6,10.3,16.6C10.2,16.6,10.2,16.6,10.3,16.6C10.2,16.6,10.2,16.6,10.3,16.6C10.2,16.6,10.2,16.6,10.3,16.6"/>
				<path fill="#8B8D8F" d="M10.3,16.6C10.3,16.6,10.3,16.6,10.3,16.6C10.3,16.6,10.3,16.6,10.3,16.6C10.3,16.6,10.2,16.6,10.3,16.6
					C10.2,16.6,10.2,16.6,10.3,16.6C10.2,16.6,10.3,16.6,10.3,16.6"/>
				<path fill="#87888A" d="M10.3,16.6C10.3,16.6,10.3,16.6,10.3,16.6C10.3,16.6,10.3,16.6,10.3,16.6C10.3,16.6,10.3,16.6,10.3,16.6
					C10.2,16.6,10.2,16.6,10.3,16.6C10.2,16.6,10.3,16.6,10.3,16.6"/>
				<path fill="#838485" d="M10.3,16.6C10.3,16.6,10.3,16.6,10.3,16.6L10.3,16.6C10.3,16.6,10.2,16.6,10.3,16.6
					C10.2,16.6,10.3,16.6,10.3,16.6"/>
				<polyline fill="#7E7F81" points="10.3,16.6 10.3,16.6 10.3,16.6 10.2,16.6 10.3,16.6 				"/>
				<polyline fill="#7A7B7C" points="10.3,16.6 10.3,16.6 10.3,16.6 10.3,16.6 				"/>
				<polyline fill="#757678" points="10.3,16.6 10.3,16.6 10.3,16.6 10.3,16.6 				"/>
				<path fill="#E6E8EA" d="M10.2,17.4c0.1,0,0.9-0.1,0.9-0.1c0,0,0,0,0,0C11,17.4,10.3,17.5,10.2,17.4
					C10.2,17.4,10.2,17.4,10.2,17.4C10.2,17.4,10.2,17.4,10.2,17.4"/>
				<path fill="#E7E9EB" d="M10.3,17.4c0.1,0,0.8-0.1,0.8-0.1c0,0,0,0,0,0C11,17.4,10.3,17.5,10.3,17.4
					C10.2,17.4,10.2,17.4,10.3,17.4C10.2,17.4,10.3,17.4,10.3,17.4"/>
				<path fill="#E8EAEC" d="M10.3,17.4c0.1,0,0.8-0.1,0.8-0.1c0,0,0,0,0,0c0,0-0.1,0.1-0.4,0.1C10.4,17.5,10.2,17.4,10.3,17.4
					C10.2,17.4,10.2,17.4,10.3,17.4C10.2,17.4,10.3,17.4,10.3,17.4"/>
				<path fill="#E9EBED" d="M10.3,17.4c0.1,0,0.8-0.1,0.8-0.1c0,0,0,0,0,0c0,0-0.1,0.1-0.3,0.1C10.4,17.5,10.3,17.4,10.3,17.4
					C10.3,17.4,10.3,17.4,10.3,17.4C10.3,17.4,10.3,17.4,10.3,17.4"/>
				<path fill="#A2A3A6" d="M9.4,17.2c0.1,0.2,0.5,0.3,0.9,0.3c-0.4,0-0.7,0-1-0.2C9.4,17.3,9.4,17.3,9.4,17.2"/>
				<path fill="#EAEBED" d="M10.3,17.4c0,0,0.7-0.1,0.7-0.1c0,0,0,0,0,0c0,0-0.1,0.1-0.3,0.1C10.4,17.5,10.3,17.4,10.3,17.4
					C10.3,17.4,10.3,17.4,10.3,17.4"/>
				<path fill="#EBECEE" d="M10.3,17.4c0,0,0.6-0.1,0.7-0.1c0,0,0,0,0,0C10.7,17.5,10.3,17.4,10.3,17.4
					C10.3,17.4,10.3,17.4,10.3,17.4"/>
				<path fill="#9D9FA1" d="M9.4,17.2C9.4,17.2,9.4,17.3,9.4,17.2c0.1,0.1,0.2,0.1,0.3,0.2c0.1,0,0.3,0.1,0.6,0.1
					C9.9,17.5,9.6,17.4,9.4,17.2C9.4,17.3,9.4,17.3,9.4,17.2"/>
				<path fill="#EBEDEE" d="M10.3,17.4C10.3,17.4,10.3,17.4,10.3,17.4c0,0,0.5-0.1,0.5-0.1c0.1,0,0.1,0,0.1,0
					C10.6,17.5,10.3,17.4,10.3,17.4C10.3,17.4,10.3,17.4,10.3,17.4"/>
				<path fill="#999A9C" d="M9.4,17.3C9.4,17.3,9.4,17.3,9.4,17.3c0.1,0,0.3,0.2,0.8,0.2C9.9,17.5,9.6,17.4,9.4,17.3
					C9.4,17.3,9.4,17.3,9.4,17.3"/>
				<path fill="#ECEDEF" d="M10.4,17.4c0,0,0.4-0.1,0.5-0.1c0.1,0,0.1,0,0.1,0C10.8,17.4,10.6,17.5,10.4,17.4
					C10.3,17.4,10.3,17.4,10.4,17.4"/>
				<path fill="#ECEEEF" d="M10.4,17.4c0,0,0.3,0,0.5-0.1c0,0,0,0,0.1,0C10.8,17.4,10.6,17.5,10.4,17.4
					C10.4,17.4,10.4,17.4,10.4,17.4"/>
				<path fill="#959698" d="M9.4,17.3C9.4,17.3,9.4,17.3,9.4,17.3c0.2,0.1,0.4,0.2,0.7,0.2C9.8,17.5,9.6,17.4,9.4,17.3
					C9.4,17.3,9.4,17.3,9.4,17.3"/>
				<path fill="#EDEEF0" d="M10.4,17.4c0,0,0.4-0.1,0.5-0.1C10.7,17.5,10.5,17.5,10.4,17.4C10.4,17.4,10.4,17.4,10.4,17.4"/>
				<path fill="#909193" d="M9.4,17.3C9.4,17.3,9.4,17.3,9.4,17.3c0.1,0.1,0.3,0.1,0.6,0.2C9.8,17.5,9.5,17.4,9.4,17.3
					C9.4,17.3,9.4,17.3,9.4,17.3"/>
				<path fill="#EDEFF0" d="M10.4,17.4c0,0,0.4-0.1,0.4,0C10.7,17.5,10.5,17.4,10.4,17.4C10.4,17.4,10.4,17.4,10.4,17.4"/>
				<path fill="#EEEFF1" d="M10.4,17.4c0,0,0.3-0.1,0.4,0C10.8,17.4,10.6,17.5,10.4,17.4C10.4,17.4,10.4,17.4,10.4,17.4"/>
				<path fill="#8B8D8F" d="M9.4,17.3C9.4,17.3,9.4,17.3,9.4,17.3c0.2,0.1,0.4,0.2,0.5,0.2C9.7,17.5,9.5,17.4,9.4,17.3
					C9.4,17.3,9.4,17.3,9.4,17.3"/>
				<path fill="#EEF0F1" d="M10.4,17.4c0.1,0,0.3-0.1,0.4-0.1C10.7,17.4,10.5,17.4,10.4,17.4C10.4,17.4,10.4,17.4,10.4,17.4"/>
				<path fill="#87888A" d="M9.4,17.3C9.4,17.3,9.4,17.3,9.4,17.3c0.1,0,0.2,0.1,0.4,0.2C9.6,17.4,9.5,17.4,9.4,17.3
					C9.4,17.3,9.4,17.3,9.4,17.3"/>
				<path fill="#EFF0F2" d="M10.5,17.4c0,0,0.2,0,0.3,0C10.7,17.4,10.5,17.4,10.5,17.4C10.5,17.4,10.5,17.4,10.5,17.4"/>
				<path fill="#838485" d="M9.4,17.3C9.4,17.3,9.4,17.3,9.4,17.3c0.1,0.1,0.2,0.1,0.4,0.1C9.6,17.4,9.5,17.4,9.4,17.3
					C9.4,17.3,9.4,17.3,9.4,17.3"/>
				<path fill="#EFF0F2" d="M10.5,17.4c0,0,0.1,0,0.3,0C10.7,17.4,10.6,17.4,10.5,17.4C10.5,17.4,10.5,17.4,10.5,17.4"/>
				<path fill="#7E7F81" d="M9.4,17.3C9.4,17.3,9.4,17.3,9.4,17.3c0.1,0,0.1,0.1,0.3,0.1C9.5,17.4,9.4,17.4,9.4,17.3
					C9.4,17.3,9.4,17.3,9.4,17.3"/>
				<path fill="#F0F1F2" d="M10.6,17.4c0.1,0,0.1,0,0.2,0C10.7,17.4,10.6,17.4,10.6,17.4C10.5,17.4,10.6,17.4,10.6,17.4"/>
				<path fill="#7A7B7C" d="M9.4,17.3C9.4,17.3,9.4,17.3,9.4,17.3c0.1,0,0.1,0.1,0.2,0.1C9.5,17.4,9.4,17.4,9.4,17.3
					C9.4,17.3,9.4,17.3,9.4,17.3"/>
				<path fill="#F0F1F3" d="M10.6,17.4c0,0,0.1,0,0.1,0C10.7,17.4,10.6,17.4,10.6,17.4C10.6,17.4,10.6,17.4,10.6,17.4"/>
				<path fill="#757678" d="M9.4,17.3C9.4,17.3,9.4,17.4,9.4,17.3C9.4,17.4,9.4,17.3,9.4,17.3C9.4,17.3,9.4,17.3,9.4,17.3"/>
			</g>
		</g>
	</g>
</g>
<g>
	<g>
		<polygon fill="#393939" stroke="#9FA0A0" stroke-width="0.25" stroke-miterlimit="10" points="9.1,17.7 9.1,20.8 0.7,17.3 
			0.7,14.1 		"/>
	</g>
</g>
<polygon fill="#03FF03" points="7.3,17.5 8.4,18.1 8.4,19.1 7.3,18.6 "/>
<g>
	<g>
		<polygon fill="#409EFF" points="5.3,0.9 0.3,1.5 0.3,5.8 5.3,5.8 		"/>
		<polygon fill="#409EFF" points="6.3,0.7 6.3,5.8 12.3,5.8 12.3,0 		"/>
	</g>
	<g>
		<polygon fill="#409EFF" points="5.3,6.8 0.3,6.8 0.3,11.6 5.3,12.2 		"/>
		<polygon fill="#409EFF" points="6.3,6.8 6.3,12.4 12.3,13.1 12.3,6.8 		"/>
	</g>
</g>
</svg>