<!-- Generator: Adobe Illustrator 18.0.0, SVG Export Plug-In  -->
<svg version="1.1"
	 xmlns="http://www.w3.org/2000/svg" xmlns:xlink="http://www.w3.org/1999/xlink" xmlns:a="http://ns.adobe.com/AdobeSVGViewerExtensions/3.0/"
	 x="0px" y="0px" width="25.1px" height="14.9px" viewBox="0 0 25.1 14.9" enable-background="new 0 0 25.1 14.9"
	 xml:space="preserve">
<defs>
</defs>
<g>
	<g>
		<g enable-background="new    ">
			<g enable-background="new    ">
				<defs>
					<path id="SVGID_1_" enable-background="new    " d="M14.8,5C14.8,5,14.8,5,14.8,5C14.8,5,14.8,5,14.8,5
						c0.4,0.2,0.8,0.4,1.3,0.6c-0.7,0.3-1.9,0.3-2.5,0C14,5.4,14.5,5.2,14.8,5z"/>
				</defs>
				<clipPath id="SVGID_2_">
					<use xlink:href="#SVGID_1_"  overflow="visible"/>
				</clipPath>
				<g clip-path="url(#SVGID_2_)" enable-background="new    ">
					<path fill="#ABADAF" d="M14.8,5c0.4,0.2,0.8,0.4,1.3,0.6c-0.7,0.3-1.9,0.3-2.5,0C14,5.4,14.5,5.2,14.8,5"/>
					<path fill="#ABADAF" d="M14.8,5L14.8,5L14.8,5L14.8,5L14.8,5L14.8,5L14.8,5L14.8,5L14.8,5L14.8,5L14.8,5L14.8,5L14.8,5L14.8,5
						L14.8,5L14.8,5L14.8,5L14.8,5L14.8,5L14.8,5C14.8,5,14.9,5,14.8,5C14.9,5,14.9,5,14.8,5c0.1,0,0.1,0.1,0.1,0.1
						C14.9,5.1,14.8,5.1,14.8,5c0,0.1,0.1,0.2,0.2,0.2c0,0,0,0,0,0c0.3,0.2,0.7,0.3,1,0.5c-0.7,0.3-1.9,0.3-2.5,0
						C14,5.4,14.5,5.2,14.8,5"/>
					<path fill="#A7A8AA" d="M14.8,5L14.8,5L14.8,5L14.8,5L14.8,5L14.8,5L14.8,5L14.8,5L14.8,5L14.8,5L14.8,5L14.8,5L14.8,5L14.8,5
						L14.8,5L14.8,5L14.8,5L14.8,5L14.8,5L14.8,5C14.8,5,14.9,5,14.8,5C14.9,5,14.9,5,14.8,5C14.9,5,14.9,5.1,14.8,5
						c-0.1,0.1-0.1,0.1-0.2,0.2c0,0-0.1,0.1,0.1,0.2c0.2,0.1,0.5,0.1,0.8,0c0.2,0.1,0.4,0.2,0.6,0.3c-0.7,0.3-1.9,0.3-2.5,0
						C14,5.4,14.5,5.2,14.8,5"/>
					<path fill="#A2A3A6" d="M14.8,5L14.8,5C14.8,5,14.8,5,14.8,5L14.8,5L14.8,5L14.8,5L14.8,5L14.8,5L14.8,5L14.8,5L14.8,5L14.8,5
						L14.8,5L14.8,5L14.8,5L14.8,5L14.8,5L14.8,5L14.8,5L14.8,5L14.8,5C14.8,5,14.8,5,14.8,5C14.9,5,14.9,5,14.8,5
						C14.9,5,14.9,5,14.8,5C14.8,5.1,14.8,5.1,14.8,5C14.7,5.1,14.8,5.1,14.8,5C14.8,5,14.8,5,14.8,5"/>
					<path fill="#9D9FA1" d="M14.8,5C14.8,5,14.8,5,14.8,5L14.8,5L14.8,5L14.8,5L14.8,5L14.8,5L14.8,5L14.8,5L14.8,5L14.8,5L14.8,5
						L14.8,5L14.8,5L14.8,5L14.8,5L14.8,5C14.8,5,14.8,5,14.8,5L14.8,5C14.8,5,14.8,5,14.8,5C14.8,5,14.8,5,14.8,5
						C14.9,5,14.9,5,14.8,5C14.8,5.1,14.8,5,14.8,5C14.8,5,14.8,5,14.8,5C14.8,5,14.8,5,14.8,5"/>
					<path fill="#999A9C" d="M14.8,5C14.8,5,14.8,5,14.8,5L14.8,5C14.8,5,14.8,5,14.8,5L14.8,5L14.8,5L14.8,5L14.8,5L14.8,5L14.8,5
						L14.8,5L14.8,5L14.8,5L14.8,5L14.8,5C14.8,5,14.8,5,14.8,5L14.8,5C14.8,5,14.8,5,14.8,5L14.8,5C14.8,5,14.8,5,14.8,5
						C14.8,5,14.8,5,14.8,5C14.9,5,14.9,5,14.8,5C14.8,5,14.8,5,14.8,5C14.8,5,14.8,5,14.8,5C14.8,5,14.8,5,14.8,5"/>
					<path fill="#959698" d="M14.8,5C14.8,5,14.8,5,14.8,5L14.8,5C14.8,5,14.8,5,14.8,5L14.8,5L14.8,5L14.8,5L14.8,5L14.8,5L14.8,5
						L14.8,5L14.8,5L14.8,5L14.8,5L14.8,5C14.8,5,14.8,5,14.8,5L14.8,5C14.8,5,14.8,5,14.8,5L14.8,5C14.8,5,14.8,5,14.8,5
						C14.8,5,14.8,5,14.8,5C14.9,5,14.9,5,14.8,5C14.8,5,14.8,5,14.8,5C14.8,5,14.8,5,14.8,5C14.8,5,14.8,5,14.8,5"/>
					<path fill="#909193" d="M14.8,5C14.8,5,14.8,5,14.8,5L14.8,5C14.8,5,14.8,5,14.8,5L14.8,5C14.8,5,14.8,5,14.8,5L14.8,5L14.8,5
						L14.8,5L14.8,5L14.8,5L14.8,5L14.8,5C14.8,5,14.8,5,14.8,5L14.8,5C14.8,5,14.8,5,14.8,5L14.8,5C14.8,5,14.8,5,14.8,5L14.8,5
						C14.8,5,14.8,5,14.8,5C14.8,5,14.8,5,14.8,5C14.8,5,14.8,5,14.8,5C14.8,5,14.8,5,14.8,5C14.8,5,14.8,5,14.8,5
						C14.8,5,14.8,5,14.8,5"/>
					<path fill="#8B8D8F" d="M14.8,5C14.8,5,14.8,5,14.8,5L14.8,5C14.8,5,14.8,5,14.8,5L14.8,5C14.8,5,14.8,5,14.8,5L14.8,5L14.8,5
						L14.8,5L14.8,5L14.8,5L14.8,5L14.8,5C14.8,5,14.8,5,14.8,5L14.8,5C14.8,5,14.8,5,14.8,5L14.8,5C14.8,5,14.8,5,14.8,5L14.8,5
						C14.8,5,14.8,5,14.8,5C14.8,5,14.8,5,14.8,5C14.8,5,14.8,5,14.8,5C14.8,5,14.8,5,14.8,5C14.8,5,14.8,5,14.8,5"/>
					<path fill="#87888A" d="M14.8,5L14.8,5C14.8,5,14.8,5,14.8,5L14.8,5C14.8,5,14.8,5,14.8,5L14.8,5C14.8,5,14.8,5,14.8,5L14.8,5
						L14.8,5L14.8,5L14.8,5L14.8,5L14.8,5L14.8,5C14.8,5,14.8,5,14.8,5L14.8,5C14.8,5,14.8,5,14.8,5L14.8,5C14.8,5,14.8,5,14.8,5
						L14.8,5C14.8,5,14.8,5,14.8,5C14.8,5,14.8,5,14.8,5C14.8,5,14.8,5,14.8,5C14.8,5,14.8,5,14.8,5C14.8,5,14.8,5,14.8,5"/>
					<path fill="#838485" d="M14.8,5C14.8,5,14.8,5,14.8,5L14.8,5C14.8,5,14.8,5,14.8,5L14.8,5C14.8,5,14.8,5,14.8,5L14.8,5
						C14.8,5,14.8,5,14.8,5L14.8,5L14.8,5L14.8,5C14.8,5,14.8,5,14.8,5L14.8,5C14.8,5,14.8,5,14.8,5L14.8,5C14.8,5,14.8,5,14.8,5
						L14.8,5C14.8,5,14.8,5,14.8,5L14.8,5C14.8,5,14.8,5,14.8,5C14.8,5,14.8,5,14.8,5C14.8,5,14.8,5,14.8,5C14.8,5,14.8,5,14.8,5
						C14.8,5,14.8,5,14.8,5"/>
					<g>
						<polyline fill="#7E7F81" points="14.8,5 14.8,5 14.8,5 14.8,5 						"/>
						<path fill="#7E7F81" d="M14.8,5C14.8,5,14.8,5,14.8,5L14.8,5C14.8,5,14.8,5,14.8,5L14.8,5C14.8,5,14.8,5,14.8,5L14.8,5
							C14.8,5,14.8,5,14.8,5L14.8,5L14.8,5L14.8,5C14.8,5,14.8,5,14.8,5L14.8,5L14.8,5L14.8,5C14.8,5,14.8,5,14.8,5
							C14.8,5,14.8,5,14.8,5"/>
					</g>
					<g>
						<polyline fill="#7A7B7C" points="14.8,5 14.8,5 14.8,5 14.8,5 						"/>
						<polyline fill="#7A7B7C" points="14.8,5 14.8,5 14.8,5 14.8,5 						"/>
					</g>
				</g>
			</g>
			<g enable-background="new    ">
				<defs>
					<path id="SVGID_3_" enable-background="new    " d="M14.8,0.3C14.8,0.3,14.8,0.3,14.8,0.3c-0.4-0.1-0.7-0.2-0.9-0.1
						C14,0.1,14.3,0,14.8,0c0.2,0,0.4,0,0.4,0c0.2,0,0.3,0.1,0.4,0.1C15.5,0.1,15.2,0.2,14.8,0.3C14.8,0.3,14.8,0.3,14.8,0.3z"/>
				</defs>
				<clipPath id="SVGID_4_">
					<use xlink:href="#SVGID_3_"  overflow="visible"/>
				</clipPath>
				<g clip-path="url(#SVGID_4_)" enable-background="new    ">
					<path fill="#9D9FA1" d="M14.8,0.3c-0.4-0.1-0.7-0.2-0.9-0.1c0.5-0.2,1.2-0.2,1.7,0C15.5,0.1,15.2,0.2,14.8,0.3
						C14.8,0.3,14.8,0.3,14.8,0.3"/>
					<path fill="#9D9FA1" d="M15.1,0.2c-0.1,0-0.1,0-0.3,0.1l0,0l0,0l0,0l0,0l0,0l0,0l0,0l0,0l0,0l0,0l0,0l0,0l0,0l0,0l0,0l0,0l0,0
						l0,0c-0.4-0.1-0.7-0.2-0.9-0.1c0,0,0.1,0,0.1,0c0,0,0.1,0,0.1,0l0.1,0c0,0,0.1,0,0.1,0l0.1,0c0,0,0.1,0,0.1,0l0.1,0
						c0,0,0.1,0,0.1,0l0.1,0c0,0,0.1,0,0.1,0l0.1,0c0,0,0.1,0,0.1,0l0.1,0c0,0,0.1,0,0.1,0l0.1,0c0,0,0.1,0,0.1,0l0.1,0
						c0,0,0.1,0,0.1,0l0.1,0c0,0,0.1,0,0.1,0C15.6,0.1,15.4,0.1,15.1,0.2"/>
					<path fill="#999A9C" d="M15.4,0.1c-0.6,0-0.6,0.1-0.6,0.1c0,0,0,0,0,0c0,0,0,0,0,0l0,0l0,0l0,0l0,0l0,0l0,0l0,0l0,0l0,0l0,0
						l0,0l0,0l0,0l0,0l0,0l0,0l0,0l0,0c-0.4-0.1-0.7-0.2-0.9-0.1c0,0,0.1,0,0.1,0c0,0,0.1,0,0.1,0l0.1,0c0,0,0.1,0,0.1,0l0.1,0
						c0,0,0.1,0,0.1,0l0.1,0c0,0,0.1,0,0.1,0l0.1,0c0,0,0.1,0,0.1,0l0.1,0c0,0,0.1,0,0.1,0l0.1,0c0,0,0.1,0,0.1,0l0.1,0
						c0,0,0.1,0,0.1,0L15.4,0.1C15.4,0.1,15.5,0.1,15.4,0.1l0.1,0c0,0,0.1,0,0.1,0C15.6,0.1,15.5,0.1,15.4,0.1"/>
					<path fill="#959698" d="M15.5,0.1c-0.4-0.1-0.4-0.1-0.5,0c-0.2,0-0.3,0-0.3,0.1c0,0,0,0-0.1,0c-0.3-0.1-0.6-0.1-0.7-0.1
						c0,0,0.1,0,0.1,0c0,0,0.1,0,0.1,0l0.1,0c0,0,0.1,0,0.1,0l0.1,0c0,0,0.1,0,0.1,0l0.1,0c0,0,0.1,0,0.1,0l0.1,0c0,0,0.1,0,0.1,0
						l0.1,0c0,0,0.1,0,0.1,0l0.1,0c0,0,0.1,0,0.1,0l0.1,0c0,0,0.1,0,0.1,0l0.1,0C15.4,0.1,15.5,0.1,15.5,0.1L15.5,0.1
						c0,0,0.1,0,0.1,0C15.6,0.1,15.6,0.1,15.5,0.1"/>
					<path fill="#959698" d="M14.8,0.3C14.8,0.3,14.8,0.3,14.8,0.3L14.8,0.3C14.8,0.3,14.8,0.3,14.8,0.3L14.8,0.3L14.8,0.3L14.8,0.3
						L14.8,0.3L14.8,0.3C14.8,0.3,14.8,0.3,14.8,0.3L14.8,0.3C14.8,0.3,14.8,0.3,14.8,0.3L14.8,0.3C14.8,0.3,14.8,0.3,14.8,0.3
						L14.8,0.3C14.8,0.3,14.8,0.3,14.8,0.3C14.8,0.3,14.8,0.3,14.8,0.3C14.8,0.3,14.8,0.3,14.8,0.3C14.8,0.3,14.8,0.3,14.8,0.3
						C14.8,0.3,14.8,0.3,14.8,0.3C14.8,0.3,14.8,0.3,14.8,0.3L14.8,0.3L14.8,0.3"/>
					<polyline fill="#909193" points="14.8,0.3 14.8,0.3 14.8,0.3 14.8,0.3 14.8,0.3 14.8,0.3 14.8,0.3 14.8,0.3 14.8,0.3 14.8,0.3 
						14.8,0.3 14.8,0.3 14.8,0.3 					"/>
					<path fill="#909193" d="M15.6,0.1c-0.5-0.1-0.7-0.1-1.2,0c-0.2,0-0.4-0.1-0.5,0c0,0,0.1,0,0.1,0c0,0,0.1,0,0.1,0l0.1,0
						c0,0,0.1,0,0.1,0l0.1,0c0,0,0.1,0,0.1,0l0.1,0c0,0,0.1,0,0.1,0l0.1,0c0,0,0.1,0,0.1,0l0.1,0c0,0,0.1,0,0.1,0l0.1,0
						c0,0,0.1,0,0.1,0l0.1,0c0,0,0.1,0,0.1,0l0.1,0c0,0,0.1,0,0.1,0L15.6,0.1C15.6,0.1,15.6,0.1,15.6,0.1
						C15.6,0.1,15.6,0.1,15.6,0.1"/>
					<path fill="#8B8D8F" d="M15.6,0.1c-0.3-0.1-0.8-0.2-1.4,0c-0.1,0-0.2,0-0.3,0c0,0,0.1,0,0.1,0c0,0,0.1,0,0.1,0l0.1,0
						c0,0,0.1,0,0.1,0l0.1,0c0,0,0.1,0,0.1,0l0.1,0c0,0,0.1,0,0.1,0l0.1,0c0,0,0.1,0,0.1,0l0.1,0c0,0,0.1,0,0.1,0l0.1,0
						c0,0,0.1,0,0.1,0l0.1,0c0,0,0.1,0,0.1,0l0.1,0c0,0,0.1,0,0.1,0L15.6,0.1C15.6,0.1,15.6,0.1,15.6,0.1
						C15.6,0.2,15.6,0.1,15.6,0.1"/>
					<path fill="#87888A" d="M15.6,0.1c-0.5-0.1-1-0.1-1.4,0c-0.1,0-0.2,0-0.2,0c0,0,0.1,0,0.1,0c0,0,0.1,0,0.1,0l0.1,0
						c0,0,0.1,0,0.1,0l0.1,0c0,0,0.1,0,0.1,0l0.1,0c0,0,0.1,0,0.1,0l0.1,0c0,0,0.1,0,0.1,0l0.1,0c0,0,0.1,0,0.1,0l0.1,0
						c0,0,0.1,0,0.1,0l0.1,0c0,0,0.1,0,0.1,0l0.1,0C15.4,0.1,15.5,0.1,15.6,0.1L15.6,0.1L15.6,0.1L15.6,0.1"/>
					<path fill="#838485" d="M15.2,0c-0.4-0.1-0.8,0-1.2,0.1c-0.1,0-0.1,0-0.1,0c0,0,0.1,0,0.1,0c0,0,0.1,0,0.1,0l0.1,0
						c0,0,0.1,0,0.1,0l0.1,0c0,0,0.1,0,0.1,0l0.1,0c0,0,0.1,0,0.1,0l0.1,0c0,0,0.1,0,0.1,0l0.1,0c0,0,0.1,0,0.1,0l0.1,0
						C15.1,0,15.1,0,15.2,0L15.2,0L15.2,0L15.2,0"/>
					<path fill="#7E7F81" d="M14.9,0c-0.4,0-0.7,0.1-0.9,0.1c0,0-0.1,0-0.1,0c0,0,0.1,0,0.1,0c0,0,0.1,0,0.1,0l0.1,0
						c0,0,0.1,0,0.1,0l0.1,0c0,0,0.1,0,0.1,0l0.1,0c0,0,0.1,0,0.1,0l0.1,0c0,0,0.1,0,0.1,0L14.9,0L14.9,0L14.9,0"/>
					<path fill="#7A7B7C" d="M14.5,0c-0.2,0-0.3,0.1-0.5,0.1c0,0,0,0,0,0c0,0,0.1,0,0.1,0c0,0,0.1,0,0.1,0l0.1,0c0,0,0.1,0,0.1,0
						l0.1,0C14.4,0,14.4,0,14.5,0C14.5,0,14.5,0,14.5,0C14.5,0,14.5,0,14.5,0"/>
					<path fill="#757678" d="M14.1,0.1c0,0-0.1,0-0.1,0.1c0,0,0,0,0,0C14,0.2,14,0.1,14.1,0.1L14.1,0.1L14.1,0.1"/>
				</g>
			</g>
			<g enable-background="new    ">
				<defs>
					<path id="SVGID_5_" enable-background="new    " d="M25.1,8.5c0,0.1,0,0.3-0.4,0.5c0,0,0,0,0-0.1C25,8.8,25.1,8.6,25.1,8.5z"/>
				</defs>
				<clipPath id="SVGID_6_">
					<use xlink:href="#SVGID_5_"  overflow="visible"/>
				</clipPath>
				<g clip-path="url(#SVGID_6_)" enable-background="new    ">
					<path fill="#ABADAF" d="M25.1,8.5c0,0.1,0,0.3-0.4,0.5c0,0,0,0,0-0.1C25,8.8,25.1,8.6,25.1,8.5"/>
					<path fill="#ABADAF" d="M24.7,8.9C24.7,8.9,24.7,8.9,24.7,8.9c0.3-0.1,0.4-0.3,0.4-0.4c0,0,0,0,0,0c0,0,0,0,0,0.1l0,0
						c0,0,0,0,0,0.1l0,0l0,0l0,0c0,0,0,0-0.1,0l-0.1,0C24.8,8.9,24.8,8.9,24.7,8.9L24.7,8.9L24.7,8.9C24.7,8.9,24.7,8.9,24.7,8.9"/>
					<path fill="#A7A8AA" d="M24.7,8.9c0,0,0.1,0,0.1-0.1c0.2-0.1,0.2-0.2,0.2-0.3c0,0,0,0,0,0c0,0,0,0,0,0.1l0,0c0,0,0,0,0,0.1l0,0
						l0,0l0,0c0,0,0,0-0.1,0l-0.1,0C24.8,8.9,24.8,8.9,24.7,8.9L24.7,8.9L24.7,8.9C24.7,8.9,24.7,8.9,24.7,8.9"/>
					<path fill="#A2A3A6" d="M24.7,8.9c0,0,0.1-0.1,0.2-0.1c0.1-0.1,0.2-0.2,0.2-0.3c0,0,0,0,0,0c0,0,0,0,0,0.1l0,0c0,0,0,0,0,0.1
						l0,0l0,0l0,0c0,0,0,0-0.1,0l-0.1,0C24.8,8.9,24.8,8.9,24.7,8.9L24.7,8.9L24.7,8.9C24.7,8.9,24.7,8.9,24.7,8.9"/>
					<path fill="#9D9FA1" d="M24.7,8.9c0.1,0,0.2-0.1,0.3-0.2c0.1-0.1,0.1-0.2,0.1-0.2c0,0,0,0,0,0c0,0,0,0,0,0.1l0,0c0,0,0,0,0,0.1
						l0,0l0,0l0,0c0,0,0,0-0.1,0l-0.1,0C24.8,8.9,24.8,8.9,24.7,8.9L24.7,8.9L24.7,8.9C24.7,8.9,24.7,8.9,24.7,8.9"/>
					<path fill="#999A9C" d="M24.7,8.9c0.1,0,0.2-0.1,0.3-0.2c0.1-0.1,0.1-0.1,0.1-0.2c0,0,0,0,0,0c0,0,0,0,0,0.1l0,0c0,0,0,0,0,0.1
						l0,0l0,0l0,0c0,0,0,0-0.1,0l-0.1,0C24.8,8.9,24.8,8.9,24.7,8.9L24.7,8.9L24.7,8.9C24.7,8.9,24.7,8.9,24.7,8.9"/>
					<path fill="#959698" d="M24.7,8.9C24.9,8.8,25,8.8,25,8.6c0-0.1,0.1-0.1,0.1-0.2c0,0,0,0,0,0c0,0,0,0,0,0.1l0,0c0,0,0,0,0,0.1
						l0,0l0,0l0,0c0,0,0,0-0.1,0l-0.1,0C24.8,8.9,24.8,8.9,24.7,8.9L24.7,8.9L24.7,8.9C24.7,8.9,24.7,8.9,24.7,8.9"/>
					<path fill="#909193" d="M24.7,8.9c0.1-0.1,0.3-0.1,0.3-0.3c0,0,0-0.1,0-0.1c0,0,0,0,0,0c0,0,0,0,0,0.1l0,0c0,0,0,0,0,0.1l0,0
						l0,0l0,0c0,0,0,0-0.1,0l-0.1,0C24.8,8.9,24.8,8.9,24.7,8.9L24.7,8.9L24.7,8.9C24.7,8.9,24.7,8.9,24.7,8.9"/>
					<path fill="#8B8D8F" d="M24.7,8.9L24.7,8.9c0.2-0.1,0.3-0.2,0.4-0.3c0,0,0-0.1,0-0.1c0,0,0,0,0,0c0,0,0,0,0,0.1l0,0
						c0,0,0,0,0,0.1l0,0l0,0l0,0c0,0,0,0-0.1,0l-0.1,0C24.8,8.9,24.8,8.9,24.7,8.9L24.7,8.9L24.7,8.9C24.7,8.9,24.7,8.9,24.7,8.9"/>
					<path fill="#87888A" d="M24.7,8.9c0.2-0.1,0.4-0.2,0.4-0.4c0,0,0,0,0,0c0,0,0,0,0,0c0,0,0,0,0,0.1l0,0c0,0,0,0,0,0.1l0,0l0,0
						l0,0c0,0,0,0-0.1,0l-0.1,0C24.8,8.9,24.8,8.9,24.7,8.9L24.7,8.9L24.7,8.9C24.7,8.9,24.7,8.9,24.7,8.9"/>
					<path fill="#838485" d="M24.7,8.9c0.2-0.1,0.4-0.2,0.4-0.4c0,0,0,0,0,0c0,0,0,0,0,0c0,0,0,0,0,0.1l0,0c0,0,0,0,0,0.1l0,0l0,0
						l0,0c0,0,0,0-0.1,0l-0.1,0C24.8,8.9,24.8,8.9,24.7,8.9L24.7,8.9L24.7,8.9C24.7,8.9,24.7,8.9,24.7,8.9"/>
					<path fill="#7E7F81" d="M24.7,8.9L24.7,8.9c0.2-0.1,0.4-0.2,0.4-0.4l0,0l0,0l0,0c0,0,0,0,0,0.1l0,0l0,0l0,0c0,0,0,0-0.1,0
						l-0.1,0C24.8,8.9,24.8,8.9,24.7,8.9L24.7,8.9L24.7,8.9C24.7,8.9,24.7,8.9,24.7,8.9"/>
					<path fill="#7A7B7C" d="M24.7,8.9c0.2-0.1,0.3-0.2,0.4-0.3l0,0l0,0l0,0l0,0l0,0c0,0,0,0-0.1,0l-0.1,0
						C24.8,8.9,24.8,8.9,24.7,8.9L24.7,8.9L24.7,8.9C24.7,8.9,24.7,8.9,24.7,8.9"/>
					<path fill="#757678" d="M24.7,8.9C24.9,8.8,25,8.7,25,8.7c0,0,0,0.1-0.1,0.1l0,0l0,0c0,0,0,0-0.1,0l-0.1,0
						C24.8,8.9,24.8,8.9,24.7,8.9L24.7,8.9L24.7,8.9C24.7,8.9,24.7,8.9,24.7,8.9"/>
				</g>
			</g>
			<g enable-background="new    ">
				<defs>
					<path id="SVGID_7_" enable-background="new    " d="M23.8,8.8C23.8,8.8,23.8,8.8,23.8,8.8C23.8,8.8,23.8,8.8,23.8,8.8
						C23.4,9,23,9.2,22.5,9.5c-0.7-0.3-0.7-0.8,0-1.1C23,8.6,23.4,8.7,23.8,8.8C23.8,8.8,23.8,8.8,23.8,8.8
						C23.8,8.8,23.8,8.8,23.8,8.8z"/>
				</defs>
				<clipPath id="SVGID_8_">
					<use xlink:href="#SVGID_7_"  overflow="visible"/>
				</clipPath>
				<g clip-path="url(#SVGID_8_)" enable-background="new    ">
					<path fill="#ABADAF" d="M23.8,8.8C23.4,9,23,9.2,22.5,9.5c-0.7-0.3-0.7-0.8,0-1.1C23,8.6,23.4,8.7,23.8,8.8
						C23.8,8.8,23.8,8.8,23.8,8.8"/>
					<path fill="#ABADAF" d="M23.8,8.8L23.8,8.8L23.8,8.8L23.8,8.8L23.8,8.8L23.8,8.8L23.8,8.8L23.8,8.8L23.8,8.8L23.8,8.8L23.8,8.8
						L23.8,8.8L23.8,8.8L23.8,8.8L23.8,8.8L23.8,8.8L23.8,8.8L23.8,8.8L23.8,8.8L23.8,8.8C23.4,9,23,9.2,22.5,9.5
						c-0.7-0.3-0.7-0.8,0-1.1C23,8.6,23.4,8.7,23.8,8.8"/>
					<path fill="#A7A8AA" d="M23.8,8.8L23.8,8.8L23.8,8.8L23.8,8.8L23.8,8.8L23.8,8.8L23.8,8.8L23.8,8.8L23.8,8.8L23.8,8.8L23.8,8.8
						L23.8,8.8L23.8,8.8L23.8,8.8L23.8,8.8L23.8,8.8L23.8,8.8L23.8,8.8L23.8,8.8L23.8,8.8C23.4,9,23,9.2,22.5,9.5
						c-0.7-0.3-0.7-0.8,0-1.1C23,8.6,23.4,8.7,23.8,8.8"/>
					<path fill="#A2A3A6" d="M23.8,8.8L23.8,8.8L23.8,8.8L23.8,8.8L23.8,8.8L23.8,8.8L23.8,8.8L23.8,8.8L23.8,8.8L23.8,8.8L23.8,8.8
						L23.8,8.8L23.8,8.8L23.8,8.8L23.8,8.8L23.8,8.8L23.8,8.8L23.8,8.8L23.8,8.8L23.8,8.8C23.8,8.8,23.8,8.8,23.8,8.8
						C23.8,8.9,23.8,8.9,23.8,8.8c-0.1,0-0.9,0.4-1.3,0.3c-0.4,0-0.4-0.3-0.4-0.4c0.1-0.2,0.4-0.3,0.5-0.4C23,8.6,23.5,8.7,23.8,8.8
						"/>
					<path fill="#9D9FA1" d="M23.8,8.8L23.8,8.8L23.8,8.8L23.8,8.8L23.8,8.8L23.8,8.8L23.8,8.8L23.8,8.8L23.8,8.8L23.8,8.8L23.8,8.8
						L23.8,8.8L23.8,8.8L23.8,8.8L23.8,8.8L23.8,8.8L23.8,8.8L23.8,8.8L23.8,8.8L23.8,8.8L23.8,8.8C23.8,8.8,23.8,8.8,23.8,8.8
						C23.8,8.9,23.8,8.9,23.8,8.8C23.7,8.9,23.7,8.9,23.8,8.8C23.7,8.9,23.7,8.9,23.8,8.8c-0.1,0-0.1,0-0.2,0c0,0,0,0,0,0
						c-0.2,0-0.3,0-0.3,0c-0.2,0-0.2-0.1-0.2-0.2c0,0,0-0.1,0.1-0.1C23.4,8.7,23.6,8.8,23.8,8.8"/>
					<path fill="#999A9C" d="M23.8,8.8L23.8,8.8L23.8,8.8L23.8,8.8L23.8,8.8L23.8,8.8C23.8,8.8,23.8,8.8,23.8,8.8L23.8,8.8L23.8,8.8
						L23.8,8.8L23.8,8.8L23.8,8.8L23.8,8.8L23.8,8.8L23.8,8.8L23.8,8.8L23.8,8.8L23.8,8.8L23.8,8.8L23.8,8.8L23.8,8.8
						C23.8,8.8,23.8,8.8,23.8,8.8C23.8,8.9,23.8,8.9,23.8,8.8c-0.1,0-0.1,0-0.1,0c0,0,0,0,0,0c0,0,0,0,0,0c0,0,0,0,0,0
						C23.7,8.8,23.7,8.8,23.8,8.8"/>
					<path fill="#959698" d="M23.8,8.8C23.8,8.8,23.8,8.8,23.8,8.8L23.8,8.8C23.8,8.8,23.8,8.8,23.8,8.8L23.8,8.8
						C23.8,8.8,23.8,8.8,23.8,8.8L23.8,8.8C23.8,8.8,23.8,8.8,23.8,8.8L23.8,8.8L23.8,8.8L23.8,8.8L23.8,8.8L23.8,8.8L23.8,8.8
						L23.8,8.8C23.8,8.8,23.8,8.8,23.8,8.8L23.8,8.8C23.8,8.8,23.8,8.8,23.8,8.8L23.8,8.8L23.8,8.8C23.8,8.8,23.8,8.8,23.8,8.8
						C23.8,8.8,23.8,8.8,23.8,8.8C23.7,8.8,23.7,8.8,23.8,8.8C23.7,8.8,23.7,8.8,23.8,8.8C23.8,8.8,23.8,8.8,23.8,8.8"/>
					<path fill="#909193" d="M23.8,8.8C23.8,8.8,23.8,8.8,23.8,8.8L23.8,8.8C23.8,8.8,23.8,8.8,23.8,8.8L23.8,8.8
						C23.8,8.8,23.8,8.8,23.8,8.8L23.8,8.8C23.8,8.8,23.8,8.8,23.8,8.8L23.8,8.8L23.8,8.8L23.8,8.8L23.8,8.8L23.8,8.8
						C23.8,8.8,23.8,8.8,23.8,8.8L23.8,8.8C23.8,8.8,23.8,8.8,23.8,8.8L23.8,8.8C23.8,8.8,23.8,8.8,23.8,8.8L23.8,8.8
						C23.8,8.8,23.8,8.8,23.8,8.8C23.8,8.8,23.8,8.8,23.8,8.8C23.8,8.8,23.8,8.8,23.8,8.8C23.7,8.8,23.7,8.8,23.8,8.8
						C23.8,8.8,23.8,8.8,23.8,8.8C23.8,8.8,23.8,8.8,23.8,8.8"/>
					<path fill="#8B8D8F" d="M23.8,8.8C23.8,8.8,23.8,8.8,23.8,8.8L23.8,8.8C23.8,8.8,23.8,8.8,23.8,8.8L23.8,8.8
						C23.8,8.8,23.8,8.8,23.8,8.8L23.8,8.8C23.8,8.8,23.8,8.8,23.8,8.8L23.8,8.8L23.8,8.8L23.8,8.8L23.8,8.8L23.8,8.8
						C23.8,8.8,23.8,8.8,23.8,8.8L23.8,8.8C23.8,8.8,23.8,8.8,23.8,8.8L23.8,8.8C23.8,8.8,23.8,8.8,23.8,8.8L23.8,8.8
						C23.8,8.8,23.8,8.8,23.8,8.8C23.8,8.8,23.8,8.8,23.8,8.8C23.8,8.8,23.8,8.8,23.8,8.8C23.8,8.8,23.7,8.8,23.8,8.8
						C23.8,8.8,23.8,8.8,23.8,8.8C23.8,8.8,23.8,8.8,23.8,8.8"/>
					<path fill="#87888A" d="M23.8,8.8C23.8,8.8,23.8,8.8,23.8,8.8L23.8,8.8C23.8,8.8,23.8,8.8,23.8,8.8L23.8,8.8
						C23.8,8.8,23.8,8.8,23.8,8.8L23.8,8.8C23.8,8.8,23.8,8.8,23.8,8.8L23.8,8.8C23.8,8.8,23.8,8.8,23.8,8.8L23.8,8.8L23.8,8.8
						L23.8,8.8C23.8,8.8,23.8,8.8,23.8,8.8L23.8,8.8C23.8,8.8,23.8,8.8,23.8,8.8L23.8,8.8C23.8,8.8,23.8,8.8,23.8,8.8L23.8,8.8
						C23.8,8.8,23.8,8.8,23.8,8.8C23.8,8.8,23.8,8.8,23.8,8.8C23.8,8.8,23.8,8.8,23.8,8.8C23.8,8.8,23.8,8.8,23.8,8.8
						C23.8,8.8,23.8,8.8,23.8,8.8C23.8,8.8,23.8,8.8,23.8,8.8"/>
					<path fill="#838485" d="M23.8,8.8L23.8,8.8C23.8,8.8,23.8,8.8,23.8,8.8L23.8,8.8C23.8,8.8,23.8,8.8,23.8,8.8L23.8,8.8
						C23.8,8.8,23.8,8.8,23.8,8.8L23.8,8.8C23.8,8.8,23.8,8.8,23.8,8.8L23.8,8.8C23.8,8.8,23.8,8.8,23.8,8.8L23.8,8.8L23.8,8.8
						L23.8,8.8C23.8,8.8,23.8,8.8,23.8,8.8L23.8,8.8C23.8,8.8,23.8,8.8,23.8,8.8L23.8,8.8C23.8,8.8,23.8,8.8,23.8,8.8L23.8,8.8
						C23.8,8.8,23.8,8.8,23.8,8.8C23.8,8.8,23.8,8.8,23.8,8.8C23.8,8.8,23.8,8.8,23.8,8.8C23.8,8.8,23.8,8.8,23.8,8.8
						C23.8,8.8,23.8,8.8,23.8,8.8C23.8,8.8,23.8,8.8,23.8,8.8C23.8,8.8,23.8,8.8,23.8,8.8"/>
					<polyline fill="#7E7F81" points="23.8,8.8 23.8,8.8 23.8,8.8 23.8,8.8 23.8,8.8 23.8,8.8 23.8,8.8 23.8,8.8 23.8,8.8 23.8,8.8 
						23.8,8.8 23.8,8.8 23.8,8.8 23.8,8.8 23.8,8.8 23.8,8.8 23.8,8.8 23.8,8.8 23.8,8.8 23.8,8.8 23.8,8.8 23.8,8.8 23.8,8.8 
						23.8,8.8 23.8,8.8 23.8,8.8 23.8,8.8 					"/>
					<g>
						<polyline fill="#7A7B7C" points="23.8,8.8 23.8,8.8 23.8,8.8 23.8,8.8 						"/>
						<polyline fill="#7A7B7C" points="23.8,8.8 23.8,8.8 23.8,8.8 23.8,8.8 						"/>
					</g>
				</g>
			</g>
			<g enable-background="new    ">
				<defs>
					<path id="SVGID_9_" enable-background="new    " d="M25.1,4.4l0,4.1c0,0.1-0.1,0.3-0.4,0.4l0-4.1C24.9,4.7,25.1,4.6,25.1,4.4z"
						/>
				</defs>
				<clipPath id="SVGID_10_">
					<use xlink:href="#SVGID_9_"  overflow="visible"/>
				</clipPath>
				<g clip-path="url(#SVGID_10_)" enable-background="new    ">
					<polyline fill="#838485" points="25.1,4.4 25.1,8.5 25.1,8.5 25.1,4.4 25.1,4.4 					"/>
					<path fill="#87888A" d="M25.1,4.4l0,4.1c0,0,0,0,0,0L25.1,4.4C25.1,4.4,25.1,4.4,25.1,4.4"/>
					<path fill="#8B8D8F" d="M25.1,4.5l0,4.1c0,0,0,0,0,0L25.1,4.5C25,4.5,25.1,4.5,25.1,4.5"/>
					<path fill="#909193" d="M25,4.5l0,4.1c0,0,0,0,0,0L25,4.5C25,4.5,25,4.5,25,4.5"/>
					<path fill="#959698" d="M25,4.5l0,4.1c0,0,0,0,0,0L25,4.5C25,4.6,25,4.6,25,4.5"/>
					<path fill="#999A9C" d="M25,4.6l0,4.1c0,0,0,0,0,0L25,4.6C25,4.6,25,4.6,25,4.6"/>
					<path fill="#9D9FA1" d="M25,4.6l0,4.1c0,0,0,0,0,0L25,4.6C24.9,4.6,25,4.6,25,4.6"/>
					<path fill="#A2A3A6" d="M24.9,4.7l0,4.1c0,0,0,0-0.1,0L24.9,4.7C24.9,4.7,24.9,4.7,24.9,4.7"/>
					<path fill="#A7A8AA" d="M24.9,4.7l0,4.1c0,0,0,0-0.1,0L24.9,4.7C24.8,4.7,24.9,4.7,24.9,4.7"/>
					<path fill="#ABADAF" d="M24.8,4.7l0,4.1c0,0-0.1,0-0.1,0.1l0-4.1C24.8,4.8,24.8,4.8,24.8,4.7"/>
					<path fill="#B0B1B3" d="M24.7,4.8l0,4.1c0,0,0,0,0,0L24.7,4.8C24.7,4.8,24.7,4.8,24.7,4.8"/>
				</g>
			</g>
			<g enable-background="new    ">
				<defs>
					<path id="SVGID_11_" enable-background="new    " d="M0.4,6l1.3-0.6l1.3-0.6l1.3-0.6l1.3-0.6l1.3-0.6l1.3-0.6l1.3-0.6l1.3-0.6
						l1.3-0.6l1.3-0.6c0.2-0.1,1.1,0.1,2.1,0.6L2.6,6.6C1.5,6.1,0.6,5.9,0.4,6z"/>
				</defs>
				<clipPath id="SVGID_12_">
					<use xlink:href="#SVGID_11_"  overflow="visible"/>
				</clipPath>
				<g clip-path="url(#SVGID_12_)" enable-background="new    ">
					<path fill="#A7A8AA" d="M16.1,0.7L2.6,6.6c0,0,0,0,0,0L16.1,0.7C16,0.7,16,0.7,16.1,0.7"/>
					<path fill="#A2A3A6" d="M16,0.7L2.5,6.6C2.3,6.5,2.1,6.4,1.9,6.3l13.5-5.8C15.6,0.6,15.8,0.6,16,0.7"/>
					<path fill="#9D9FA1" d="M15.4,0.5L1.9,6.3C1.8,6.3,1.6,6.2,1.5,6.2l13.5-5.8C15.1,0.4,15.3,0.4,15.4,0.5"/>
					<path fill="#999A9C" d="M14.9,0.3L1.5,6.2c-0.1,0-0.2-0.1-0.3-0.1l0.7-0.3l0.7-0.3l0.7-0.3l0.7-0.3l0.7-0.3l0.7-0.3L5.8,4
						l0.7-0.3l0.7-0.3l0.7-0.3l0.7-0.3l0.7-0.3l0.7-0.3L10.6,2l0.7-0.3l0.7-0.3l0.7-0.3l0.7-0.3l0.7-0.3l0.7-0.3
						C14.7,0.3,14.8,0.3,14.9,0.3"/>
					<path fill="#959698" d="M14.6,0.2l-0.7,0.3l-0.7,0.3l-0.7,0.3l-0.7,0.3l-0.7,0.3L10.6,2L9.9,2.3L9.2,2.6L8.5,2.9L7.9,3.2
						L7.2,3.4L6.5,3.7L5.8,4L5.2,4.3L4.5,4.6L3.8,4.9L3.1,5.2L2.5,5.5L1.8,5.8L1.1,6.1C1,6,1,6,0.9,6l13.5-5.8
						C14.5,0.2,14.5,0.2,14.6,0.2"/>
					<path fill="#909193" d="M14.4,0.2L0.9,6C0.8,6,0.8,6,0.7,6l13.5-5.8C14.3,0.2,14.3,0.2,14.4,0.2"/>
					<path fill="#8B8D8F" d="M14.2,0.2L0.7,6c0,0-0.1,0-0.1,0l0.7-0.3L2,5.4l0.7-0.3l0.7-0.3L4,4.5l0.7-0.3l0.7-0.3L6,3.6l0.7-0.3
						l0.7-0.3l0.7-0.3l0.7-0.3l0.7-0.3l0.7-0.3l0.7-0.3l0.7-0.3L12.1,1l0.7-0.3l0.7-0.3l0.7-0.3C14.2,0.1,14.2,0.2,14.2,0.2"/>
					<path fill="#87888A" d="M14.1,0.1l-0.7,0.3l-0.7,0.3L12.1,1l-0.7,0.3l-0.7,0.3l-0.7,0.3L9.4,2.2L8.7,2.5L8.1,2.8L7.4,3.1
						L6.7,3.4L6,3.6L5.4,3.9L4.7,4.2L4,4.5L3.3,4.8L2.7,5.1L2,5.4L1.3,5.7L0.6,6c0,0,0,0-0.1,0l0.7-0.3l0.7-0.3l0.7-0.3l0.7-0.3
						l0.7-0.3l0.7-0.3l0.7-0.3L6,3.6l0.7-0.3l0.7-0.3L8,2.8l0.7-0.3l0.7-0.3L10,1.9l0.7-0.3l0.7-0.3L12,1l0.7-0.3l0.7-0.3L14.1,0.1
						C14.1,0.1,14.1,0.1,14.1,0.1"/>
					<path fill="#838485" d="M14.1,0.1l-0.7,0.3l-0.7,0.3L12,1l-0.7,0.3l-0.7,0.3L10,1.9L9.3,2.2L8.7,2.5L8,2.8L7.3,3.1L6.6,3.4
						L6,3.6L5.3,3.9L4.6,4.2L3.9,4.5L3.3,4.8L2.6,5.1L1.9,5.4L1.2,5.7L0.6,6c0,0,0,0,0,0L14.1,0.1C14,0.1,14,0.1,14.1,0.1"/>
					<path fill="#7E7F81" d="M14,0.1L0.5,6c0,0,0,0,0,0l0.7-0.3l0.7-0.3l0.7-0.3l0.7-0.3l0.7-0.3l0.7-0.3l0.7-0.3l0.7-0.3l0.7-0.3
						l0.7-0.3l0.7-0.3l0.7-0.3l0.7-0.3l0.7-0.3l0.7-0.3l0.7-0.3L11.9,1l0.7-0.3l0.7-0.3L14,0.1C14,0.1,14,0.1,14,0.1"/>
					<path fill="#7A7B7C" d="M14,0.1l-0.7,0.3l-0.7,0.3L11.9,1l-0.7,0.3l-0.7,0.3L9.9,1.9L9.2,2.2L8.6,2.5L7.9,2.8L7.2,3.1L6.5,3.4
						L5.9,3.7L5.2,3.9L4.5,4.2L3.8,4.5L3.2,4.8L2.5,5.1L1.8,5.4L1.1,5.7L0.5,6c0,0,0,0,0,0L14,0.1C14,0.2,14,0.2,14,0.1"/>
					<polyline fill="#757678" points="13.9,0.2 0.4,6 0.4,6 1.8,5.4 3.1,4.8 4.5,4.2 5.8,3.7 7.2,3.1 8.5,2.5 9.9,1.9 11.2,1.3 
						12.6,0.7 13.9,0.2 13.9,0.2 					"/>
				</g>
			</g>
			<g enable-background="new    ">
				<defs>
					<path id="SVGID_13_" enable-background="new    " d="M15.6,0.2l0.9,0.4l0.9,0.4l0.9,0.4l0.9,0.4l0.9,0.4L21,2.4l0.9,0.4
						l0.9,0.4l0.9,0.4L24.6,4c-0.2-0.1-1.1,0.2-2.1,0.6l-9-3.8C14.6,0.3,15.4,0.1,15.6,0.2z"/>
				</defs>
				<clipPath id="SVGID_14_">
					<use xlink:href="#SVGID_13_"  overflow="visible"/>
				</clipPath>
				<g clip-path="url(#SVGID_14_)" enable-background="new    ">
					<path fill="#A7A8AA" d="M22.5,4.6l-9-3.8c0.1,0,0.1,0,0.2-0.1l9,3.8C22.6,4.5,22.5,4.5,22.5,4.6"/>
					<path fill="#A2A3A6" d="M22.7,4.5l-9-3.8c0.6-0.2,1.1-0.4,1.4-0.5l9,3.8C23.7,4.1,23.2,4.3,22.7,4.5"/>
					<path fill="#9D9FA1" d="M24.1,4l-9-3.8c0.1,0,0.2-0.1,0.3-0.1l0,0l0.4,0.2l0.4,0.2l0.4,0.2l0.4,0.2l0.4,0.2l0.4,0.2l0.4,0.2
						L19,1.7l0.4,0.2L19.9,2l0.4,0.2l0.4,0.2l0.4,0.2l0.4,0.2L22.2,3l0.4,0.2l0.4,0.2l0.4,0.2L24,3.8L24.4,4C24.3,4,24.2,4,24.1,4"
						/>
					<path fill="#999A9C" d="M24.4,4L24.4,4L24.4,4L24,3.8l-0.4-0.2l-0.4-0.2l-0.4-0.2L22.2,3l-0.4-0.2l-0.4-0.2l-0.4-0.2l-0.4-0.2
						L19.9,2l-0.4-0.2L19,1.7l-0.4-0.2l-0.4-0.2l-0.4-0.2l-0.4-0.2l-0.4-0.2l-0.4-0.2l-0.4-0.2l-0.4-0.2c0,0,0.1,0,0.1,0L16,0.3
						l0.4,0.2l0.4,0.2l0.4,0.2l0.4,0.2l0.4,0.2l0.4,0.2l0.4,0.2l0.4,0.2L20,2l0.4,0.2l0.4,0.2l0.4,0.2l0.4,0.2L22.3,3l0.4,0.2
						l0.4,0.2l0.4,0.2l0.4,0.2l0.4,0.2C24.5,3.9,24.5,3.9,24.4,4"/>
					<path fill="#959698" d="M24.5,3.9L24.5,3.9L24.5,3.9l-0.4-0.2l-0.4-0.2l-0.4-0.2l-0.4-0.2L22.3,3l-0.4-0.2l-0.4-0.2l-0.4-0.2
						l-0.4-0.2L20,2l-0.4-0.2l-0.4-0.2l-0.4-0.2l-0.4-0.2l-0.4-0.2l-0.4-0.2l-0.4-0.2l-0.4-0.2L16,0.3l-0.4-0.2c0,0,0,0,0.1,0
						L24.5,3.9C24.6,4,24.5,3.9,24.5,3.9"/>
					<path fill="#909193" d="M24.6,4l-9-3.8c0,0,0,0,0,0L24.6,4C24.6,4,24.6,4,24.6,4"/>
					<path fill="#8B8D8F" d="M24.6,4l-9-3.8c0,0,0,0,0,0l0.9,0.4l0.9,0.4l0.9,0.4l0.9,0.4l0.9,0.4L21,2.4l0.9,0.4l0.9,0.4l0.9,0.4
						L24.6,4C24.6,4,24.6,4,24.6,4"/>
				</g>
			</g>
			<g enable-background="new    ">
				<defs>
					<path id="SVGID_15_" enable-background="new    " d="M23.8,4.1C23.8,4.1,23.8,4.1,23.8,4.1C24.2,4,24.5,3.9,24.6,4
						c0.1,0.1,0.4,0.2,0.4,0.4c0,0.1-0.1,0.3-0.4,0.4C24.7,4.7,24.3,4.4,23.8,4.1C23.8,4.1,23.8,4.1,23.8,4.1
						C23.8,4.1,23.8,4.1,23.8,4.1C23.8,4.1,23.8,4.1,23.8,4.1z"/>
				</defs>
				<clipPath id="SVGID_16_">
					<use xlink:href="#SVGID_15_"  overflow="visible"/>
				</clipPath>
				<g clip-path="url(#SVGID_16_)" enable-background="new    ">
					<path fill="#E5E6E9" d="M23.8,4.1C24.2,4,24.5,3.9,24.6,4c0.3,0.1,0.4,0.3,0.4,0.4c0,0.1-0.1,0.3-0.4,0.4
						C24.7,4.7,24.3,4.4,23.8,4.1C23.8,4.1,23.8,4.1,23.8,4.1"/>
					<path fill="#E5E6E9" d="M24.7,4.7L24.7,4.7c-0.1-0.2-0.4-0.4-0.9-0.7c0,0,0,0,0,0h0l0,0l0,0l0,0l0,0l0,0l0,0l0,0l0,0l0,0l0,0h0
						h0l0,0l0,0l0,0l0,0l0,0l0,0C24.2,4,24.5,3.9,24.6,4c0,0,0.1,0,0.1,0c0,0,0.1,0,0.1,0l0.1,0c0,0,0.1,0.1,0.1,0.1l0,0
						c0,0,0,0,0,0.1l0,0c0,0.1,0,0.1,0,0.1C25.1,4.6,24.9,4.7,24.7,4.7C24.7,4.8,24.7,4.8,24.7,4.7"/>
					<path fill="#E1E3E6" d="M24.7,4.8C24.7,4.8,24.7,4.7,24.7,4.8C24.7,4.7,24.7,4.7,24.7,4.8c-0.1-0.2-0.4-0.4-0.9-0.7
						c0,0,0,0,0,0h0l0,0l0,0l0,0l0,0l0,0l0,0l0,0l0,0l0,0l0,0h0h0l0,0l0,0l0,0l0,0l0,0l0,0C24.2,4,24.5,3.9,24.6,4c0,0,0.1,0,0.1,0
						c0,0,0.1,0,0.1,0l0.1,0c0,0,0.1,0.1,0.1,0.1l0,0c0,0,0,0,0,0.1l0,0c0,0.1,0,0.1,0,0.1C25.1,4.6,24.9,4.7,24.7,4.8
						C24.7,4.8,24.7,4.8,24.7,4.8"/>
					<path fill="#DCDEE1" d="M24.7,4.8C24.7,4.7,24.8,4.8,24.7,4.8C24.7,4.7,24.7,4.7,24.7,4.8c-0.1-0.2-0.5-0.4-0.9-0.7
						c0,0,0,0,0,0h0l0,0l0,0l0,0l0,0l0,0l0,0l0,0l0,0l0,0l0,0h0h0l0,0l0,0l0,0l0,0l0,0l0,0C24.2,4,24.5,3.9,24.6,4c0,0,0.1,0,0.1,0
						c0,0,0.1,0,0.1,0l0.1,0c0,0,0.1,0.1,0.1,0.1l0,0c0,0,0,0,0,0.1l0,0c0,0.1,0,0.1,0,0.1C25.1,4.6,24.9,4.7,24.7,4.8
						C24.7,4.8,24.7,4.8,24.7,4.8"/>
					<path fill="#D8DADD" d="M24.7,4.8C24.7,4.8,24.7,4.8,24.7,4.8c0.1-0.1,0.1-0.1,0.1-0.1C24.8,4.7,24.8,4.7,24.7,4.8
						c-0.2-0.2-0.5-0.5-0.9-0.7c0,0,0,0,0,0h0l0,0l0,0l0,0l0,0l0,0l0,0l0,0l0,0l0,0l0,0h0h0l0,0l0,0l0,0l0,0l0,0l0,0
						C24.2,4,24.5,3.9,24.6,4c0,0,0.1,0,0.1,0c0,0,0.1,0,0.1,0l0.1,0c0,0,0.1,0.1,0.1,0.1l0,0c0,0,0,0,0,0.1l0,0c0,0.1,0,0.1,0,0.1
						C25.1,4.6,24.9,4.7,24.7,4.8C24.7,4.8,24.7,4.8,24.7,4.8"/>
					<path fill="#D3D5D8" d="M24.7,4.8C24.7,4.8,24.7,4.8,24.7,4.8c0.1,0,0.2-0.1,0.2-0.1c0,0,0,0,0,0c0,0,0,0-0.2,0.1
						c-0.1-0.1-0.4-0.4-0.8-0.6c0,0,0,0,0,0h0l0,0l0,0l0,0l0,0l0,0l0,0l0,0l0,0l0,0l0,0h0h0l0,0l0,0l0,0l0,0l0,0l0,0
						C24.2,4,24.5,3.9,24.6,4c0,0,0.1,0,0.1,0c0,0,0.1,0,0.1,0l0.1,0c0,0,0.1,0.1,0.1,0.1l0,0c0,0,0,0,0,0.1l0,0c0,0.1,0,0.1,0,0.1
						C25.1,4.6,24.9,4.7,24.7,4.8C24.7,4.8,24.7,4.8,24.7,4.8"/>
					<path fill="#CFD1D4" d="M24.7,4.8C24.7,4.8,24.7,4.8,24.7,4.8c0.1-0.1,0.2-0.2,0.2-0.2c0,0,0,0,0,0c0,0-0.1,0-0.3,0.1
						c-0.1-0.1-0.4-0.3-0.8-0.6c0,0,0,0,0,0h0l0,0l0,0l0,0l0,0l0,0l0,0l0,0l0,0l0,0l0,0h0h0l0,0l0,0l0,0l0,0l0,0l0,0
						C24.2,4,24.5,3.9,24.6,4c0,0,0.1,0,0.1,0c0,0,0.1,0,0.1,0l0.1,0c0,0,0.1,0.1,0.1,0.1l0,0c0,0,0,0,0,0.1l0,0c0,0.1,0,0.1,0,0.1
						C25.1,4.6,24.9,4.7,24.7,4.8C24.7,4.8,24.7,4.8,24.7,4.8"/>
					<path fill="#CBCCCF" d="M24.7,4.8C24.7,4.8,24.7,4.8,24.7,4.8c0.2-0.1,0.3-0.2,0.3-0.2c0,0,0,0-0.4,0.1
						c-0.2-0.1-0.4-0.3-0.8-0.5c0,0,0,0,0,0h0l0,0l0,0l0,0l0,0l0,0l0,0l0,0l0,0l0,0l0,0h0h0l0,0l0,0l0,0l0,0l0,0l0,0
						C24.2,4,24.5,3.9,24.6,4c0,0,0.1,0,0.1,0c0,0,0.1,0,0.1,0l0.1,0c0,0,0.1,0.1,0.1,0.1l0,0c0,0,0,0,0,0.1l0,0c0,0.1,0,0.1,0,0.1
						C25.1,4.6,24.9,4.7,24.7,4.8C24.7,4.8,24.7,4.8,24.7,4.8"/>
					<path fill="#C6C8CA" d="M24.7,4.8C24.7,4.8,24.7,4.8,24.7,4.8C24.9,4.7,25,4.5,25,4.5c0,0,0,0-0.4,0.1
						c-0.2-0.1-0.4-0.3-0.7-0.5c0,0,0,0,0,0h0l0,0l0,0l0,0l0,0l0,0l0,0l0,0l0,0l0,0l0,0h0h0l0,0l0,0l0,0l0,0l0,0l0,0
						C24.2,4,24.5,3.9,24.6,4c0,0,0.1,0,0.1,0c0,0,0.1,0,0.1,0l0.1,0c0,0,0.1,0.1,0.1,0.1l0,0c0,0,0,0,0,0.1l0,0c0,0.1,0,0.1,0,0.1
						C25.1,4.6,24.9,4.7,24.7,4.8C24.7,4.8,24.7,4.8,24.7,4.8"/>
					<path fill="#C2C3C6" d="M24.7,4.8C24.7,4.8,24.7,4.8,24.7,4.8C24.9,4.7,25,4.5,25,4.5c0,0,0,0-0.5,0.1
						c-0.2-0.1-0.4-0.3-0.7-0.5c0,0,0,0,0,0h0l0,0l0,0l0,0l0,0l0,0l0,0l0,0l0,0l0,0l0,0h0h0l0,0l0,0l0,0l0,0l0,0l0,0
						C24.2,4,24.5,3.9,24.6,4c0,0,0.1,0,0.1,0c0,0,0.1,0,0.1,0l0.1,0c0,0,0.1,0.1,0.1,0.1l0,0c0,0,0,0,0,0.1l0,0c0,0.1,0,0.1,0,0.1
						C25.1,4.6,24.9,4.7,24.7,4.8C24.7,4.8,24.7,4.8,24.7,4.8"/>
					<path fill="#BDBFC1" d="M24.7,4.8C24.7,4.8,24.7,4.8,24.7,4.8c0.3-0.1,0.4-0.3,0.3-0.4c0,0-0.5,0.1-0.6,0.1
						c-0.2-0.1-0.4-0.3-0.6-0.4c0,0,0,0,0,0h0l0,0l0,0l0,0l0,0l0,0l0,0l0,0l0,0l0,0l0,0h0h0l0,0l0,0l0,0l0,0l0,0l0,0
						C24.2,4,24.5,3.9,24.6,4c0,0,0.1,0,0.1,0c0,0,0.1,0,0.1,0l0.1,0c0,0,0.1,0.1,0.1,0.1l0,0c0,0,0,0,0,0.1l0,0c0,0.1,0,0.1,0,0.1
						C25.1,4.6,24.9,4.7,24.7,4.8C24.7,4.8,24.7,4.8,24.7,4.8"/>
					<path fill="#B9BABD" d="M24.7,4.8C24.7,4.8,24.7,4.8,24.7,4.8C25,4.7,25.1,4.5,25,4.4c-0.1-0.1-0.6,0-0.7,0
						c-0.1-0.1-0.3-0.2-0.5-0.3c0,0,0,0,0,0h0l0,0l0,0l0,0l0,0l0,0l0,0l0,0l0,0l0,0l0,0h0h0l0,0l0,0l0,0l0,0l0,0l0,0
						C24.2,4,24.5,3.9,24.6,4c0,0,0.1,0,0.1,0c0,0,0.1,0,0.1,0l0.1,0c0,0,0.1,0.1,0.1,0.1l0,0c0,0,0,0,0,0.1l0,0c0,0.1,0,0.1,0,0.1
						C25.1,4.6,24.9,4.7,24.7,4.8C24.7,4.8,24.7,4.8,24.7,4.8"/>
					<path fill="#B4B6B8" d="M24.7,4.8C24.7,4.8,24.7,4.8,24.7,4.8C25,4.6,25.1,4.4,25,4.3c0,0-0.1-0.1-0.9,0
						c-0.1-0.1-0.2-0.1-0.4-0.2c0,0,0,0,0,0h0l0,0l0,0l0,0l0,0l0,0l0,0l0,0l0,0l0,0l0,0h0h0l0,0l0,0l0,0l0,0l0,0l0,0
						C24.2,4,24.5,3.9,24.6,4c0,0,0.1,0,0.1,0c0,0,0.1,0,0.1,0l0.1,0c0,0,0.1,0.1,0.1,0.1l0,0c0,0,0,0,0,0.1l0,0c0,0.1,0,0.1,0,0.1
						C25.1,4.6,24.9,4.7,24.7,4.8C24.7,4.8,24.7,4.8,24.7,4.8"/>
					<path fill="#B0B1B3" d="M24.7,4.8C24.7,4.8,24.7,4.8,24.7,4.8c0.1,0,0.2-0.1,0.3-0.3c0,0,0.1-0.2,0-0.3c0,0,0,0-0.6-0.1
						c-0.3,0-0.4,0-0.5-0.1c0,0-0.1,0-0.1-0.1c0,0,0,0,0,0h0l0,0l0,0l0,0l0,0l0,0l0,0l0,0l0,0l0,0l0,0h0h0l0,0l0,0l0,0l0,0l0,0l0,0
						C24.2,4,24.5,3.9,24.6,4c0,0,0.1,0,0.1,0c0,0,0.1,0,0.1,0l0.1,0c0,0,0.1,0.1,0.1,0.1l0,0c0,0,0,0,0,0.1l0,0c0,0.1,0,0.1,0,0.1
						C25.1,4.6,24.9,4.7,24.7,4.8C24.7,4.8,24.7,4.8,24.7,4.8"/>
					<path fill="#ABADAF" d="M23.8,4.1L23.8,4.1L23.8,4.1L23.8,4.1L23.8,4.1L23.8,4.1L23.8,4.1L23.8,4.1L23.8,4.1L23.8,4.1L23.8,4.1
						L23.8,4.1L23.8,4.1L23.8,4.1L23.8,4.1L23.8,4.1L23.8,4.1L23.8,4.1L23.8,4.1L23.8,4.1C24.2,4,24.5,3.9,24.6,4c0,0,0.1,0,0.1,0
						c0,0,0.1,0,0.1,0l0.1,0c0,0,0.1,0.1,0.1,0.1l0,0c0,0,0,0,0,0.1l0,0c0,0.1,0,0.1,0,0.1c0,0.1-0.1,0.3-0.3,0.4c0,0,0,0,0,0
						c0.5-0.2,0.3-0.5,0.1-0.6c-0.1,0-0.2,0-0.4,0C23.9,4.1,23.8,4.1,23.8,4.1C23.8,4.1,23.8,4.1,23.8,4.1"/>
					<path fill="#A7A8AA" d="M23.8,4.1L23.8,4.1L23.8,4.1L23.8,4.1L23.8,4.1L23.8,4.1L23.8,4.1L23.8,4.1L23.8,4.1L23.8,4.1L23.8,4.1
						L23.8,4.1L23.8,4.1L23.8,4.1L23.8,4.1L23.8,4.1L23.8,4.1L23.8,4.1L23.8,4.1L23.8,4.1C24.2,4,24.5,3.9,24.6,4c0,0,0.1,0,0.1,0
						c0,0,0.1,0,0.1,0l0.1,0c0,0,0.1,0.1,0.1,0.1l0,0c0,0,0,0,0,0.1l0,0c0,0.1,0,0.1,0,0.1c0,0.1-0.1,0.2-0.2,0.3c0,0,0,0,0,0
						c0.3-0.2,0.2-0.5-0.2-0.6c-0.1,0-0.3,0-0.5,0C24,4.1,23.9,4.1,23.8,4.1C23.8,4.1,23.8,4.1,23.8,4.1C23.8,4.1,23.8,4.1,23.8,4.1
						"/>
					<path fill="#A2A3A6" d="M23.8,4.1L23.8,4.1L23.8,4.1L23.8,4.1L23.8,4.1L23.8,4.1L23.8,4.1L23.8,4.1L23.8,4.1L23.8,4.1L23.8,4.1
						L23.8,4.1L23.8,4.1L23.8,4.1L23.8,4.1L23.8,4.1L23.8,4.1L23.8,4.1C24.2,4,24.5,3.9,24.6,4c0,0,0.1,0,0.1,0c0,0,0.1,0,0.1,0
						l0.1,0c0,0,0.1,0.1,0.1,0.1l0,0c0,0,0,0,0,0.1l0,0c0,0.1,0,0.1,0,0.1c0,0.1-0.1,0.2-0.2,0.3c0,0,0,0,0,0
						c0.3-0.2,0.2-0.6-0.5-0.6C24.2,4,24,4.1,23.8,4.1C23.8,4.1,23.8,4.1,23.8,4.1C23.8,4.1,23.8,4.1,23.8,4.1"/>
					<g>
						<path fill="#9D9FA1" d="M23.8,4.1C23.8,4.1,23.8,4.1,23.8,4.1L23.8,4.1L23.8,4.1L23.8,4.1C23.8,4.1,23.8,4.1,23.8,4.1
							L23.8,4.1C23.8,4.1,23.8,4.1,23.8,4.1L23.8,4.1C23.8,4.1,23.8,4.1,23.8,4.1C23.8,4.1,23.8,4.1,23.8,4.1
							C23.8,4.1,23.8,4.1,23.8,4.1C23.8,4.1,23.8,4.1,23.8,4.1C23.8,4.1,23.8,4.1,23.8,4.1C23.8,4.1,23.8,4.1,23.8,4.1"/>
						<line fill="#9D9FA1" x1="23.8" y1="4.1" x2="23.8" y2="4.1"/>
					</g>
					<path fill="#999A9C" d="M23.8,4.1C23.8,4.1,23.8,4.1,23.8,4.1L23.8,4.1C23.8,4.1,23.8,4.1,23.8,4.1L23.8,4.1L23.8,4.1L23.8,4.1
						C23.8,4.1,23.8,4.1,23.8,4.1C23.8,4.1,23.8,4.1,23.8,4.1C23.8,4.1,23.8,4.1,23.8,4.1"/>
					<polyline fill="#959698" points="23.8,4.1 23.8,4.1 23.8,4.1 23.8,4.1 23.8,4.1 					"/>
					<path fill="#9D9FA1" d="M24.9,4.7c0.3-0.3,0-0.7-0.7-0.7c-0.1,0-0.1,0-0.2,0c0.3-0.1,0.5-0.1,0.6,0c0,0,0.1,0,0.1,0
						c0,0,0.1,0,0.1,0l0.1,0c0,0,0.1,0.1,0.1,0.1l0,0c0,0,0,0,0,0.1l0,0c0,0.1,0,0.1,0,0.1C25.1,4.5,25,4.6,24.9,4.7
						C24.9,4.7,24.9,4.7,24.9,4.7"/>
					<path fill="#999A9C" d="M25,4.6C25.2,4.3,24.9,4,24.4,4c0.1,0,0.2,0,0.2,0c0,0,0.1,0,0.1,0c0,0,0.1,0,0.1,0l0.1,0
						c0,0,0.1,0.1,0.1,0.1l0,0c0,0,0,0,0,0.1l0,0c0,0.1,0,0.1,0,0.1C25.1,4.5,25,4.6,25,4.6C25,4.6,25,4.6,25,4.6"/>
					<path fill="#959698" d="M25,4.6c0.2-0.3-0.1-0.5-0.5-0.6c0,0,0.1,0,0.1,0c0,0,0.1,0,0.1,0c0,0,0.1,0,0.1,0l0.1,0
						c0,0,0.1,0.1,0.1,0.1l0,0c0,0,0,0,0,0.1l0,0c0,0.1,0,0.1,0,0.1C25.1,4.5,25,4.5,25,4.6C25,4.6,25,4.6,25,4.6"/>
					<path fill="#909193" d="M25,4.5C25.1,4.3,25,4.1,24.6,4c0,0,0,0,0,0c0,0,0.1,0,0.1,0c0,0,0.1,0,0.1,0l0.1,0
						c0,0,0.1,0.1,0.1,0.1l0,0c0,0,0,0,0,0.1l0,0c0,0.1,0,0.1,0,0.1C25.1,4.5,25,4.5,25,4.5C25,4.5,25,4.5,25,4.5"/>
					<g>
						<path fill="#8B8D8F" d="M24.8,4.1C24.7,4,24.7,4,24.6,4c0,0,0,0,0,0c0,0,0.1,0,0.1,0C24.7,4,24.8,4,24.8,4.1
							C24.8,4,24.8,4.1,24.8,4.1C24.8,4.1,24.8,4.1,24.8,4.1"/>
						<path fill="#8B8D8F" d="M25,4.5c0-0.1,0-0.1,0-0.2l0,0C25.1,4.4,25.1,4.4,25,4.5C25.1,4.4,25.1,4.5,25,4.5
							C25,4.5,25,4.5,25,4.5"/>
					</g>
					<path fill="#87888A" d="M25.1,4.4C25.1,4.4,25.1,4.4,25.1,4.4L25.1,4.4L25.1,4.4C25.1,4.4,25.1,4.4,25.1,4.4
						C25.1,4.5,25.1,4.4,25.1,4.4"/>
					<polyline fill="#838485" points="25.1,4.4 25.1,4.4 25.1,4.4 25.1,4.4 25.1,4.4 					"/>
				</g>
			</g>
			<g enable-background="new    ">
				<defs>
					<path id="SVGID_17_" enable-background="new    " d="M0.5,11C0.3,10.9,0,10.8,0,10.5C0,10.7,0.2,10.8,0.5,11
						C0.4,10.9,0.4,11,0.5,11z"/>
				</defs>
				<clipPath id="SVGID_18_">
					<use xlink:href="#SVGID_17_"  overflow="visible"/>
				</clipPath>
				<g clip-path="url(#SVGID_18_)" enable-background="new    ">
					<path fill="#ABADAF" d="M0.5,11C0.3,10.9,0,10.8,0,10.5C0,10.7,0.2,10.8,0.5,11C0.4,10.9,0.4,11,0.5,11"/>
					<path fill="#ABADAF" d="M0.4,10.9C0.4,10.9,0.4,11,0.4,10.9C0.4,11,0.4,11,0.4,10.9C0.4,10.9,0.3,10.9,0.4,10.9l-0.2,0
						c0,0-0.1-0.1-0.1-0.1l0,0c0,0,0,0,0-0.1l0,0c0-0.1,0-0.1,0-0.1C0,10.7,0.2,10.8,0.4,10.9"/>
					<path fill="#A7A8AA" d="M0.4,10.9C0.4,10.9,0.4,11,0.4,10.9C0.4,11,0.4,11,0.4,10.9C0.4,10.9,0.3,10.9,0.4,10.9l-0.2,0
						c0,0-0.1-0.1-0.1-0.1l0,0c0,0,0,0,0-0.1l0,0c0-0.1,0-0.1,0-0.1C0,10.7,0.2,10.8,0.4,10.9"/>
					<path fill="#A2A3A6" d="M0.4,10.9C0.4,10.9,0.4,11,0.4,10.9C0.4,11,0.4,11,0.4,10.9C0.4,10.9,0.3,10.9,0.4,10.9l-0.2,0
						c0,0-0.1-0.1-0.1-0.1l0,0c0,0,0,0,0-0.1l0,0c0-0.1,0-0.1,0-0.1C0,10.7,0.2,10.8,0.4,10.9"/>
					<path fill="#9D9FA1" d="M0.4,10.9C0.4,10.9,0.4,11,0.4,10.9C0.4,11,0.4,11,0.4,10.9C0.4,10.9,0.3,10.9,0.4,10.9l-0.2,0
						c0,0-0.1-0.1-0.1-0.1l0,0c0,0,0,0,0-0.1l0,0c0-0.1,0-0.1,0-0.1C0,10.7,0.2,10.8,0.4,10.9"/>
					<path fill="#999A9C" d="M0.4,10.9C0.4,10.9,0.4,11,0.4,10.9C0.4,11,0.4,11,0.4,10.9C0.4,10.9,0.3,10.9,0.4,10.9l-0.2,0
						c0,0-0.1-0.1-0.1-0.1l0,0c0,0,0,0,0-0.1l0,0c0-0.1,0-0.1,0-0.1C0,10.7,0.2,10.8,0.4,10.9"/>
					<path fill="#959698" d="M0.4,10.9C0.4,10.9,0.4,11,0.4,10.9C0.4,11,0.4,11,0.4,10.9C0.4,10.9,0.3,10.9,0.4,10.9l-0.2,0
						c0,0-0.1-0.1-0.1-0.1l0,0c0,0,0,0,0-0.1l0,0c0-0.1,0-0.1,0-0.1C0,10.7,0.2,10.8,0.4,10.9"/>
					<path fill="#909193" d="M0.4,10.9C0.4,10.9,0.4,11,0.4,10.9C0.4,11,0.4,11,0.4,10.9C0.4,10.9,0.3,10.9,0.4,10.9l-0.2,0
						c0,0-0.1-0.1-0.1-0.1l0,0c0,0,0,0,0-0.1l0,0c0-0.1,0-0.1,0-0.1C0,10.7,0.2,10.8,0.4,10.9"/>
					<path fill="#8B8D8F" d="M0.4,10.9C0.4,10.9,0.4,11,0.4,10.9C0.4,11,0.4,11,0.4,10.9C0.4,10.9,0.3,10.9,0.4,10.9l-0.2,0
						c0,0-0.1-0.1-0.1-0.1l0,0c0,0,0,0,0-0.1l0,0c0-0.1,0-0.1,0-0.1C0,10.7,0.2,10.8,0.4,10.9"/>
					<path fill="#87888A" d="M0.4,10.9C0.4,10.9,0.4,11,0.4,10.9C0.4,11,0.4,11,0.4,10.9C0.4,10.9,0.3,10.9,0.4,10.9l-0.2,0
						c0,0-0.1-0.1-0.1-0.1l0,0c0,0,0,0,0-0.1l0,0c0-0.1,0-0.1,0-0.1C0,10.7,0.2,10.8,0.4,10.9"/>
					<path fill="#838485" d="M0.4,10.9C0.4,10.9,0.4,11,0.4,10.9C0.4,11,0.4,11,0.4,10.9C0.4,10.9,0.3,10.9,0.4,10.9l-0.2,0
						c0,0-0.1-0.1-0.1-0.1l0,0c0,0,0,0,0-0.1l0,0c0-0.1,0-0.1,0-0.1C0,10.7,0.2,10.8,0.4,10.9"/>
					<path fill="#7E7F81" d="M0.4,10.9C0.4,10.9,0.4,11,0.4,10.9C0.4,11,0.4,11,0.4,10.9C0.4,10.9,0.3,10.9,0.4,10.9l-0.2,0
						c0,0-0.1-0.1-0.1-0.1l0,0c0,0,0,0,0-0.1l0,0c0-0.1,0-0.1,0-0.1C0,10.7,0.2,10.8,0.4,10.9"/>
					<path fill="#7A7B7C" d="M0.4,10.9C0.4,10.9,0.4,11,0.4,10.9C0.4,11,0.4,11,0.4,10.9C0.4,10.9,0.3,10.9,0.4,10.9l-0.2,0
						c0,0-0.1-0.1-0.1-0.1l0,0c0,0,0,0,0-0.1l0,0c0-0.1,0-0.1,0-0.1C0,10.7,0.2,10.8,0.4,10.9"/>
					<path fill="#757678" d="M0.4,10.9C0.4,10.9,0.4,11,0.4,10.9C0.4,11,0.4,11,0.4,10.9C0.4,10.9,0.3,10.9,0.4,10.9l-0.2,0
						c0,0-0.1-0.1-0.1-0.1l0,0c0,0,0,0,0-0.1l0,0c0-0.1,0-0.1,0-0.1C0,10.7,0.2,10.8,0.4,10.9"/>
				</g>
			</g>
			<g enable-background="new    ">
				<defs>
					<path id="SVGID_19_" enable-background="new    " d="M1.3,10.8C1.3,10.9,1.3,10.9,1.3,10.8c0.4-0.1,0.8-0.3,1.3-0.5
						c0.7,0.3,0.7,0.8,0,1.1C2.1,11.3,1.7,11.1,1.3,10.8C1.3,10.9,1.3,10.9,1.3,10.8C1.3,10.8,1.3,10.8,1.3,10.8z"/>
				</defs>
				<clipPath id="SVGID_20_">
					<use xlink:href="#SVGID_19_"  overflow="visible"/>
				</clipPath>
				<g clip-path="url(#SVGID_20_)" enable-background="new    ">
					<path fill="#ABADAF" d="M1.3,10.8c0.4-0.1,0.8-0.3,1.3-0.5c0.7,0.3,0.7,0.8,0,1.1C2.1,11.3,1.7,11.1,1.3,10.8
						C1.3,10.9,1.3,10.8,1.3,10.8"/>
					<path fill="#ABADAF" d="M1.5,11c0,0,0,0-0.2-0.1c0,0,0,0,0,0c0,0,0,0,0,0l0,0l0,0l0,0l0,0l0,0l0,0l0,0l0,0l0,0l0,0l0,0l0,0l0,0
						l0,0l0,0l0,0l0,0l0,0l0,0c0.4-0.1,0.8-0.3,1.3-0.5c0.7,0.3,0.7,0.8,0,1.1C2.2,11.3,1.9,11.1,1.5,11"/>
					<path fill="#A7A8AA" d="M2,11.2L2,11.2c0.2-0.1,0-0.3-0.2-0.3c-0.1,0-0.2,0-0.3,0c0,0-0.1,0-0.1,0c0,0,0,0,0,0c0,0,0,0,0,0l0,0
						l0,0l0,0l0,0l0,0l0,0l0,0l0,0l0,0l0,0l0,0l0,0l0,0l0,0l0,0l0,0l0,0l0,0l0,0l0,0l0,0c0.4-0.1,0.8-0.3,1.3-0.5
						c0.7,0.3,0.7,0.8,0,1.1C2.4,11.4,2.2,11.3,2,11.2"/>
					<path fill="#A2A3A6" d="M1.3,10.9L1.3,10.9L1.3,10.9L1.3,10.9L1.3,10.9L1.3,10.9L1.3,10.9L1.3,10.9L1.3,10.9L1.3,10.9L1.3,10.9
						L1.3,10.9L1.3,10.9L1.3,10.9L1.3,10.9L1.3,10.9L1.3,10.9L1.3,10.9L1.3,10.9L1.3,10.9L1.3,10.9L1.3,10.9
						C1.3,10.8,1.4,10.8,1.3,10.9C1.4,10.8,1.4,10.8,1.3,10.9C1.4,10.8,1.4,10.8,1.3,10.9C1.4,10.8,1.4,10.8,1.3,10.9
						c0.3-0.1,0.7-0.2,1.1-0.4c0,0,0,0,0,0c0,0.2-0.8,0.3-0.9,0.3c0,0-0.1,0-0.1,0C1.4,10.9,1.4,10.9,1.3,10.9
						C1.4,10.9,1.3,10.9,1.3,10.9"/>
					<g>
						<polyline fill="#9D9FA1" points="1.3,10.9 1.3,10.9 1.3,10.9 1.3,10.9 						"/>
						<path fill="#9D9FA1" d="M1.3,10.9L1.3,10.9L1.3,10.9L1.3,10.9L1.3,10.9C1.3,10.9,1.3,10.9,1.3,10.9L1.3,10.9
							C1.3,10.9,1.3,10.9,1.3,10.9L1.3,10.9C1.3,10.9,1.3,10.9,1.3,10.9L1.3,10.9C1.3,10.8,1.3,10.8,1.3,10.9L1.3,10.9
							C1.3,10.8,1.3,10.8,1.3,10.9L1.3,10.9C1.3,10.8,1.3,10.8,1.3,10.9L1.3,10.9C1.3,10.9,1.3,10.9,1.3,10.9
							C1.3,10.9,1.3,10.9,1.3,10.9C1.3,10.9,1.3,10.9,1.3,10.9C1.3,10.8,1.4,10.8,1.3,10.9C1.4,10.8,1.4,10.8,1.3,10.9
							C1.4,10.8,1.4,10.9,1.3,10.9C1.4,10.9,1.4,10.9,1.3,10.9C1.4,10.9,1.3,10.9,1.3,10.9"/>
					</g>
					<path fill="#999A9C" d="M1.3,10.9C1.3,10.9,1.3,10.9,1.3,10.9L1.3,10.9C1.3,10.9,1.3,10.9,1.3,10.9L1.3,10.9
						C1.3,10.9,1.3,10.9,1.3,10.9L1.3,10.9C1.3,10.9,1.3,10.9,1.3,10.9L1.3,10.9C1.3,10.9,1.3,10.9,1.3,10.9L1.3,10.9
						C1.3,10.8,1.3,10.8,1.3,10.9L1.3,10.9C1.3,10.8,1.3,10.8,1.3,10.9L1.3,10.9C1.3,10.8,1.3,10.8,1.3,10.9L1.3,10.9
						C1.3,10.9,1.3,10.9,1.3,10.9L1.3,10.9C1.3,10.8,1.4,10.8,1.3,10.9C1.4,10.8,1.4,10.8,1.3,10.9C1.4,10.9,1.4,10.9,1.3,10.9
						C1.3,10.9,1.3,10.9,1.3,10.9"/>
					<path fill="#959698" d="M1.3,10.9C1.3,10.9,1.3,10.9,1.3,10.9L1.3,10.9C1.3,10.9,1.3,10.9,1.3,10.9L1.3,10.9
						C1.3,10.9,1.3,10.9,1.3,10.9L1.3,10.9C1.3,10.9,1.3,10.9,1.3,10.9L1.3,10.9C1.3,10.9,1.3,10.9,1.3,10.9L1.3,10.9
						C1.3,10.8,1.3,10.8,1.3,10.9L1.3,10.9C1.3,10.8,1.3,10.8,1.3,10.9L1.3,10.9C1.3,10.8,1.3,10.8,1.3,10.9L1.3,10.9
						C1.3,10.9,1.3,10.9,1.3,10.9L1.3,10.9C1.3,10.8,1.4,10.8,1.3,10.9C1.4,10.8,1.4,10.9,1.3,10.9C1.4,10.9,1.4,10.9,1.3,10.9
						C1.3,10.9,1.3,10.9,1.3,10.9"/>
					<path fill="#909193" d="M1.3,10.9C1.3,10.9,1.3,10.9,1.3,10.9L1.3,10.9C1.3,10.9,1.3,10.9,1.3,10.9L1.3,10.9
						C1.3,10.9,1.3,10.9,1.3,10.9L1.3,10.9C1.3,10.9,1.3,10.9,1.3,10.9L1.3,10.9C1.3,10.9,1.3,10.9,1.3,10.9L1.3,10.9
						C1.3,10.8,1.3,10.8,1.3,10.9L1.3,10.9C1.3,10.8,1.3,10.8,1.3,10.9L1.3,10.9C1.3,10.8,1.3,10.8,1.3,10.9L1.3,10.9
						C1.3,10.9,1.3,10.9,1.3,10.9L1.3,10.9C1.3,10.8,1.4,10.8,1.3,10.9C1.4,10.8,1.4,10.9,1.3,10.9C1.3,10.9,1.3,10.9,1.3,10.9
						C1.3,10.9,1.3,10.9,1.3,10.9"/>
					<path fill="#8B8D8F" d="M1.3,10.9C1.3,10.9,1.3,10.9,1.3,10.9L1.3,10.9C1.3,10.9,1.3,10.9,1.3,10.9L1.3,10.9
						C1.3,10.9,1.3,10.9,1.3,10.9L1.3,10.9C1.3,10.9,1.3,10.9,1.3,10.9L1.3,10.9C1.3,10.9,1.3,10.9,1.3,10.9L1.3,10.9
						C1.3,10.8,1.3,10.8,1.3,10.9L1.3,10.9C1.3,10.8,1.3,10.8,1.3,10.9L1.3,10.9C1.3,10.8,1.3,10.8,1.3,10.9L1.3,10.9
						C1.3,10.9,1.3,10.9,1.3,10.9L1.3,10.9C1.3,10.8,1.3,10.8,1.3,10.9C1.4,10.8,1.4,10.9,1.3,10.9C1.3,10.9,1.3,10.9,1.3,10.9
						C1.3,10.9,1.3,10.9,1.3,10.9"/>
					<path fill="#87888A" d="M1.3,10.9L1.3,10.9C1.3,10.9,1.3,10.9,1.3,10.9L1.3,10.9C1.3,10.9,1.3,10.9,1.3,10.9L1.3,10.9
						C1.3,10.9,1.3,10.9,1.3,10.9L1.3,10.9C1.3,10.9,1.3,10.9,1.3,10.9L1.3,10.9C1.3,10.9,1.3,10.9,1.3,10.9L1.3,10.9
						C1.3,10.8,1.3,10.8,1.3,10.9L1.3,10.9C1.3,10.8,1.3,10.8,1.3,10.9L1.3,10.9C1.3,10.8,1.3,10.8,1.3,10.9L1.3,10.9
						C1.3,10.9,1.3,10.9,1.3,10.9L1.3,10.9C1.3,10.8,1.3,10.8,1.3,10.9C1.3,10.8,1.3,10.9,1.3,10.9C1.3,10.9,1.3,10.9,1.3,10.9
						C1.3,10.9,1.3,10.9,1.3,10.9C1.3,10.9,1.3,10.9,1.3,10.9"/>
					<g>
						<path fill="#838485" d="M1.3,10.9C1.3,10.9,1.3,10.9,1.3,10.9L1.3,10.9C1.3,10.9,1.3,10.9,1.3,10.9L1.3,10.9
							C1.3,10.8,1.3,10.8,1.3,10.9L1.3,10.9C1.3,10.8,1.3,10.8,1.3,10.9L1.3,10.9C1.3,10.8,1.3,10.8,1.3,10.9L1.3,10.9
							C1.3,10.9,1.3,10.9,1.3,10.9L1.3,10.9C1.3,10.8,1.3,10.8,1.3,10.9C1.3,10.8,1.3,10.9,1.3,10.9C1.3,10.9,1.3,10.9,1.3,10.9
							L1.3,10.9L1.3,10.9"/>
						<polyline fill="#838485" points="1.3,10.9 1.3,10.9 1.3,10.9 1.3,10.9 						"/>
					</g>
					<g>
						<polyline fill="#7E7F81" points="1.3,10.8 1.3,10.9 1.3,10.9 1.3,10.9 1.3,10.9 1.3,10.8 1.3,10.8 1.3,10.8 1.3,10.8 						
							"/>
						<polyline fill="#7E7F81" points="1.3,10.9 1.3,10.9 1.3,10.9 1.3,10.9 						"/>
					</g>
				</g>
			</g>
			<g enable-background="new    ">
				<defs>
					<path id="SVGID_21_" enable-background="new    " d="M0,10.5l0-4.1c0,0.1,0.1,0.3,0.4,0.4l0,4.1C0.2,10.8,0,10.7,0,10.5z"/>
				</defs>
				<clipPath id="SVGID_22_">
					<use xlink:href="#SVGID_21_"  overflow="visible"/>
				</clipPath>
				<g clip-path="url(#SVGID_22_)" enable-background="new    ">
					<path fill="#757678" d="M0.4,6.8l0,4.1C0.2,10.8,0,10.7,0,10.5l0-4.1C0,6.6,0.1,6.7,0.4,6.8"/>
				</g>
			</g>
			<g enable-background="new    ">
				<defs>
					<path id="SVGID_23_" enable-background="new    " d="M1.3,6.1C1.3,6.1,1.3,6.1,1.3,6.1C0.7,6.4,0.4,6.7,0.4,6.8
						C0.1,6.7,0,6.6,0,6.5C0,6.4,0,6.2,0.4,6C0.5,5.9,0.9,6,1.3,6.1C1.3,6.1,1.3,6.1,1.3,6.1z"/>
				</defs>
				<clipPath id="SVGID_24_">
					<use xlink:href="#SVGID_23_"  overflow="visible"/>
				</clipPath>
				<g clip-path="url(#SVGID_24_)" enable-background="new    ">
					<path fill="#A2A3A6" d="M1.3,6.1C1.3,6.1,1.3,6.1,1.3,6.1C0.7,6.4,0.4,6.7,0.4,6.8C0.1,6.7,0,6.6,0,6.5C0,6.3,0.1,6.1,0.4,6
						C0.5,5.9,0.9,6,1.3,6.1C1.3,6.1,1.3,6.1,1.3,6.1"/>
					<path fill="#A2A3A6" d="M1.3,6.1L1.3,6.1L1.3,6.1L1.3,6.1L1.3,6.1L1.3,6.1L1.3,6.1L1.3,6.1L1.3,6.1L1.3,6.1L1.3,6.1L1.3,6.1
						L1.3,6.1L1.3,6.1L1.3,6.1L1.3,6.1L1.3,6.1L1.3,6.1L1.3,6.1L1.3,6.1C1.3,6.1,1.2,6.1,1.3,6.1C1.2,6.2,1.2,6.2,1.3,6.1
						C1.1,6.2,1,6.2,0.9,6.3c-0.1,0-0.2,0.1-0.3,0.2C0.4,6.6,0.4,6.7,0.4,6.7c0,0.1-0.1,0.1-0.1,0.1C0.1,6.7,0,6.6,0,6.5
						c0,0,0,0,0-0.1c0,0,0,0,0-0.1l0,0c0,0,0,0,0-0.1l0,0l0,0l0,0c0,0,0,0,0.1,0l0.1,0c0,0,0.1,0,0.1,0l0.1,0l0,0
						C0.5,5.9,0.9,6,1.3,6.1"/>
					<g>
						<path fill="#9D9FA1" d="M1.3,6.1C1.3,6.1,1.3,6.1,1.3,6.1C1.3,6.1,1.2,6.1,1.3,6.1C1.2,6.2,1.2,6.2,1.3,6.1
							C1.2,6.2,1.2,6.2,1.3,6.1C1.2,6.1,1.2,6.1,1.3,6.1C1.3,6.1,1.3,6.1,1.3,6.1"/>
						<path fill="#9D9FA1" d="M1.3,6.1L1.3,6.1L1.3,6.1L1.3,6.1L1.3,6.1L1.3,6.1L1.3,6.1L1.3,6.1L1.3,6.1L1.3,6.1L1.3,6.1L1.3,6.1
							L1.3,6.1L1.3,6.1L1.3,6.1L1.3,6.1L1.3,6.1L1.3,6.1L1.3,6.1C1.1,6.2,1,6.2,0.9,6.2c-0.1,0-0.2,0.1-0.3,0.2
							C0.3,6.6,0.4,6.7,0.4,6.7c0,0,0,0.1,0,0.1C0.1,6.7,0,6.6,0,6.5c0,0,0,0,0-0.1c0,0,0,0,0-0.1l0,0c0,0,0,0,0-0.1l0,0l0,0l0,0
							c0,0,0,0,0.1,0l0.1,0c0,0,0.1,0,0.1,0l0.1,0l0,0C0.5,5.9,0.9,6,1.3,6.1"/>
					</g>
					<g>
						<path fill="#999A9C" d="M1.3,6.1C1.3,6.1,1.3,6.1,1.3,6.1C1.3,6.1,1.2,6.1,1.3,6.1C1.2,6.1,1.2,6.1,1.3,6.1
							C1.2,6.2,1.2,6.2,1.3,6.1C1.2,6.1,1.3,6.1,1.3,6.1C1.3,6.1,1.3,6.1,1.3,6.1"/>
						<path fill="#999A9C" d="M1.3,6.1L1.3,6.1L1.3,6.1L1.3,6.1L1.3,6.1L1.3,6.1L1.3,6.1L1.3,6.1L1.3,6.1L1.3,6.1L1.3,6.1L1.3,6.1
							L1.3,6.1L1.3,6.1L1.3,6.1L1.3,6.1L1.3,6.1C1.3,6.1,1.2,6.1,1.3,6.1c-0.1,0-0.5,0-0.8,0.2c0,0-0.3,0.2-0.1,0.4c0,0,0,0.1,0,0.1
							C0.1,6.7,0,6.6,0,6.5c0,0,0,0,0-0.1c0,0,0,0,0-0.1l0,0c0,0,0,0,0-0.1l0,0l0,0l0,0c0,0,0,0,0.1,0l0.1,0c0,0,0.1,0,0.1,0l0.1,0
							l0,0C0.5,5.9,0.9,6,1.3,6.1"/>
					</g>
					<g>
						<path fill="#959698" d="M1.3,6.1C1.3,6.1,1.3,6.1,1.3,6.1C1.3,6.1,1.3,6.1,1.3,6.1C1.2,6.1,1.2,6.1,1.3,6.1
							C1.2,6.1,1.2,6.1,1.3,6.1C1.2,6.1,1.3,6.1,1.3,6.1C1.3,6.1,1.3,6.1,1.3,6.1"/>
						<path fill="#959698" d="M1.3,6.1C1.3,6.1,1.3,6.1,1.3,6.1L1.3,6.1C1.3,6.1,1.3,6.1,1.3,6.1L1.3,6.1C1.3,6.1,1.3,6.1,1.3,6.1
							L1.3,6.1C1.3,6.1,1.3,6.1,1.3,6.1L1.3,6.1C1.3,6.1,1.3,6.1,1.3,6.1L1.3,6.1C1.3,6.1,1.3,6.1,1.3,6.1L1.3,6.1
							C1.3,6.1,1.3,6.1,1.3,6.1L1.3,6.1L1.3,6.1L1.3,6.1C1.3,6.1,1.2,6.1,1.3,6.1C1.2,6.1,1.2,6.1,1.3,6.1C1.3,6.1,1.3,6.1,1.3,6.1
							C1.3,6.1,1.3,6.1,1.3,6.1"/>
					</g>
					<g>
						<path fill="#909193" d="M1.3,6.1C1.3,6.1,1.3,6.1,1.3,6.1C1.3,6.1,1.3,6.1,1.3,6.1C1.2,6.1,1.2,6.1,1.3,6.1
							C1.2,6.1,1.2,6.1,1.3,6.1C1.2,6.1,1.3,6.1,1.3,6.1C1.3,6.1,1.3,6.1,1.3,6.1"/>
						<polyline fill="#909193" points="1.3,6.1 1.3,6.1 1.3,6.1 1.3,6.1 1.3,6.1 1.3,6.1 1.3,6.1 1.3,6.1 1.3,6.1 1.3,6.1 1.3,6.1 
							1.3,6.1 1.3,6.1 1.3,6.1 1.3,6.1 						"/>
					</g>
					<g>
						<path fill="#8B8D8F" d="M1.3,6.1C1.3,6.1,1.3,6.1,1.3,6.1C1.3,6.1,1.3,6.1,1.3,6.1C1.2,6.1,1.2,6.1,1.3,6.1
							C1.2,6.1,1.2,6.1,1.3,6.1C1.3,6.1,1.3,6.1,1.3,6.1C1.3,6.1,1.3,6.1,1.3,6.1"/>
						<polyline fill="#8B8D8F" points="1.3,6.1 1.3,6.1 1.3,6.1 1.3,6.1 1.3,6.1 1.3,6.1 						"/>
					</g>
					<path fill="#87888A" d="M1.3,6.1C1.3,6.1,1.3,6.1,1.3,6.1C1.3,6.1,1.3,6.1,1.3,6.1C1.3,6.1,1.3,6.1,1.3,6.1
						C1.3,6.1,1.3,6.1,1.3,6.1C1.3,6.1,1.3,6.1,1.3,6.1C1.3,6.1,1.3,6.1,1.3,6.1"/>
					<path fill="#838485" d="M1.3,6.1C1.3,6.1,1.3,6.1,1.3,6.1C1.3,6.1,1.3,6.1,1.3,6.1C1.3,6.1,1.3,6.1,1.3,6.1
						C1.3,6.1,1.3,6.1,1.3,6.1L1.3,6.1L1.3,6.1"/>
					<polyline fill="#7E7F81" points="1.3,6.1 1.3,6.1 1.3,6.1 1.3,6.1 1.3,6.1 1.3,6.1 1.3,6.1 					"/>
					<polyline fill="#7A7B7C" points="1.3,6.1 1.3,6.1 1.3,6.1 1.3,6.1 1.3,6.1 					"/>
					<polyline fill="#757678" points="1.3,6.1 1.3,6.1 1.3,6.1 1.3,6.1 					"/>
					<path fill="#959698" d="M1.1,6.1c-0.8,0.1-1,0.5-0.7,0.7c0,0,0,0,0,0c0,0,0,0,0,0.1C0.1,6.7,0,6.6,0,6.5c0,0,0,0,0-0.1
						c0,0,0,0,0-0.1l0,0c0,0,0,0,0-0.1l0,0l0,0l0,0c0,0,0,0,0.1,0l0.1,0c0,0,0.1,0,0.1,0l0.1,0l0,0C0.5,6,0.8,6,1.1,6.1"/>
					<path fill="#909193" d="M0.9,6C0.2,6.2,0,6.5,0.4,6.8c0,0,0,0,0,0.1C0.1,6.7,0,6.6,0,6.5c0,0,0,0,0-0.1c0,0,0,0,0-0.1l0,0
						c0,0,0,0,0-0.1l0,0l0,0l0,0c0,0,0,0,0.1,0l0.1,0c0,0,0.1,0,0.1,0l0.1,0l0,0C0.5,6,0.7,6,0.9,6"/>
					<path fill="#8B8D8F" d="M0.7,6L0.7,6C0,6.2,0,6.6,0.4,6.8c0,0,0,0,0,0C0.1,6.7,0,6.6,0,6.5c0,0,0,0,0-0.1c0,0,0,0,0-0.1l0,0
						c0,0,0,0,0-0.1l0,0l0,0l0,0c0,0,0,0,0.1,0l0.1,0c0,0,0.1,0,0.1,0l0.1,0l0,0C0.5,6,0.6,6,0.7,6"/>
					<path fill="#87888A" d="M0.6,6C0.1,6.2,0,6.5,0.4,6.8c0,0,0,0,0,0C0.1,6.7,0,6.6,0,6.5c0,0,0,0,0-0.1c0,0,0,0,0-0.1l0,0
						c0,0,0,0,0-0.1l0,0l0,0l0,0c0,0,0,0,0.1,0l0.1,0c0,0,0.1,0,0.1,0l0.1,0l0,0C0.5,6,0.5,6,0.6,6"/>
					<path fill="#838485" d="M0.6,6C0,6.2-0.1,6.6,0.4,6.8c0,0,0,0,0,0C0.1,6.7,0,6.6,0,6.5c0,0,0,0,0-0.1c0,0,0,0,0-0.1l0,0
						c0,0,0,0,0-0.1l0,0l0,0l0,0c0,0,0,0,0.1,0l0.1,0c0,0,0.1,0,0.1,0l0.1,0l0,0C0.5,6,0.5,6,0.6,6"/>
					<path fill="#7E7F81" d="M0.5,6C0,6.2-0.1,6.6,0.4,6.8c0,0,0,0,0,0C0.1,6.7,0,6.6,0,6.5c0,0,0,0,0-0.1c0,0,0,0,0-0.1l0,0
						c0,0,0,0,0-0.1l0,0l0,0l0,0c0,0,0,0,0.1,0l0.1,0c0,0,0.1,0,0.1,0L0.5,6L0.5,6C0.5,6,0.5,6,0.5,6"/>
					<path fill="#7A7B7C" d="M0.5,6c-0.5,0.2-0.6,0.6-0.1,0.8c0,0,0,0,0,0C0.1,6.7,0,6.6,0,6.5c0,0,0,0,0-0.1c0,0,0,0,0-0.1l0,0
						c0,0,0,0,0-0.1l0,0l0,0l0,0c0,0,0,0,0.1,0l0.1,0c0,0,0.1,0,0.1,0L0.5,6L0.5,6C0.4,6,0.5,6,0.5,6"/>
					<path fill="#757678" d="M0.4,6c-0.5,0.2-0.6,0.6-0.1,0.8C0.1,6.7,0,6.6,0,6.5c0,0,0,0,0-0.1c0,0,0,0,0-0.1l0,0c0,0,0,0,0-0.1
						l0,0l0,0l0,0c0,0,0,0,0.1,0l0.1,0C0.3,6.1,0.3,6,0.4,6L0.4,6L0.4,6C0.4,6,0.4,6,0.4,6"/>
					<path fill="#A2A3A6" d="M1.2,6.1C1.2,6.1,1.3,6.1,1.2,6.1L1.2,6.1C1.2,6.1,1.2,6.1,1.2,6.1C1.2,6.2,1.2,6.1,1.2,6.1"/>
				</g>
			</g>
			<g enable-background="new    ">
				<defs>
					<path id="SVGID_25_" enable-background="new    " d="M10.3,14.7C10.3,14.7,10.3,14.7,10.3,14.7c-0.4-0.1-0.8-0.3-1.3-0.5
						c0.7-0.3,1.8-0.3,2.5,0C11.1,14.4,10.7,14.6,10.3,14.7C10.3,14.7,10.3,14.7,10.3,14.7C10.3,14.7,10.3,14.7,10.3,14.7z"/>
				</defs>
				<clipPath id="SVGID_26_">
					<use xlink:href="#SVGID_25_"  overflow="visible"/>
				</clipPath>
				<g clip-path="url(#SVGID_26_)" enable-background="new    ">
					<path fill="#ABADAF" d="M10.3,14.7c-0.4-0.1-0.8-0.3-1.3-0.5c0.7-0.3,1.8-0.3,2.5,0C11.1,14.4,10.7,14.6,10.3,14.7
						C10.3,14.7,10.3,14.7,10.3,14.7"/>
					<path fill="#ABADAF" d="M10.3,14.7L10.3,14.7L10.3,14.7L10.3,14.7L10.3,14.7L10.3,14.7L10.3,14.7L10.3,14.7L10.3,14.7
						L10.3,14.7L10.3,14.7L10.3,14.7L10.3,14.7L10.3,14.7L10.3,14.7L10.3,14.7L10.3,14.7L10.3,14.7L10.3,14.7L10.3,14.7
						c-0.4-0.1-0.8-0.3-1.3-0.5c0.7-0.3,1.8-0.3,2.5,0C11.1,14.4,10.7,14.6,10.3,14.7"/>
					<path fill="#A7A8AA" d="M10.3,14.7L10.3,14.7L10.3,14.7L10.3,14.7L10.3,14.7L10.3,14.7L10.3,14.7L10.3,14.7L10.3,14.7
						L10.3,14.7L10.3,14.7L10.3,14.7L10.3,14.7L10.3,14.7L10.3,14.7L10.3,14.7L10.3,14.7L10.3,14.7L10.3,14.7L10.3,14.7
						c-0.4-0.1-0.8-0.3-1.3-0.5c0.7-0.3,1.8-0.3,2.5,0C11.1,14.4,10.7,14.6,10.3,14.7"/>
					<path fill="#A2A3A6" d="M10.3,14.7L10.3,14.7L10.3,14.7L10.3,14.7L10.3,14.7L10.3,14.7L10.3,14.7L10.3,14.7L10.3,14.7
						L10.3,14.7L10.3,14.7L10.3,14.7L10.3,14.7L10.3,14.7L10.3,14.7L10.3,14.7L10.3,14.7L10.3,14.7L10.3,14.7L10.3,14.7
						c-0.3-0.1-0.8-0.3-1.2-0.5c0.9-0.4,2.1-0.2,2.3,0c0,0,0,0,0,0C11,14.4,10.6,14.6,10.3,14.7"/>
					<path fill="#9D9FA1" d="M10.3,14.7L10.3,14.7L10.3,14.7L10.3,14.7L10.3,14.7L10.3,14.7L10.3,14.7L10.3,14.7L10.3,14.7
						L10.3,14.7L10.3,14.7L10.3,14.7L10.3,14.7L10.3,14.7L10.3,14.7L10.3,14.7L10.3,14.7L10.3,14.7L10.3,14.7L10.3,14.7L10.3,14.7
						c-0.2-0.1-0.4-0.1-0.6-0.2c0.3-0.2,0.8-0.1,0.8,0.1c0,0,0,0.1-0.1,0.1C10.4,14.6,10.4,14.6,10.3,14.7
						C10.4,14.6,10.4,14.6,10.3,14.7C10.4,14.6,10.4,14.6,10.3,14.7C10.4,14.6,10.3,14.6,10.3,14.7C10.3,14.7,10.3,14.7,10.3,14.7"
						/>
					<path fill="#999A9C" d="M10.3,14.7L10.3,14.7C10.3,14.7,10.3,14.7,10.3,14.7L10.3,14.7L10.3,14.7L10.3,14.7L10.3,14.7
						L10.3,14.7L10.3,14.7L10.3,14.7L10.3,14.7L10.3,14.7L10.3,14.7L10.3,14.7L10.3,14.7L10.3,14.7L10.3,14.7L10.3,14.7L10.3,14.7
						L10.3,14.7L10.3,14.7c0,0-0.1,0-0.2-0.1C10.1,14.6,10.2,14.6,10.3,14.7C10.2,14.6,10.3,14.6,10.3,14.7
						C10.3,14.6,10.4,14.6,10.3,14.7C10.4,14.6,10.3,14.6,10.3,14.7C10.3,14.7,10.3,14.7,10.3,14.7C10.3,14.7,10.3,14.7,10.3,14.7"
						/>
					<path fill="#959698" d="M10.3,14.7L10.3,14.7C10.3,14.7,10.3,14.7,10.3,14.7L10.3,14.7C10.3,14.7,10.3,14.7,10.3,14.7
						L10.3,14.7C10.3,14.7,10.3,14.7,10.3,14.7L10.3,14.7L10.3,14.7L10.3,14.7L10.3,14.7L10.3,14.7L10.3,14.7L10.3,14.7L10.3,14.7
						L10.3,14.7L10.3,14.7L10.3,14.7L10.3,14.7L10.3,14.7L10.3,14.7C10.3,14.7,10.3,14.7,10.3,14.7C10.3,14.6,10.2,14.6,10.3,14.7
						C10.3,14.6,10.3,14.6,10.3,14.7C10.3,14.6,10.3,14.6,10.3,14.7C10.3,14.7,10.3,14.7,10.3,14.7C10.3,14.7,10.3,14.7,10.3,14.7"
						/>
					<path fill="#909193" d="M10.3,14.7C10.3,14.7,10.3,14.7,10.3,14.7L10.3,14.7C10.3,14.7,10.3,14.7,10.3,14.7L10.3,14.7
						C10.3,14.7,10.3,14.7,10.3,14.7L10.3,14.7C10.3,14.7,10.3,14.7,10.3,14.7L10.3,14.7C10.3,14.7,10.3,14.7,10.3,14.7L10.3,14.7
						C10.3,14.7,10.3,14.7,10.3,14.7L10.3,14.7C10.3,14.7,10.3,14.7,10.3,14.7L10.3,14.7L10.3,14.7L10.3,14.7L10.3,14.7
						C10.3,14.7,10.3,14.7,10.3,14.7C10.3,14.6,10.3,14.6,10.3,14.7C10.3,14.6,10.3,14.6,10.3,14.7C10.3,14.6,10.3,14.6,10.3,14.7
						C10.3,14.7,10.3,14.7,10.3,14.7C10.3,14.7,10.3,14.7,10.3,14.7C10.3,14.7,10.3,14.7,10.3,14.7L10.3,14.7"/>
					<path fill="#8B8D8F" d="M10.3,14.7C10.3,14.7,10.3,14.7,10.3,14.7L10.3,14.7C10.3,14.7,10.3,14.7,10.3,14.7L10.3,14.7
						C10.3,14.7,10.3,14.7,10.3,14.7L10.3,14.7C10.3,14.7,10.3,14.7,10.3,14.7L10.3,14.7C10.3,14.7,10.3,14.7,10.3,14.7L10.3,14.7
						C10.3,14.7,10.3,14.7,10.3,14.7L10.3,14.7C10.3,14.7,10.3,14.7,10.3,14.7L10.3,14.7C10.3,14.7,10.3,14.7,10.3,14.7L10.3,14.7
						C10.3,14.7,10.3,14.7,10.3,14.7C10.3,14.7,10.3,14.7,10.3,14.7C10.3,14.6,10.3,14.6,10.3,14.7C10.3,14.6,10.3,14.6,10.3,14.7
						C10.3,14.7,10.3,14.7,10.3,14.7C10.3,14.7,10.3,14.7,10.3,14.7"/>
					<path fill="#87888A" d="M10.3,14.7C10.3,14.7,10.3,14.7,10.3,14.7L10.3,14.7C10.3,14.7,10.3,14.7,10.3,14.7L10.3,14.7
						C10.3,14.7,10.3,14.7,10.3,14.7L10.3,14.7C10.3,14.7,10.3,14.7,10.3,14.7L10.3,14.7C10.3,14.7,10.3,14.7,10.3,14.7L10.3,14.7
						C10.3,14.7,10.3,14.7,10.3,14.7L10.3,14.7C10.3,14.7,10.3,14.7,10.3,14.7L10.3,14.7C10.3,14.7,10.3,14.7,10.3,14.7
						C10.3,14.7,10.3,14.7,10.3,14.7C10.3,14.7,10.3,14.7,10.3,14.7C10.3,14.6,10.3,14.7,10.3,14.7C10.3,14.7,10.3,14.7,10.3,14.7
						L10.3,14.7L10.3,14.7"/>
					<path fill="#838485" d="M10.3,14.7C10.3,14.7,10.3,14.7,10.3,14.7L10.3,14.7C10.3,14.7,10.3,14.7,10.3,14.7L10.3,14.7
						C10.3,14.7,10.3,14.7,10.3,14.7L10.3,14.7C10.3,14.7,10.3,14.7,10.3,14.7L10.3,14.7C10.3,14.7,10.3,14.7,10.3,14.7L10.3,14.7
						C10.3,14.7,10.3,14.7,10.3,14.7L10.3,14.7C10.3,14.7,10.3,14.7,10.3,14.7L10.3,14.7C10.3,14.7,10.3,14.7,10.3,14.7
						C10.3,14.7,10.3,14.7,10.3,14.7C10.3,14.7,10.3,14.7,10.3,14.7C10.3,14.7,10.3,14.7,10.3,14.7L10.3,14.7L10.3,14.7"/>
					<polyline fill="#7E7F81" points="10.3,14.7 10.3,14.7 10.3,14.7 10.3,14.7 10.3,14.7 10.3,14.7 10.3,14.7 10.3,14.7 10.3,14.7 
						10.3,14.7 10.3,14.7 10.3,14.7 10.3,14.7 10.3,14.7 10.3,14.7 10.3,14.7 10.3,14.7 10.3,14.7 10.3,14.7 10.3,14.7 10.3,14.7 
						10.3,14.7 					"/>
					<g>
						<polyline fill="#7A7B7C" points="10.3,14.7 10.3,14.7 10.3,14.7 10.3,14.7 						"/>
						<polyline fill="#7A7B7C" points="10.3,14.7 10.3,14.7 10.3,14.7 						"/>
					</g>
				</g>
			</g>
			<g enable-background="new    ">
				<defs>
					<path id="SVGID_27_" enable-background="new    " d="M9.4,14.8l-0.9-0.4L7.6,14l-0.9-0.4l-0.9-0.4l-0.9-0.4L4,12.5l-0.9-0.4
						l-0.9-0.4l-0.9-0.4L0.5,11c0,0,0,0-0.1-0.1L9.4,14.8C9.4,14.8,9.4,14.8,9.4,14.8z"/>
				</defs>
				<clipPath id="SVGID_28_">
					<use xlink:href="#SVGID_27_"  overflow="visible"/>
				</clipPath>
				<g clip-path="url(#SVGID_28_)" enable-background="new    ">
					<path fill="#757678" d="M0.4,10.9l9,3.8c0,0,0,0.1,0.1,0.1l-0.9-0.4L7.6,14l-0.9-0.4l-0.9-0.4l-0.9-0.4L4,12.5l-0.9-0.4
						l-0.9-0.4l-0.9-0.4L0.4,10.9C0.4,11,0.4,10.9,0.4,10.9"/>
				</g>
			</g>
			<g enable-background="new    ">
				<defs>
					<path id="SVGID_29_" enable-background="new    " d="M24.7,8.9l-1.3,0.6L22,10.1l-1.3,0.6l-1.3,0.6l-1.3,0.6l-1.3,0.6L15.2,13
						l-1.3,0.6l-1.3,0.6l-1.3,0.6c0,0,0,0,0-0.1L24.7,8.9C24.7,8.9,24.7,8.9,24.7,8.9z"/>
				</defs>
				<clipPath id="SVGID_30_">
					<use xlink:href="#SVGID_29_"  overflow="visible"/>
				</clipPath>
				<g clip-path="url(#SVGID_30_)" enable-background="new    ">
					<polyline fill="#B0B1B3" points="11.2,14.7 24.7,8.9 24.7,8.9 11.2,14.7 11.2,14.7 					"/>
					<polyline fill="#ABADAF" points="11.2,14.7 24.7,8.9 24.7,8.9 11.2,14.7 11.2,14.7 					"/>
					<polyline fill="#A7A8AA" points="11.2,14.7 24.7,8.9 24.7,8.9 11.2,14.7 11.2,14.7 					"/>
					<polyline fill="#A2A3A6" points="11.2,14.7 24.7,8.9 24.7,8.9 11.2,14.7 11.2,14.7 					"/>
					<polyline fill="#9D9FA1" points="11.2,14.7 24.7,8.9 24.7,8.9 11.2,14.7 11.2,14.7 					"/>
					<polyline fill="#999A9C" points="11.2,14.7 24.7,8.9 24.7,8.9 11.2,14.7 11.2,14.7 					"/>
					<polyline fill="#959698" points="11.2,14.7 24.7,8.9 24.7,8.9 11.2,14.7 11.2,14.7 					"/>
					<polyline fill="#909193" points="11.2,14.7 24.7,8.9 24.7,8.9 11.2,14.7 11.2,14.7 					"/>
					<polyline fill="#8B8D8F" points="11.2,14.7 24.7,8.9 24.7,8.9 11.2,14.7 11.2,14.7 					"/>
					<polyline fill="#87888A" points="11.2,14.7 24.7,8.9 24.7,8.9 11.2,14.7 11.2,14.7 					"/>
					<polyline fill="#838485" points="11.2,14.7 24.7,8.9 24.7,8.9 11.2,14.7 11.2,14.7 					"/>
					<polyline fill="#7E7F81" points="11.2,14.7 24.7,8.9 24.7,8.9 11.2,14.8 11.2,14.7 					"/>
					<polyline fill="#7A7B7C" points="11.2,14.8 24.7,8.9 24.7,8.9 11.2,14.8 11.2,14.8 					"/>
					<path fill="#757678" d="M11.2,14.8l13.5-5.8c0,0,0,0,0,0l-1.3,0.6L22,10.1l-1.3,0.6l-1.3,0.6l-1.3,0.6l-1.3,0.6L15.2,13
						l-1.3,0.6l-1.3,0.6L11.2,14.8C11.2,14.8,11.2,14.8,11.2,14.8"/>
				</g>
			</g>
			<g enable-background="new    ">
				<defs>
					<path id="SVGID_31_" enable-background="new    " d="M22.5,3.5c1.2,0.5,2.2,1.1,2.2,1.3l-13.5,5.8c0-0.2-1-0.8-2.2-1.3
						C9,9.3,22.5,3.5,22.5,3.5z"/>
				</defs>
				<clipPath id="SVGID_32_">
					<use xlink:href="#SVGID_31_"  overflow="visible"/>
				</clipPath>
				<g clip-path="url(#SVGID_32_)" enable-background="new    ">
					<path fill="#A7A8AA" d="M9,9.3l13.5-5.8c0.2,0.1,0.4,0.2,0.6,0.3L9.6,9.6C9.4,9.5,9.2,9.4,9,9.3"/>
					<path fill="#ABADAF" d="M9.6,9.6l13.5-5.8c0.2,0.1,0.3,0.2,0.5,0.2L10,9.8C9.9,9.7,9.7,9.6,9.6,9.6"/>
					<path fill="#B0B1B3" d="M10,9.8L23.5,4c0.1,0.1,0.2,0.1,0.3,0.2L10.4,10C10.3,9.9,10.2,9.9,10,9.8"/>
					<path fill="#B4B6B8" d="M10.4,10l13.5-5.8c0.1,0,0.2,0.1,0.2,0.1l-13.5,5.8C10.6,10.1,10.5,10,10.4,10"/>
					<path fill="#B9BABD" d="M10.6,10.1l13.5-5.8c0.1,0,0.1,0.1,0.2,0.1l-13.5,5.8C10.7,10.2,10.7,10.2,10.6,10.1"/>
					<path fill="#BDBFC1" d="M10.8,10.2l13.5-5.8c0,0,0.1,0.1,0.1,0.1l-13.5,5.8C10.9,10.3,10.8,10.3,10.8,10.2"/>
					<path fill="#C2C3C6" d="M10.9,10.3l13.5-5.8c0,0,0.1,0,0.1,0.1L10.9,10.3C10.9,10.4,10.9,10.3,10.9,10.3"/>
					<path fill="#C6C8CA" d="M11,10.4l13.5-5.8c0,0,0,0,0.1,0L11,10.4C11,10.4,11,10.4,11,10.4"/>
					<path fill="#CBCCCF" d="M11,10.4l13.5-5.8c0,0,0,0,0,0L11,10.4C11,10.4,11,10.4,11,10.4"/>
					<path fill="#CFD1D4" d="M11.1,10.5l13.5-5.8c0,0,0,0,0,0L11.1,10.5C11.1,10.5,11.1,10.5,11.1,10.5"/>
					<path fill="#D3D5D8" d="M11.1,10.5l13.5-5.8c0,0,0,0,0,0L11.1,10.5C11.1,10.5,11.1,10.5,11.1,10.5"/>
					<path fill="#D8DADD" d="M11.1,10.5l13.5-5.8c0,0,0,0,0,0L11.1,10.5C11.1,10.5,11.1,10.5,11.1,10.5"/>
					<path fill="#DCDEE1" d="M11.1,10.5l13.5-5.8c0,0,0,0,0,0L11.1,10.5C11.1,10.5,11.1,10.5,11.1,10.5"/>
					<path fill="#E1E3E6" d="M11.1,10.5l13.5-5.8c0,0,0,0,0,0L11.1,10.5C11.1,10.6,11.1,10.6,11.1,10.5"/>
					<path fill="#E5E6E9" d="M11.1,10.6l13.5-5.8c0,0,0,0,0,0L11.1,10.6C11.2,10.6,11.2,10.6,11.1,10.6"/>
					<path fill="#E1E3E6" d="M11.2,10.6l13.5-5.8c0,0,0,0,0,0L11.2,10.6C11.2,10.6,11.2,10.6,11.2,10.6"/>
					<polyline fill="#DCDEE1" points="11.2,10.6 24.7,4.8 24.7,4.8 11.2,10.6 11.2,10.6 					"/>
					<polyline fill="#D8DADD" points="11.2,10.6 24.7,4.8 24.7,4.8 11.2,10.6 11.2,10.6 					"/>
					<polyline fill="#D3D5D8" points="11.2,10.6 24.7,4.8 24.7,4.8 11.2,10.6 11.2,10.6 					"/>
					<polyline fill="#CFD1D4" points="11.2,10.6 24.7,4.8 24.7,4.8 11.2,10.6 11.2,10.6 					"/>
					<polyline fill="#CBCCCF" points="11.2,10.6 24.7,4.8 24.7,4.8 11.2,10.6 11.2,10.6 					"/>
					<polyline fill="#C6C8CA" points="11.2,10.6 24.7,4.8 24.7,4.8 11.2,10.6 11.2,10.6 					"/>
					<polyline fill="#C2C3C6" points="11.2,10.6 24.7,4.8 24.7,4.8 11.2,10.6 11.2,10.6 					"/>
					<polyline fill="#BDBFC1" points="11.2,10.6 24.7,4.8 24.7,4.8 11.2,10.6 11.2,10.6 					"/>
					<polyline fill="#B9BABD" points="11.2,10.6 24.7,4.8 24.7,4.8 11.2,10.6 11.2,10.6 					"/>
					<polyline fill="#B4B6B8" points="11.2,10.6 24.7,4.8 24.7,4.8 11.2,10.6 11.2,10.6 					"/>
					<polyline fill="#B0B1B3" points="11.2,10.6 24.7,4.8 24.7,4.8 11.2,10.6 11.2,10.6 					"/>
				</g>
			</g>
			<g enable-background="new    ">
				<defs>
					<path id="SVGID_33_" enable-background="new    " d="M11.5,9.3c-1.2,0.5-2.2,1.1-2.2,1.4l-9-3.8c0-0.2,1-0.8,2.2-1.4
						C2.6,5.5,11.5,9.3,11.5,9.3z"/>
				</defs>
				<clipPath id="SVGID_34_">
					<use xlink:href="#SVGID_33_"  overflow="visible"/>
				</clipPath>
				<g clip-path="url(#SVGID_34_)" enable-background="new    ">
					<path fill="#A7A8AA" d="M2.6,5.5l9,3.8c-1,0.4-1.8,0.9-2.1,1.2l-9-3.8C0.7,6.4,1.6,5.9,2.6,5.5"/>
					<path fill="#A2A3A6" d="M0.5,6.7l9,3.8c0,0,0,0,0,0L0.5,6.7C0.4,6.7,0.4,6.7,0.5,6.7"/>
					<path fill="#9D9FA1" d="M0.4,6.7l9,3.8c0,0,0,0,0,0L0.4,6.7C0.4,6.8,0.4,6.7,0.4,6.7"/>
					<polyline fill="#999A9C" points="0.4,6.8 9.4,10.6 9.4,10.6 0.4,6.8 0.4,6.8 					"/>
					<polyline fill="#959698" points="0.4,6.8 9.4,10.6 9.4,10.6 0.4,6.8 0.4,6.8 					"/>
					<polyline fill="#909193" points="0.4,6.8 9.4,10.6 9.4,10.6 0.4,6.8 0.4,6.8 					"/>
					<polyline fill="#8B8D8F" points="0.4,6.8 9.4,10.6 9.4,10.6 0.4,6.8 0.4,6.8 					"/>
					<polyline fill="#87888A" points="0.4,6.8 9.4,10.6 9.4,10.6 0.4,6.8 0.4,6.8 					"/>
					<polyline fill="#838485" points="0.4,6.8 9.4,10.6 9.4,10.6 0.4,6.8 0.4,6.8 					"/>
					<polyline fill="#7E7F81" points="0.4,6.8 9.4,10.6 9.4,10.6 0.4,6.8 0.4,6.8 					"/>
					<polyline fill="#7A7B7C" points="0.4,6.8 9.4,10.6 9.4,10.7 0.4,6.8 0.4,6.8 					"/>
					<polyline fill="#757678" points="0.4,6.8 9.4,10.7 9.4,10.7 0.4,6.8 0.4,6.8 					"/>
				</g>
			</g>
			<g>
				<path fill="#B2B3B6" d="M22.5,4.6c-0.7-0.3-0.7-0.8,0-1.1C18,5.4,13.5,7.4,9,9.3c0.7-0.3,1.8-0.3,2.5,0c-3-1.3-6-2.5-9-3.8
					c0.7,0.3,0.7,0.8,0,1.1c4.5-1.9,9-3.9,13.5-5.8c-0.7,0.3-1.9,0.3-2.5,0C16.5,2,19.5,3.3,22.5,4.6z"/>
			</g>
			<g enable-background="new    ">
				<defs>
					<path id="SVGID_35_" enable-background="new    " d="M11.2,14.8c-0.1,0-0.4,0.2-0.9,0.2c-0.2,0-0.4,0-0.4,0
						c-0.2,0-0.3-0.1-0.4-0.1c0,0,0,0-0.1-0.1C9.9,14.9,10.7,14.9,11.2,14.8C11.2,14.7,11.2,14.8,11.2,14.8z"/>
				</defs>
				<clipPath id="SVGID_36_">
					<use xlink:href="#SVGID_35_"  overflow="visible"/>
				</clipPath>
				<g clip-path="url(#SVGID_36_)" enable-background="new    ">
					<path fill="#ABADAF" d="M11.2,14.8c-0.5,0.2-1.2,0.2-1.7,0c0,0-0.1,0-0.1-0.1C9.9,14.9,10.7,14.9,11.2,14.8
						C11.2,14.7,11.2,14.8,11.2,14.8"/>
					<path fill="#ABADAF" d="M9.4,14.7c0.3,0.1,0.8,0.2,1.3,0.1c0,0,0,0,0.1,0c0.2,0,0.3-0.1,0.5-0.1c0,0,0,0.1,0,0.1
						c0,0-0.1,0-0.1,0c0,0-0.1,0-0.1,0l-0.1,0c0,0-0.1,0-0.1,0l-0.1,0c0,0-0.1,0-0.1,0l-0.1,0c0,0-0.1,0-0.1,0l-0.1,0
						c0,0-0.1,0-0.1,0l-0.1,0c0,0-0.1,0-0.1,0l-0.1,0c0,0-0.1,0-0.1,0l-0.1,0c0,0-0.1,0-0.1,0l-0.1,0c0,0-0.1,0-0.1,0l-0.1,0
						C9.5,14.8,9.5,14.8,9.4,14.7C9.4,14.8,9.4,14.8,9.4,14.7"/>
					<path fill="#A7A8AA" d="M9.4,14.7c0.3,0.1,0.7,0.2,1.1,0.1c0,0,0,0,0,0c0.3,0,0.5-0.1,0.7-0.2c0,0,0,0,0,0.1c0,0-0.1,0-0.1,0
						c0,0-0.1,0-0.1,0l-0.1,0c0,0-0.1,0-0.1,0l-0.1,0c0,0-0.1,0-0.1,0l-0.1,0c0,0-0.1,0-0.1,0l-0.1,0c0,0-0.1,0-0.1,0l-0.1,0
						c0,0-0.1,0-0.1,0l-0.1,0c0,0-0.1,0-0.1,0l-0.1,0c0,0-0.1,0-0.1,0l-0.1,0c0,0-0.1,0-0.1,0l-0.1,0C9.5,14.8,9.5,14.8,9.4,14.7
						C9.4,14.8,9.4,14.8,9.4,14.7"/>
					<path fill="#A2A3A6" d="M9.4,14.7c0.3,0.1,0.7,0.2,1,0.2c0,0,0,0,0,0c0.3,0,0.6-0.1,0.8-0.2c0,0,0,0,0,0.1c0,0-0.1,0-0.1,0
						c0,0-0.1,0-0.1,0l-0.1,0c0,0-0.1,0-0.1,0l-0.1,0c0,0-0.1,0-0.1,0l-0.1,0c0,0-0.1,0-0.1,0l-0.1,0c0,0-0.1,0-0.1,0l-0.1,0
						c0,0-0.1,0-0.1,0l-0.1,0c0,0-0.1,0-0.1,0l-0.1,0c0,0-0.1,0-0.1,0l-0.1,0c0,0-0.1,0-0.1,0l-0.1,0C9.5,14.8,9.5,14.8,9.4,14.7
						C9.4,14.8,9.4,14.8,9.4,14.7"/>
					<path fill="#9D9FA1" d="M9.4,14.7c0.3,0.1,0.6,0.2,0.9,0.2c0,0,0,0,0.1,0c0.3,0,0.6-0.1,0.9-0.2c0,0,0,0,0,0.1c0,0-0.1,0-0.1,0
						c0,0-0.1,0-0.1,0l-0.1,0c0,0-0.1,0-0.1,0l-0.1,0c0,0-0.1,0-0.1,0l-0.1,0c0,0-0.1,0-0.1,0l-0.1,0c0,0-0.1,0-0.1,0l-0.1,0
						c0,0-0.1,0-0.1,0l-0.1,0c0,0-0.1,0-0.1,0l-0.1,0c0,0-0.1,0-0.1,0l-0.1,0c0,0-0.1,0-0.1,0l-0.1,0C9.5,14.8,9.5,14.8,9.4,14.7
						C9.4,14.8,9.4,14.8,9.4,14.7"/>
					<path fill="#999A9C" d="M9.4,14.7c0.2,0.1,0.5,0.1,0.8,0.2c0,0,0,0,0,0c0.4,0,0.7,0,1-0.2c0,0,0,0,0,0.1c0,0-0.1,0-0.1,0
						c0,0-0.1,0-0.1,0l-0.1,0c0,0-0.1,0-0.1,0l-0.1,0c0,0-0.1,0-0.1,0l-0.1,0c0,0-0.1,0-0.1,0l-0.1,0c0,0-0.1,0-0.1,0l-0.1,0
						c0,0-0.1,0-0.1,0l-0.1,0c0,0-0.1,0-0.1,0l-0.1,0c0,0-0.1,0-0.1,0l-0.1,0c0,0-0.1,0-0.1,0l-0.1,0C9.5,14.8,9.5,14.8,9.4,14.7
						C9.4,14.8,9.4,14.8,9.4,14.7"/>
					<path fill="#959698" d="M9.4,14.7c0.2,0.1,0.5,0.1,0.7,0.2c0,0,0,0,0,0c0.6,0,0.9-0.1,1.1-0.2c0,0,0,0,0,0.1c0,0-0.1,0-0.1,0
						c0,0-0.1,0-0.1,0l-0.1,0c0,0-0.1,0-0.1,0l-0.1,0c0,0-0.1,0-0.1,0l-0.1,0c0,0-0.1,0-0.1,0l-0.1,0c0,0-0.1,0-0.1,0l-0.1,0
						c0,0-0.1,0-0.1,0l-0.1,0c0,0-0.1,0-0.1,0l-0.1,0c0,0-0.1,0-0.1,0l-0.1,0c0,0-0.1,0-0.1,0l-0.1,0C9.5,14.8,9.5,14.8,9.4,14.7
						C9.4,14.8,9.4,14.8,9.4,14.7"/>
					<path fill="#909193" d="M9.4,14.7c0.2,0.1,0.4,0.1,0.6,0.1c0,0,0,0,0,0c0.4,0,0.8,0,1.2-0.1c0,0,0,0,0,0.1c0,0-0.1,0-0.1,0
						c0,0-0.1,0-0.1,0l-0.1,0c0,0-0.1,0-0.1,0l-0.1,0c0,0-0.1,0-0.1,0l-0.1,0c0,0-0.1,0-0.1,0l-0.1,0c0,0-0.1,0-0.1,0l-0.1,0
						c0,0-0.1,0-0.1,0l-0.1,0c0,0-0.1,0-0.1,0l-0.1,0c0,0-0.1,0-0.1,0l-0.1,0c0,0-0.1,0-0.1,0l-0.1,0C9.5,14.8,9.5,14.8,9.4,14.7
						C9.4,14.8,9.4,14.8,9.4,14.7"/>
					<path fill="#8B8D8F" d="M9.4,14.7c0.2,0.1,0.3,0.1,0.5,0.1c0,0,0,0,0,0c0.5,0.1,0.9,0,1.3-0.1c0,0,0,0,0,0c0,0-0.1,0-0.1,0
						c0,0-0.1,0-0.1,0l-0.1,0c0,0-0.1,0-0.1,0l-0.1,0c0,0-0.1,0-0.1,0l-0.1,0c0,0-0.1,0-0.1,0l-0.1,0c0,0-0.1,0-0.1,0l-0.1,0
						c0,0-0.1,0-0.1,0l-0.1,0c0,0-0.1,0-0.1,0l-0.1,0c0,0-0.1,0-0.1,0l-0.1,0c0,0-0.1,0-0.1,0l-0.1,0C9.5,14.8,9.5,14.8,9.4,14.7
						C9.4,14.8,9.4,14.8,9.4,14.7"/>
					<path fill="#87888A" d="M9.4,14.7c0.1,0.1,0.3,0.1,0.4,0.1c0,0,0,0,0,0c0.5,0.1,1,0,1.3-0.1c0,0,0,0,0,0c0,0-0.1,0-0.1,0
						c0,0-0.1,0-0.1,0l-0.1,0c0,0-0.1,0-0.1,0l-0.1,0c0,0-0.1,0-0.1,0l-0.1,0c0,0-0.1,0-0.1,0l-0.1,0c0,0-0.1,0-0.1,0l-0.1,0
						c0,0-0.1,0-0.1,0l-0.1,0c0,0-0.1,0-0.1,0l-0.1,0c0,0-0.1,0-0.1,0l-0.1,0c0,0-0.1,0-0.1,0l-0.1,0C9.5,14.8,9.5,14.8,9.4,14.7
						C9.4,14.8,9.4,14.8,9.4,14.7"/>
					<path fill="#838485" d="M9.4,14.7c0.1,0,0.2,0.1,0.4,0.1c0,0,0,0,0,0c0.5,0.1,1.1,0.1,1.5-0.1c0,0,0,0,0,0c0,0-0.1,0-0.1,0
						c0,0-0.1,0-0.1,0l-0.1,0c0,0-0.1,0-0.1,0l-0.1,0c0,0-0.1,0-0.1,0l-0.1,0c0,0-0.1,0-0.1,0l-0.1,0c0,0-0.1,0-0.1,0l-0.1,0
						c0,0-0.1,0-0.1,0l-0.1,0c0,0-0.1,0-0.1,0l-0.1,0c0,0-0.1,0-0.1,0l-0.1,0c0,0-0.1,0-0.1,0l-0.1,0C9.5,14.8,9.5,14.8,9.4,14.7
						C9.4,14.8,9.4,14.8,9.4,14.7"/>
					<path fill="#7E7F81" d="M9.4,14.7c0.1,0,0.2,0.1,0.3,0.1c0,0,0,0,0,0c0.5,0.1,1.1,0.1,1.5-0.1c0,0,0,0,0,0c0,0-0.1,0-0.1,0
						c0,0-0.1,0-0.1,0l-0.1,0c0,0-0.1,0-0.1,0l-0.1,0c0,0-0.1,0-0.1,0l-0.1,0c0,0-0.1,0-0.1,0l-0.1,0c0,0-0.1,0-0.1,0l-0.1,0
						c0,0-0.1,0-0.1,0l-0.1,0c0,0-0.1,0-0.1,0l-0.1,0c0,0-0.1,0-0.1,0l-0.1,0c0,0-0.1,0-0.1,0l-0.1,0C9.5,14.8,9.5,14.8,9.4,14.7
						C9.4,14.8,9.4,14.8,9.4,14.7"/>
					<path fill="#7A7B7C" d="M9.4,14.7c0.1,0,0.1,0,0.2,0.1c0,0,0,0,0,0c0.5,0.2,1.2,0.1,1.6-0.1c0,0,0,0,0,0c0,0-0.1,0-0.1,0
						c0,0-0.1,0-0.1,0l-0.1,0c0,0-0.1,0-0.1,0l-0.1,0c0,0-0.1,0-0.1,0l-0.1,0c0,0-0.1,0-0.1,0l-0.1,0c0,0-0.1,0-0.1,0l-0.1,0
						c0,0-0.1,0-0.1,0l-0.1,0c0,0-0.1,0-0.1,0l-0.1,0c0,0-0.1,0-0.1,0l-0.1,0c0,0-0.1,0-0.1,0l-0.1,0C9.5,14.8,9.5,14.8,9.4,14.7
						C9.4,14.8,9.4,14.8,9.4,14.7"/>
					<path fill="#757678" d="M9.4,14.7C9.4,14.7,9.4,14.7,9.4,14.7C9.4,14.7,9.4,14.7,9.4,14.7c0.5,0.2,1.3,0.2,1.8,0c0,0,0,0,0,0
						c0,0-0.1,0-0.1,0c0,0-0.1,0-0.1,0l-0.1,0c0,0-0.1,0-0.1,0l-0.1,0c0,0-0.1,0-0.1,0l-0.1,0c0,0-0.1,0-0.1,0l-0.1,0
						c0,0-0.1,0-0.1,0l-0.1,0c0,0-0.1,0-0.1,0l-0.1,0c0,0-0.1,0-0.1,0l-0.1,0c0,0-0.1,0-0.1,0l-0.1,0c0,0-0.1,0-0.1,0l-0.1,0
						C9.5,14.8,9.5,14.8,9.4,14.7C9.4,14.8,9.4,14.8,9.4,14.7"/>
				</g>
			</g>
			<g>
				<polygon fill="#7E7F81" points="9.4,10.7 9.4,14.7 0.4,10.9 0.4,6.8 				"/>
			</g>
			<g>
				<polygon fill="#BBBCBF" points="24.7,4.8 24.7,8.9 11.2,14.7 11.2,10.6 				"/>
			</g>
			<g enable-background="new    ">
				<defs>
					<path id="SVGID_37_" enable-background="new    " d="M11.2,10.6l0,4.1c-0.5,0.2-1.3,0.2-1.8,0l0-4.1
						C9.9,10.9,10.7,10.9,11.2,10.6z"/>
				</defs>
				<clipPath id="SVGID_38_">
					<use xlink:href="#SVGID_37_"  overflow="visible"/>
				</clipPath>
				<g clip-path="url(#SVGID_38_)" enable-background="new    ">
					<path fill="#B0B1B3" d="M11.2,10.6l0,4.1c-0.2,0.1-0.3,0.1-0.5,0.1l0-4.1C10.8,10.8,11,10.7,11.2,10.6"/>
					<path fill="#ABADAF" d="M10.6,10.8l0,4.1c0,0-0.1,0-0.1,0l0-4.1C10.5,10.8,10.6,10.8,10.6,10.8"/>
					<path fill="#A7A8AA" d="M10.5,10.8l0,4.1c0,0-0.1,0-0.1,0l0-4.1C10.4,10.8,10.5,10.8,10.5,10.8"/>
					<path fill="#A2A3A6" d="M10.4,10.8l0,4.1c0,0-0.1,0-0.1,0l0-4.1C10.3,10.8,10.3,10.8,10.4,10.8"/>
					<path fill="#9D9FA1" d="M10.3,10.8l0,4.1c0,0-0.1,0-0.1,0L10.3,10.8C10.2,10.8,10.2,10.8,10.3,10.8"/>
					<path fill="#999A9C" d="M10.2,10.8l0,4.1c0,0-0.1,0-0.1,0L10.2,10.8C10.1,10.8,10.1,10.8,10.2,10.8"/>
					<path fill="#959698" d="M10.1,10.8l0,4.1c0,0-0.1,0-0.1,0L10.1,10.8C10,10.8,10,10.8,10.1,10.8"/>
					<path fill="#909193" d="M10,10.8l0,4.1c0,0-0.1,0-0.1,0L10,10.8C9.9,10.8,10,10.8,10,10.8"/>
					<path fill="#8B8D8F" d="M9.9,10.8l0,4.1c0,0-0.1,0-0.1,0L9.9,10.8C9.8,10.8,9.9,10.8,9.9,10.8"/>
					<path fill="#87888A" d="M9.8,10.8l0,4.1c0,0-0.1,0-0.1,0L9.8,10.8C9.7,10.8,9.8,10.8,9.8,10.8"/>
					<path fill="#838485" d="M9.7,10.8l0,4.1c0,0-0.1,0-0.1,0L9.7,10.8C9.7,10.8,9.7,10.8,9.7,10.8"/>
					<path fill="#7E7F81" d="M9.6,10.7l0,4.1c0,0-0.1,0-0.1,0l0-4.1C9.6,10.7,9.6,10.7,9.6,10.7"/>
					<path fill="#7A7B7C" d="M9.5,10.7l0,4.1c0,0-0.1,0-0.1,0l0-4.1C9.4,10.7,9.5,10.7,9.5,10.7"/>
					<path fill="#757678" d="M9.4,10.7l0,4.1c0,0,0,0,0,0L9.4,10.7C9.4,10.7,9.4,10.7,9.4,10.7"/>
				</g>
			</g>
			<g enable-background="new    ">
				<defs>
					<path id="SVGID_39_" enable-background="new    " d="M10.3,9.9C10.3,9.9,10.3,9.9,10.3,9.9c0.6,0.3,0.9,0.6,0.9,0.7
						c-0.5,0.2-1.3,0.2-1.8,0C9.4,10.5,9.7,10.2,10.3,9.9z"/>
				</defs>
				<clipPath id="SVGID_40_">
					<use xlink:href="#SVGID_39_"  overflow="visible"/>
				</clipPath>
				<g clip-path="url(#SVGID_40_)" enable-background="new    ">
					<path fill="#E5E6E9" d="M10.3,9.9C10.3,9.9,10.3,9.9,10.3,9.9c0.6,0.3,0.9,0.6,0.9,0.7c-0.5,0.2-1.3,0.2-1.8,0
						C9.4,10.5,9.7,10.2,10.3,9.9"/>
					<path fill="#E5E6E9" d="M10.3,9.9L10.3,9.9L10.3,9.9L10.3,9.9L10.3,9.9L10.3,9.9L10.3,9.9L10.3,9.9L10.3,9.9L10.3,9.9L10.3,9.9
						L10.3,9.9L10.3,9.9L10.3,9.9L10.3,9.9L10.3,9.9L10.3,9.9L10.3,9.9L10.3,9.9L10.3,9.9c0.5,0.3,0.8,0.5,0.9,0.6c0,0,0,0-0.1,0
						c0,0-0.9,0.1-0.9,0.2c0,0.1,0.6,0.1,0.9-0.1c0.1,0,0.1,0,0.1-0.1c0,0,0,0,0,0.1c-0.5,0.2-1.3,0.2-1.8,0
						C9.4,10.5,9.7,10.2,10.3,9.9"/>
					<path fill="#E1E3E6" d="M10.3,9.9L10.3,9.9L10.3,9.9L10.3,9.9L10.3,9.9L10.3,9.9L10.3,9.9L10.3,9.9L10.3,9.9L10.3,9.9L10.3,9.9
						L10.3,9.9L10.3,9.9L10.3,9.9L10.3,9.9L10.3,9.9L10.3,9.9L10.3,9.9L10.3,9.9L10.3,9.9c0.5,0.2,0.8,0.5,0.9,0.6c0,0,0,0-0.1,0
						c-0.3,0.1-0.6,0.1-0.9,0.2c0,0,0.6,0.1,1-0.1c0,0,0,0,0,0c-0.5,0.2-1.3,0.2-1.8,0C9.4,10.5,9.7,10.2,10.3,9.9"/>
					<path fill="#DCDEE1" d="M10.3,9.9L10.3,9.9L10.3,9.9L10.3,9.9L10.3,9.9L10.3,9.9L10.3,9.9L10.3,9.9L10.3,9.9L10.3,9.9L10.3,9.9
						L10.3,9.9L10.3,9.9L10.3,9.9L10.3,9.9L10.3,9.9L10.3,9.9L10.3,9.9L10.3,9.9L10.3,9.9c0.4,0.2,0.8,0.5,0.9,0.6c0,0,0,0,0,0
						c-0.2,0-0.4,0.1-0.6,0.1c-0.1,0-0.3,0-0.4,0.1c0.1,0.1,0.6,0.1,1.1-0.1c0,0,0,0,0,0c-0.5,0.2-1.3,0.2-1.8,0
						C9.4,10.5,9.7,10.2,10.3,9.9"/>
					<path fill="#D8DADD" d="M10.3,9.9L10.3,9.9L10.3,9.9L10.3,9.9L10.3,9.9L10.3,9.9L10.3,9.9L10.3,9.9L10.3,9.9L10.3,9.9L10.3,9.9
						L10.3,9.9L10.3,9.9L10.3,9.9L10.3,9.9L10.3,9.9L10.3,9.9L10.3,9.9L10.3,9.9L10.3,9.9c0.4,0.2,0.7,0.4,0.9,0.6c0,0,0,0,0,0
						c-0.4,0.1-0.4,0.1-0.5,0.1c-0.4,0.1-0.4,0.1-0.5,0.1c0.1,0.1,0.7,0.1,1.1-0.1c0,0,0,0,0,0c-0.5,0.2-1.3,0.2-1.8,0
						C9.4,10.5,9.7,10.2,10.3,9.9"/>
					<path fill="#D3D5D8" d="M10.3,9.9L10.3,9.9L10.3,9.9L10.3,9.9L10.3,9.9L10.3,9.9L10.3,9.9L10.3,9.9L10.3,9.9L10.3,9.9L10.3,9.9
						L10.3,9.9L10.3,9.9L10.3,9.9L10.3,9.9L10.3,9.9L10.3,9.9L10.3,9.9L10.3,9.9L10.3,9.9c0.4,0.2,0.7,0.4,0.8,0.6c0,0,0,0,0,0
						c-0.3,0.1-0.6,0.1-0.6,0.1c-0.4,0.1-0.4,0.1-0.4,0.1c0.1,0,0.6,0.1,1.1-0.1c0,0,0,0,0,0c-0.5,0.2-1.3,0.2-1.8,0
						C9.4,10.5,9.7,10.2,10.3,9.9"/>
					<path fill="#CFD1D4" d="M10.3,9.9L10.3,9.9L10.3,9.9L10.3,9.9L10.3,9.9L10.3,9.9L10.3,9.9L10.3,9.9L10.3,9.9L10.3,9.9L10.3,9.9
						L10.3,9.9L10.3,9.9L10.3,9.9L10.3,9.9L10.3,9.9L10.3,9.9L10.3,9.9L10.3,9.9L10.3,9.9c0.4,0.2,0.7,0.4,0.8,0.6c0,0,0,0,0,0
						c-0.2,0-0.4,0.1-0.6,0.1C10,10.7,10,10.7,10,10.7c0,0,0.6,0.1,1.1-0.1c0,0,0,0,0,0c-0.5,0.2-1.3,0.2-1.8,0
						C9.4,10.5,9.7,10.2,10.3,9.9"/>
					<path fill="#CBCCCF" d="M10.3,9.9L10.3,9.9L10.3,9.9L10.3,9.9L10.3,9.9L10.3,9.9L10.3,9.9L10.3,9.9L10.3,9.9L10.3,9.9L10.3,9.9
						L10.3,9.9L10.3,9.9L10.3,9.9L10.3,9.9L10.3,9.9L10.3,9.9L10.3,9.9L10.3,9.9L10.3,9.9c0.4,0.2,0.6,0.4,0.8,0.5c0,0,0,0,0,0
						c-0.1,0-0.3,0.1-0.4,0.1C10,10.7,10,10.7,10,10.7c0,0,0.6,0.2,1.2-0.1c0,0,0,0,0,0c-0.5,0.2-1.3,0.2-1.8,0
						C9.4,10.5,9.7,10.2,10.3,9.9"/>
					<path fill="#C6C8CA" d="M10.3,9.9L10.3,9.9L10.3,9.9L10.3,9.9L10.3,9.9L10.3,9.9L10.3,9.9L10.3,9.9L10.3,9.9L10.3,9.9L10.3,9.9
						L10.3,9.9L10.3,9.9L10.3,9.9L10.3,9.9L10.3,9.9L10.3,9.9L10.3,9.9L10.3,9.9L10.3,9.9c0.3,0.2,0.6,0.3,0.8,0.5c0,0,0,0,0,0
						c-0.3,0.1-0.6,0.1-0.9,0.2c0,0-0.1,0-0.1,0c0,0,0,0,0,0c0,0,0.6,0.2,1.2-0.1c0,0,0,0,0,0c-0.5,0.2-1.3,0.2-1.8,0
						C9.4,10.5,9.7,10.2,10.3,9.9"/>
					<path fill="#C2C3C6" d="M10.3,9.9L10.3,9.9L10.3,9.9L10.3,9.9L10.3,9.9L10.3,9.9L10.3,9.9L10.3,9.9L10.3,9.9L10.3,9.9L10.3,9.9
						L10.3,9.9L10.3,9.9L10.3,9.9L10.3,9.9L10.3,9.9L10.3,9.9L10.3,9.9L10.3,9.9L10.3,9.9c0.3,0.2,0.5,0.3,0.7,0.4c0,0,0,0,0,0
						c0,0-1,0.3-1,0.3c0,0,0,0,0,0c0,0,0.6,0.2,1.3-0.1c0,0,0,0,0,0c-0.5,0.2-1.3,0.2-1.8,0C9.4,10.5,9.7,10.2,10.3,9.9"/>
					<path fill="#BDBFC1" d="M10.3,9.9L10.3,9.9L10.3,9.9L10.3,9.9L10.3,9.9L10.3,9.9L10.3,9.9L10.3,9.9L10.3,9.9L10.3,9.9L10.3,9.9
						L10.3,9.9L10.3,9.9L10.3,9.9L10.3,9.9L10.3,9.9L10.3,9.9L10.3,9.9L10.3,9.9L10.3,9.9c0.3,0.1,0.5,0.3,0.6,0.4c0,0,0,0,0,0
						c-0.2,0-1,0.3-1,0.4c0,0.1,0.7,0.2,1.3-0.1c0,0,0,0,0,0c-0.5,0.2-1.3,0.2-1.8,0C9.4,10.5,9.7,10.2,10.3,9.9"/>
					<path fill="#B9BABD" d="M10.3,9.9L10.3,9.9L10.3,9.9L10.3,9.9L10.3,9.9L10.3,9.9L10.3,9.9L10.3,9.9L10.3,9.9L10.3,9.9L10.3,9.9
						L10.3,9.9L10.3,9.9L10.3,9.9L10.3,9.9L10.3,9.9L10.3,9.9L10.3,9.9L10.3,9.9L10.3,9.9c0.2,0.1,0.4,0.2,0.5,0.3c0,0,0,0,0,0
						c-0.1,0-1.1,0.3-0.9,0.5c0.1,0.1,0.8,0.2,1.3-0.1c-0.5,0.2-1.3,0.2-1.8,0C9.4,10.5,9.7,10.2,10.3,9.9"/>
					<path fill="#B4B6B8" d="M10.3,9.9L10.3,9.9L10.3,9.9L10.3,9.9L10.3,9.9L10.3,9.9L10.3,9.9L10.3,9.9L10.3,9.9L10.3,9.9L10.3,9.9
						L10.3,9.9L10.3,9.9L10.3,9.9L10.3,9.9L10.3,9.9L10.3,9.9L10.3,9.9L10.3,9.9L10.3,9.9c0.1,0.1,0.3,0.1,0.4,0.2c0,0,0,0,0,0
						c0,0-0.1,0-0.1,0c0,0-0.6,0.4-0.6,0.4c-0.1,0-0.1,0.1,0,0.1c0.2,0.1,0.8,0.2,1.4-0.1c-0.5,0.2-1.3,0.2-1.8,0
						C9.4,10.5,9.7,10.2,10.3,9.9"/>
					<path fill="#B0B1B3" d="M10.3,9.9L10.3,9.9L10.3,9.9L10.3,9.9L10.3,9.9L10.3,9.9L10.3,9.9L10.3,9.9L10.3,9.9L10.3,9.9L10.3,9.9
						L10.3,9.9L10.3,9.9L10.3,9.9L10.3,9.9L10.3,9.9L10.3,9.9L10.3,9.9L10.3,9.9L10.3,9.9c0,0,0.1,0,0.1,0.1c0,0,0,0,0,0
						C10.3,10,10.3,10,10.3,9.9c0,0.1,0,0.2-0.1,0.3c-0.1,0.1-0.3,0.2-0.5,0.3c0,0-0.1,0.1,0,0.1c0.1,0.1,0.9,0.2,1.5,0
						c-0.5,0.2-1.3,0.2-1.8,0C9.4,10.5,9.7,10.2,10.3,9.9"/>
					<path fill="#ABADAF" d="M10.3,9.9L10.3,9.9L10.3,9.9L10.3,9.9L10.3,9.9L10.3,9.9L10.3,9.9L10.3,9.9L10.3,9.9L10.3,9.9L10.3,9.9
						L10.3,9.9L10.3,9.9L10.3,9.9L10.3,9.9L10.3,9.9L10.3,9.9L10.3,9.9L10.3,9.9L10.3,9.9C10.3,9.9,10.3,9.9,10.3,9.9
						C10.3,9.9,10.3,9.9,10.3,9.9C10.3,9.9,10.3,9.9,10.3,9.9C10.3,10,10.3,10,10.3,9.9C10.2,10,10.2,10,10.3,9.9
						c0,0.1-0.1,0.2-0.3,0.4c-0.3,0.2-0.3,0.2-0.3,0.3c0,0.1,0.4,0.2,0.5,0.2c0.1,0,0.3,0,0.5,0c-0.4,0.1-0.9,0-1.3-0.1
						C9.4,10.5,9.7,10.2,10.3,9.9"/>
					<path fill="#A7A8AA" d="M10.3,9.9L10.3,9.9L10.3,9.9L10.3,9.9L10.3,9.9L10.3,9.9L10.3,9.9L10.3,9.9L10.3,9.9L10.3,9.9L10.3,9.9
						L10.3,9.9L10.3,9.9L10.3,9.9L10.3,9.9L10.3,9.9L10.3,9.9L10.3,9.9L10.3,9.9L10.3,9.9C10.3,9.9,10.3,9.9,10.3,9.9
						C10.3,9.9,10.3,9.9,10.3,9.9C10.3,9.9,10.3,9.9,10.3,9.9c-0.1,0-0.6,0.4-0.7,0.5c-0.1,0.1,0,0.2,0,0.2c0.1,0.1,0.4,0.2,0.9,0.1
						c-0.4,0-0.8,0-1.1-0.1C9.4,10.5,9.7,10.2,10.3,9.9"/>
					<path fill="#A2A3A6" d="M10.3,9.9C10.3,9.9,10.3,9.9,10.3,9.9L10.3,9.9C10.3,9.9,10.3,9.9,10.3,9.9L10.3,9.9
						C10.3,9.9,10.3,9.9,10.3,9.9L10.3,9.9C10.3,9.9,10.3,9.9,10.3,9.9L10.3,9.9C10.3,9.9,10.3,9.9,10.3,9.9L10.3,9.9
						C10.3,9.9,10.3,9.9,10.3,9.9L10.3,9.9L10.3,9.9L10.3,9.9L10.3,9.9L10.3,9.9L10.3,9.9L10.3,9.9L10.3,9.9
						C10.3,9.9,10.3,9.9,10.3,9.9C10.3,9.9,10.3,9.9,10.3,9.9C10.2,9.9,10.2,10,10.3,9.9C10.2,10,10.2,10,10.3,9.9
						C10.2,10,10.2,9.9,10.3,9.9"/>
					<g>
						<polyline fill="#9D9FA1" points="10.3,9.9 10.3,9.9 10.3,9.9 10.3,9.9 10.3,9.9 10.3,9.9 10.3,9.9 10.3,9.9 10.3,9.9 
							10.3,9.9 10.3,9.9 10.3,9.9 10.3,9.9 10.3,9.9 						"/>
						<path fill="#9D9FA1" d="M10.3,9.9C10.3,9.9,10.3,9.9,10.3,9.9L10.3,9.9L10.3,9.9L10.3,9.9C10.2,9.9,10.2,10,10.3,9.9
							C10.2,10,10.2,10,10.3,9.9C10.2,10,10.2,9.9,10.3,9.9"/>
					</g>
					<path fill="#999A9C" d="M10.3,9.9C10.3,9.9,10.3,9.9,10.3,9.9C10.3,9.9,10.3,9.9,10.3,9.9C10.3,9.9,10.3,9.9,10.3,9.9
						C10.2,10,10.2,10,10.3,9.9C10.2,10,10.2,10,10.3,9.9C10.2,10,10.2,9.9,10.3,9.9"/>
					<path fill="#959698" d="M10.3,9.9C10.3,9.9,10.3,9.9,10.3,9.9C10.3,9.9,10.3,9.9,10.3,9.9C10.3,9.9,10.3,9.9,10.3,9.9
						C10.2,9.9,10.2,10,10.3,9.9C10.2,10,10.2,10,10.3,9.9C10.2,10,10.2,9.9,10.3,9.9"/>
					<path fill="#909193" d="M10.3,9.9C10.3,9.9,10.3,9.9,10.3,9.9C10.3,9.9,10.3,9.9,10.3,9.9C10.3,9.9,10.3,9.9,10.3,9.9
						C10.3,9.9,10.2,10,10.3,9.9C10.2,10,10.2,10,10.3,9.9C10.2,10,10.2,10,10.3,9.9C10.2,9.9,10.2,9.9,10.3,9.9"/>
					<path fill="#8B8D8F" d="M10.3,9.9C10.3,9.9,10.3,9.9,10.3,9.9C10.3,9.9,10.3,9.9,10.3,9.9C10.3,9.9,10.2,9.9,10.3,9.9
						C10.2,10,10.2,10,10.3,9.9C10.2,9.9,10.3,9.9,10.3,9.9"/>
					<path fill="#87888A" d="M10.3,9.9C10.3,9.9,10.3,9.9,10.3,9.9C10.3,9.9,10.3,9.9,10.3,9.9C10.3,9.9,10.3,9.9,10.3,9.9
						C10.2,9.9,10.2,9.9,10.3,9.9C10.2,9.9,10.3,9.9,10.3,9.9"/>
					<path fill="#838485" d="M10.3,9.9C10.3,9.9,10.3,9.9,10.3,9.9L10.3,9.9C10.3,9.9,10.2,9.9,10.3,9.9C10.2,9.9,10.3,9.9,10.3,9.9
						"/>
					<polyline fill="#7E7F81" points="10.3,9.9 10.3,9.9 10.3,9.9 10.2,9.9 10.3,9.9 					"/>
					<polyline fill="#7A7B7C" points="10.3,9.9 10.3,9.9 10.3,9.9 10.3,9.9 					"/>
					<polyline fill="#757678" points="10.3,9.9 10.3,9.9 10.3,9.9 10.3,9.9 					"/>
					<path fill="#E6E8EA" d="M10.2,10.7c0.1,0,0.9-0.1,0.9-0.1c0,0,0,0,0,0C11,10.7,10.3,10.8,10.2,10.7
						C10.2,10.8,10.2,10.8,10.2,10.7C10.2,10.7,10.2,10.7,10.2,10.7"/>
					<path fill="#E7E9EB" d="M10.3,10.7c0.1,0,0.8-0.1,0.8-0.1c0,0,0,0,0,0C11,10.7,10.3,10.8,10.3,10.7
						C10.2,10.8,10.2,10.8,10.3,10.7C10.2,10.7,10.3,10.7,10.3,10.7"/>
					<path fill="#E8EAEC" d="M10.3,10.7c0.1,0,0.8-0.1,0.8-0.1c0,0,0,0,0,0c0,0-0.1,0.1-0.4,0.1C10.4,10.8,10.2,10.8,10.3,10.7
						C10.2,10.8,10.2,10.8,10.3,10.7C10.2,10.7,10.3,10.7,10.3,10.7"/>
					<path fill="#E9EBED" d="M10.3,10.7c0.1,0,0.8-0.1,0.8-0.1c0,0,0,0,0,0c0,0-0.1,0.1-0.3,0.1C10.4,10.8,10.3,10.8,10.3,10.7
						C10.3,10.8,10.3,10.8,10.3,10.7C10.3,10.7,10.3,10.7,10.3,10.7"/>
					<path fill="#A2A3A6" d="M9.4,10.5c0.1,0.2,0.5,0.3,0.9,0.3c-0.4,0-0.7,0-1-0.2C9.4,10.6,9.4,10.6,9.4,10.5"/>
					<path fill="#EAEBED" d="M10.3,10.7c0,0,0.7-0.1,0.7-0.1c0,0,0,0,0,0c0,0-0.1,0.1-0.3,0.1C10.4,10.8,10.3,10.8,10.3,10.7
						C10.3,10.8,10.3,10.8,10.3,10.7"/>
					<path fill="#EBECEE" d="M10.3,10.7c0,0,0.6-0.1,0.7-0.1c0,0,0,0,0,0C10.7,10.8,10.3,10.8,10.3,10.7
						C10.3,10.8,10.3,10.7,10.3,10.7"/>
					<path fill="#9D9FA1" d="M9.4,10.6C9.4,10.6,9.4,10.6,9.4,10.6c0.1,0.1,0.2,0.1,0.3,0.2c0.1,0,0.3,0.1,0.6,0.1
						C9.9,10.8,9.6,10.8,9.4,10.6C9.4,10.6,9.4,10.6,9.4,10.6"/>
					<path fill="#EBEDEE" d="M10.3,10.8C10.3,10.8,10.3,10.7,10.3,10.8c0,0,0.5-0.1,0.5-0.1c0.1,0,0.1,0,0.1,0
						C10.6,10.8,10.3,10.8,10.3,10.8C10.3,10.8,10.3,10.8,10.3,10.8"/>
					<path fill="#999A9C" d="M9.4,10.6C9.4,10.6,9.4,10.6,9.4,10.6c0.1,0,0.3,0.2,0.8,0.2C9.9,10.8,9.6,10.8,9.4,10.6
						C9.4,10.6,9.4,10.6,9.4,10.6"/>
					<path fill="#ECEDEF" d="M10.4,10.7c0,0,0.4-0.1,0.5-0.1c0.1,0,0.1,0,0.1,0C10.8,10.8,10.6,10.8,10.4,10.7
						C10.3,10.8,10.3,10.7,10.4,10.7"/>
					<path fill="#ECEEEF" d="M10.4,10.7c0,0,0.3,0,0.5-0.1c0,0,0,0,0.1,0C10.8,10.8,10.6,10.8,10.4,10.7
						C10.4,10.8,10.4,10.7,10.4,10.7"/>
					<path fill="#959698" d="M9.4,10.6C9.4,10.6,9.4,10.6,9.4,10.6c0.2,0.1,0.4,0.2,0.7,0.2C9.8,10.8,9.6,10.7,9.4,10.6
						C9.4,10.6,9.4,10.6,9.4,10.6"/>
					<path fill="#EDEEF0" d="M10.4,10.8c0,0,0.4-0.1,0.5-0.1C10.7,10.8,10.5,10.8,10.4,10.8C10.4,10.8,10.4,10.8,10.4,10.8"/>
					<path fill="#909193" d="M9.4,10.6C9.4,10.6,9.4,10.6,9.4,10.6c0.1,0.1,0.3,0.1,0.6,0.2C9.8,10.8,9.5,10.7,9.4,10.6
						C9.4,10.6,9.4,10.6,9.4,10.6"/>
					<path fill="#EDEFF0" d="M10.4,10.7c0,0,0.4-0.1,0.4,0C10.7,10.8,10.5,10.8,10.4,10.7C10.4,10.8,10.4,10.7,10.4,10.7"/>
					<path fill="#EEEFF1" d="M10.4,10.7c0,0,0.3-0.1,0.4,0C10.8,10.7,10.6,10.8,10.4,10.7C10.4,10.8,10.4,10.7,10.4,10.7"/>
					<path fill="#8B8D8F" d="M9.4,10.6C9.4,10.6,9.4,10.6,9.4,10.6c0.2,0.1,0.4,0.2,0.5,0.2C9.7,10.8,9.5,10.7,9.4,10.6
						C9.4,10.6,9.4,10.6,9.4,10.6"/>
					<path fill="#EEF0F1" d="M10.4,10.8c0.1,0,0.3-0.1,0.4-0.1C10.7,10.8,10.5,10.8,10.4,10.8C10.4,10.8,10.4,10.8,10.4,10.8"/>
					<path fill="#87888A" d="M9.4,10.6C9.4,10.6,9.4,10.6,9.4,10.6c0.1,0,0.2,0.1,0.4,0.2C9.6,10.8,9.5,10.7,9.4,10.6
						C9.4,10.6,9.4,10.6,9.4,10.6"/>
					<path fill="#EFF0F2" d="M10.5,10.7c0,0,0.2,0,0.3,0C10.7,10.8,10.5,10.8,10.5,10.7C10.5,10.8,10.5,10.7,10.5,10.7"/>
					<path fill="#838485" d="M9.4,10.6C9.4,10.6,9.4,10.6,9.4,10.6c0.1,0.1,0.2,0.1,0.4,0.1C9.6,10.7,9.5,10.7,9.4,10.6
						C9.4,10.6,9.4,10.6,9.4,10.6"/>
					<path fill="#EFF0F2" d="M10.5,10.7c0,0,0.1,0,0.3,0C10.7,10.7,10.6,10.8,10.5,10.7C10.5,10.8,10.5,10.8,10.5,10.7"/>
					<path fill="#7E7F81" d="M9.4,10.6C9.4,10.6,9.4,10.7,9.4,10.6c0.1,0,0.1,0.1,0.3,0.1C9.5,10.7,9.4,10.7,9.4,10.6
						C9.4,10.7,9.4,10.6,9.4,10.6"/>
					<path fill="#F0F1F2" d="M10.6,10.7c0.1,0,0.1,0,0.2,0C10.7,10.7,10.6,10.8,10.6,10.7C10.5,10.7,10.6,10.7,10.6,10.7"/>
					<path fill="#7A7B7C" d="M9.4,10.6C9.4,10.6,9.4,10.7,9.4,10.6c0.1,0,0.1,0.1,0.2,0.1C9.5,10.7,9.4,10.7,9.4,10.6
						C9.4,10.7,9.4,10.7,9.4,10.6"/>
					<path fill="#F0F1F3" d="M10.6,10.7c0,0,0.1,0,0.1,0C10.7,10.7,10.6,10.7,10.6,10.7C10.6,10.7,10.6,10.7,10.6,10.7"/>
					<path fill="#757678" d="M9.4,10.7C9.4,10.7,9.4,10.7,9.4,10.7C9.4,10.7,9.4,10.7,9.4,10.7C9.4,10.7,9.4,10.7,9.4,10.7"/>
				</g>
			</g>
		</g>
	</g>
	<g>
		<g>
			<polygon fill="#393939" stroke="#9FA0A0" stroke-width="0.25" stroke-miterlimit="10" points="9.1,11 9.1,14.2 0.7,10.6 0.7,7.4 
							"/>
		</g>
	</g>
	<polygon fill="#03FF03" points="7.3,10.9 8.4,11.4 8.4,12.4 7.3,11.9 	"/>
</g>
</svg>